<svg preserveAspectRatio="meet" viewBox="0 0 500 600.002" style="overflow: hidden; position: relative; top: -0.5px;" xmlns="http://www.w3.org/2000/svg" width="350px" version="1.1" height="500px"><path id="_177710008" stroke-width="4.545767879781819" d="M462.763,214.325L393.716,295.891L420.597,399.332L313.73,396.169L249.558,481.82L185.385,396.169L78.5188,399.332L105.4,295.891L36.2198,214.325L133.863,170.84L154.55,65.8183L249.558,115.101L344.433,65.8183L365.121,170.84Z" stroke="#373435" fill="#666666" style=""></path><path id="_219865448" stroke-width="3.8654528848" d="M308.46,240.548C310.04031999999995,244.36888,312.80764999999997,248.9811,317.02419999999995,252.2752" stroke="#373435" fill="#ffffff" style=""></path><path id="_219865520" stroke-width="3.8654528848" d="M356.161,258.732C356.687773,256.09577,356.95116,251.08906000000002,356.292103,248.05830000000003" stroke="#373435" fill="#888888" style=""></path><path id="_219865592" stroke-width="3.8654528848" d="M140.319,269.406C140.187897,264.13472,137.28828,262.02645,134.25755999999998,261.76306" stroke="#373435" fill="#111111" style=""></path><path id="_219865664" stroke-width="3.8654528848" d="M124.639,270.063C138.6068,262.68462999999997,152.8379,274.01616,149.8072,293.782" stroke="#373435" fill="#333333" style=""></path><ellipse id="_219865736" stroke-width="3.8654528848" style="" stroke="#373435" fill="#eeeeee" ry="31.4933" rx="78.4039" cy="268.351" cx="249.558"></ellipse><path id="_219865808" stroke-width="3.8654528848" d="M357.478,268.483C357.346897,263.34283,361.69455,262.68495,364.98865,263.07944" stroke="#373435" fill="#111111" style=""></path><path id="_219865880" stroke-width="3.8654528848" d="M374.477,270.196C359.5868,260.70817000000005,344.5655,272.69994,348.782,294.1784" stroke="#373435" fill="#333333" style=""></path><path id="_219865952" stroke-width="3.8654528848" d="M361.168,263.212C348.6495,249.37529999999998,316.1017,248.84859999999998,332.4423,265.18799" stroke="#373435" fill="#ffffff" style=""></path><path id="_176728744" stroke-width="3.8654528848" d="M156.132,236.33L171.1545,250.8257C193.6876,236.1989,220.7007,227.7658,249.55870000000002,227.7658C278.4167,227.7658,305.2975,236.1989,327.9617,250.8257L342.8519,236.33" stroke="#373435" fill="#555555" style=""></path><path id="_176975248" stroke-width="3.8654528848" d="M247.45,400.781C244.68267,394.32389,245.34053999999998,387.8668,248.63583,381.54200000000003" stroke="#373435" fill="#111111" style=""></path><path id="_176975320" stroke-width="3.8654528848" d="M254.302,382.597C249.42639,389.71198,250.08544999999998,394.7199,254.565387,398.2774C257.465007,400.51796,255.09215999999998,402.75734,247.45040699999998,400.78134C244.683077,401.440397,242.44251699999998,400.385669,240.99329699999998,397.88172C238.88502699999998,393.92855999999995,241.12439999999998,385.36431999999996,244.024017,380.48871999999994" stroke="#373435" fill="#333333" style=""></path><path id="_176975392" stroke-width="3.8654528848" d="M273.541,419.098C285.5316,408.8188,285.4005,396.43260000000004,279.33905,389.1853C272.0906,380.35652999999996,251.40355,381.14787,256.14685,396.43257C258.12284,402.88968,265.76577999999995,401.30818,263.13072999999997,393.92863C261.28583999999995,388.52625,266.95160999999996,391.42587,267.21498999999994,396.16919" stroke="#373435" fill="#444444" style=""></path><path id="_176975464" stroke-width="3.8654528848" d="M249.294,438.862C250.61211,439.91673000000003,253.11606,440.83917,256.01449,441.62933000000004C255.48771700000003,443.21083000000004,253.51173000000003,444.39666000000005,250.48101000000003,445.05572000000006C251.00778300000002,447.16399000000007,250.61211300000002,448.87660000000005,250.34872600000003,450.59038000000004C247.84478600000003,450.19470900000005,242.70578600000002,443.34311,238.22582600000004,438.07188" stroke="#373435" fill="#222222" style=""></path><path id="_176975536" stroke-width="3.8654528848" d="M273.541,419.098C293.7013,393.5341,259.3087,382.3337,268.92878,401.44050000000004" stroke="#373435" fill="#bbbbbb" style=""></path><path id="_176975608" stroke-width="3.8654528848" d="M263.394,409.873C261.15344,398.936,270.90465,398.8037,273.4086,406.84228C278.94325999999995,424.23638,261.8125,432.93288,254.03849999999997,432.53728" stroke="#373435" fill="#555555" style=""></path><path id="_176975680" stroke-width="3.8654528848" d="M258.914,409.214C269.7188,406.31557,270.3778,431.0881,249.29388999999998,427.9251C240.4663,426.60817,229.79268999999996,420.41445,219.77808999999996,413.5629" stroke="#373435" fill="#ffffff" style=""></path><path id="_176975752" stroke-width="3.8654528848" d="M247.713,405.657C250.61142999999998,399.19989,258.65,405.657,259.7036,411.71844C260.88943,418.30665,257.46422,427.00434,245.60469999999998,427.13543999999996" stroke="#373435" fill="#eeeeee" style=""></path><path id="_176975824" stroke-width="3.8654528848" d="M232.823,421.733C252.0609,430.29838,261.8121,409.7412,248.3711,407.3696" stroke="#373435" fill="#bbbbbb" style=""></path><path id="_176975896" stroke-width="3.8654528848" d="M233.613,432.011C241.25594,436.49094,248.3709,438.86260000000004,251.4028,439.25827000000004C262.0753,441.10316000000006,265.23830000000004,432.53778000000005,254.03785000000002,432.53778000000005C246.92169,432.40667700000006,235.32555000000002,426.47634000000005,223.73065000000003,418.83338000000003" stroke="#373435" fill="#999999" style=""></path><path id="_176975968" stroke-width="3.8654528848" d="M216.219,408.688C225.83911,416.46204,236.2482,420.0207,242.96869999999998,416.85771C249.95257999999998,413.69471,251.00731,401.17731,242.04625599999997,405.13051" stroke="#373435" fill="#aaaaaa" style=""></path><path id="_176976040" stroke-width="3.8654528848" d="M206.996,386.945C208.44522,398.8045,230.3193,413.9581,239.2792,408.1612C241.51976,406.84309,247.18552,399.85921,237.69888,398.14660000000003" stroke="#373435" fill="#222222" style=""></path><path id="_176976112" stroke-width="3.8654528848" d="M211.212,387.077C214.11042999999998,394.71994,227.0246,401.177,234.0085,400.1223C239.54316,399.199856,242.30931,391.16243,235.06205,389.5809" stroke="#373435" fill="#666666" style=""></path><path id="_176976184" stroke-width="3.8654528848" d="M213.188,386.681C221.35771,399.0684,243.75969999999998,391.81998999999996,235.8534,378.51129" stroke="#373435" fill="#ffffff" style=""></path><path id="_176976256" stroke-width="3.8654528848" d="M206.073,386.681C214.63838,388.65817,220.8309,383.38689999999997,223.46710000000002,374.69039999999995" stroke="#373435" fill="#333333" style=""></path><path id="_176989936" stroke-width="3.8654528848" d="M420.992,224.076C421.78216000000003,222.4945,422.04673,219.99054999999998,422.17783000000003,216.95983999999999C423.89043000000004,217.09212399999998,425.47193000000004,218.80472999999998,426.79005,221.57206C428.76604000000003,220.51851,430.47983,220.51851,432.19243,220.51851C432.455817,222.89016999999998,426.79005,229.61066,422.7046,235.14410999999998" stroke="#373435" fill="#111111" style=""></path><path id="_176990008" stroke-width="3.8654528848" d="M396.351,204.837C366.9663,190.86919999999998,363.6722,226.84339999999997,380.275,213.27009999999999" stroke="#373435" fill="#bbbbbb" style=""></path><path id="_176990080" stroke-width="3.8654528848" d="M389.63,216.696C379.4843,221.30822,377.1126,211.95268,384.3599,207.73613C400.17249999999996,198.37941,412.4265,213.26961,413.7446,220.91253" stroke="#373435" fill="#111111" style=""></path><path id="_176990152" stroke-width="3.8654528848" d="M390.026,221.176C384.75472,211.42478999999997,408.7371,205.23219999999998,410.3186,226.57956C410.977657,235.40715,407.42017,247.13556,402.93905,258.46826" stroke="#373435" fill="#222222" style=""></path><path id="_176990224" stroke-width="3.8654528848" d="M388.971,233.036C381.98712,231.58678,386.59934,222.3623,392.134,219.9907C398.32772,217.35565,407.68330000000003,218.80487,410.3183,230.2687" stroke="#373435" fill="#ffffff" style=""></path><path id="_176990296" stroke-width="3.8654528848" d="M407.947,243.973C412.03245,223.28470000000002,389.7627,218.40910000000002,390.5529,231.9824" stroke="#373435" fill="#555555" style=""></path><path id="_176990368" stroke-width="3.8654528848" d="M417.829,240.942C420.46523,232.5089,421.25539000000003,224.9982,420.992,221.9675C420.332943,211.1616,411.37307000000004,209.9757,413.74473,220.91277C415.32623,227.76555,412.03213,240.54747,407.28762,253.46047" stroke="#373435" fill="#bbbbbb" style=""></path><path id="_176990440" stroke-width="3.8654528848" d="M398.986,263.08C404.38956,251.87959999999998,405.57538999999997,240.9425,400.96317,235.1445C396.35095,229.08306,383.96467,230.79685,389.76277,238.70317" stroke="#373435" fill="#222222" style=""></path><path id="_176990512" stroke-width="3.8654528848" d="M379.748,276.916C391.0807,272.83055,400.96299999999997,248.058,393.32009999999997,240.67849999999999C391.47520999999995,238.83361,383.43778999999995,234.88045,383.96455999999995,244.50055999999998" stroke="#373435" fill="#aaaaaa" style=""></path><path id="_176990584" stroke-width="3.8654528848" d="M378.957,272.7C385.80978,268.21888,389.2362,254.12,386.59994,247.53179999999998C384.62395,242.52390999999997,376.05854,241.47035999999997,376.19084,248.98101999999997" stroke="#373435" fill="#aaaaaa" style=""></path><path id="_176990656" stroke-width="3.8654528848" d="M378.167,270.855C388.445,260.1813,376.45439999999996,239.8888,365.1217,250.69350000000003" stroke="#373435" fill="#888888" style=""></path><path id="_176990728" stroke-width="3.8654528848" d="M379.879,277.839C379.879,269.01023,373.29079,264.2657,364.1986,263.4756" stroke="#373435" fill="#cccccc" style=""></path><path id="_177003976" stroke-width="3.8654528848" d="M373.423,306.169C370.78677,306.828057,368.01944,306.96034099999997,365.25329,306.301284C361.82689999999997,305.511124,358.92728999999997,303.797344,356.68791,301.294574C358.00484,297.076844,354.84301999999997,288.24807400000003,355.765466,283.768174C358.927286,269.141374,377.376166,270.855174,383.174166,281.79218399999996L377.112726,289.039454C376.584772,285.74535399999996,374.080826,282.978014,370.786726,282.186674C366.306786,281.133124,361.82685599999996,283.90045399999997,360.772126,288.38039399999997C359.84968200000003,292.86033399999997,362.61701600000004,297.209164,367.096946,298.262704C370.392236,299.054045,373.817436,297.604828,375.662326,294.837494L378.033986,303.929644C376.584766,304.852088,375.00326600000005,305.642244,373.422946,306.169024Z" stroke="#000000" fill="#dddddd" style=""></path><path id="_177004480" stroke-width="3.8654528848" d="M358.533,347.15C355.2389,341.08856,349.70423,337.53107,342.72040000000004,336.2141" stroke="#373435" fill="#888888" style=""></path><path id="_177004552" stroke-width="3.8654528848" d="M339.953,341.353C348.64948,341.879773,352.2082,345.43726,352.2082,351.23531C352.2082,354.92509,355.23891999999995,354.39831000000004,358.53301999999996,347.14986000000005C360.77239999999995,345.5695400000001,361.30035,343.0656000000001,360.24562,340.43055000000004C358.53301999999996,336.21400000000006,350.49440999999996,332.65533000000005,344.82862,331.86517000000003" stroke="#373435" fill="#666666" style=""></path><path id="_177004624" stroke-width="3.8654528848" d="M356.556,379.038C341.139,381.93762000000004,331.52009999999996,374.16358,329.5429,364.9391C327.17123999999995,353.7387,340.7433,338.1894,349.70439999999996,351.2347C353.52527999999995,356.90047,347.59612999999996,361.9084,343.37958,355.18786C340.34886,350.44454,339.16184999999996,356.63708,342.588239,359.80008" stroke="#373435" fill="#666666" style=""></path><path id="_177004696" stroke-width="3.8654528848" d="M387.128,372.45C387.128,374.16378,386.336659,376.53544999999997,385.15083,379.43388C386.73233,379.960653,388.84060999999997,379.038209,391.34454999999997,377.1945C392.66148,378.9071,394.11188,379.82955,395.69219999999996,380.4886C396.87802999999997,378.38033,394.769756,369.946,393.45282,363.2267" stroke="#373435" fill="#666666" style=""></path><path id="_177004768" stroke-width="3.8654528848" d="M356.556,379.038C324.00829999999996,378.906897,336.79019999999997,345.041,345.7512,364.4124" stroke="#373435" fill="#444444" style=""></path><path id="_177004840" stroke-width="3.8654528848" d="M355.633,365.466C348.51802,356.90062,342.3243,364.41245000000004,347.06762,371.26405C357.21452,386.54995,374.73972,378.51132,379.22092,372.05421" stroke="#373435" fill="#eeeeee" style=""></path><path id="_177004912" stroke-width="3.8654528848" d="M358.005,361.513C349.04513,368.10121,367.8885,384.04609999999997,378.5622,365.59844999999996C383.04214,357.82322999999997,384.88702,345.70034999999996,385.80947000000003,333.70975" stroke="#373435" fill="#999999" style=""></path><path id="_177004984" stroke-width="3.8654528848" d="M362.091,350.445C355.2394,348.73122,355.37051,359.00919999999996,359.32367,363.6214C363.80361,368.62928999999997,372.89576999999997,371.39662,380.27527,362.17217999999997" stroke="#373435" fill="#333333" style=""></path><path id="_177005056" stroke-width="3.8654528848" d="M383.965,348.863C378.69372,369.1556,356.55629999999996,364.0166,363.14559999999994,352.1571" stroke="#373435" fill="#dddddd" style=""></path><path id="_177005128" stroke-width="3.8654528848" d="M391.608,355.847C390.28989,364.67577,387.78594,371.65959999999995,386.20562,374.2947C380.93434,383.78252999999995,372.23782,380.88291,379.22174,372.05413999999996C383.56939,366.65175999999997,386.20562,353.73873999999995,387.39145,340.03434" stroke="#373435" fill="#888888" style=""></path><path id="_177005200" stroke-width="3.8654528848" d="M384.228,327.779C384.36028400000004,340.1653,380.53822,350.4444,373.95,353.8696C367.09722,357.29599,356.68809999999996,350.31211,365.38462,345.69989" stroke="#373435" fill="#888888" style=""></path><path id="_177005272" stroke-width="3.8654528848" d="M372.895,306.96C381.32928,315.52538,379.48438999999996,342.14279999999997,369.46979,345.4369C366.96585,346.35934399999996,358.00479,346.49163,362.61701,337.92625" stroke="#373435" fill="#eeeeee" style=""></path><path id="_177005344" stroke-width="3.8654528848" d="M370.393,310.386C374.60954999999996,317.36988,371.57883,331.601,366.30755,336.34430000000003C362.35438999999997,340.03408,354.31695,337.266744,357.61107,330.54625000000004" stroke="#373435" fill="#444444" style=""></path><path id="_177005416" stroke-width="3.8654528848" d="M368.811,311.572C373.42321999999996,325.80310000000003,353.7885,338.8485,348.3861,324.2216" stroke="#373435" fill="#cccccc" style=""></path><path id="_177005488" stroke-width="3.8654528848" d="M373.423,306.169C369.46984,314.07532,361.5635,315.52572,353.1292,312.23044" stroke="#373435" fill="#444444" style=""></path><path id="_179328944" stroke-width="3.8654528848" d="M114.756,234.486C120.42177,238.57026,126.8789,239.22932,133.8628,237.38442999999998" stroke="#373435" fill="#111111" style=""></path><path id="_179329016" stroke-width="3.8654528848" d="M133.994,231.719C125.95657,234.88082,121.21209999999999,233.16822,118.7093,227.89694C117.1278,224.73512,114.62385,226.44772,114.75614,234.48633C113.43803,236.85799,113.964799,239.36075,116.07307,241.20564000000002C119.49946,244.36864000000003,128.32827,243.97297,133.73057,242.26037000000002" stroke="#373435" fill="#999999" style=""></path><path id="_179329088" stroke-width="3.8654528848" d="M102.764,204.837C115.4136,195.48146,127.4054,198.37989,133.2035,205.759444C140.18738,214.851594,134.65272,234.880844,120.94829999999999,226.843344C115.01915,223.416954,118.31324999999998,216.433044,124.90145999999999,220.649624C129.77706999999998,223.549244,128.19555999999997,217.48780399999998,123.58334999999998,216.169684" stroke="#373435" fill="#777777" style=""></path><path id="_179329160" stroke-width="3.8654528848" d="M77.992,224.076C77.332943,222.4945,76.93727,219.99054999999998,76.93727,216.95983999999999C75.09237999999999,217.09212399999998,73.64317,218.80472999999998,72.19395,221.57206C70.21678,220.51851,68.50417,220.51851,66.79039,220.51851C66.659287,222.89016999999998,72.19395,229.61066,76.27822,235.14410999999998" stroke="#373435" fill="#888888" style=""></path><path id="_179329232" stroke-width="3.8654528848" d="M102.764,204.837C132.1487,190.86919999999998,135.3117,226.84339999999997,118.84,213.27009999999999" stroke="#373435" fill="#888888" style=""></path><path id="_179329304" stroke-width="3.8654528848" d="M109.485,216.696C119.6307,221.30822,121.8713,211.95268,114.62398999999999,207.73613C98.94358999999999,198.37941,86.55618999999999,213.26961,85.23929,220.91253" stroke="#373435" fill="#999999" style=""></path><path id="_179329376" stroke-width="3.8654528848" d="M109.089,221.176C114.22799,211.42478999999997,90.2456,205.23219999999998,88.66409999999999,226.57956C88.00622399999999,235.40715,91.69481999999999,247.13556,96.04364999999999,258.46826" stroke="#373435" fill="#333333" style=""></path><path id="_179329448" stroke-width="3.8654528848" d="M110.144,233.036C116.99560000000001,231.58678,112.51566000000001,222.3623,106.8499,219.9907C100.65618,217.35565,91.3006,218.80487,88.6644,230.2687" stroke="#373435" fill="#aaaaaa" style=""></path><path id="_179329520" stroke-width="3.8654528848" d="M91.1684,243.973C87.08414,223.28470000000002,109.22160000000001,218.40910000000002,108.4303,231.9824" stroke="#373435" fill="#eeeeee" style=""></path><path id="_179329592" stroke-width="3.8654528848" d="M81.2861,240.942C78.64987,232.5089,77.85971,224.9982,77.992,221.9675C78.78216,211.1616,87.74203,209.9757,85.23927,220.91277C83.79005000000001,227.76555,87.08416000000001,240.54747,91.82748000000001,253.46047" stroke="#373435" fill="#999999" style=""></path><path id="_179329664" stroke-width="3.8654528848" d="M99.9972,263.08C94.59482000000001,251.87959999999998,93.54009,240.9425,98.02121000000001,235.1445C102.76453000000001,229.08306,115.15081,230.79685,109.22161000000001,238.70317" stroke="#373435" fill="#111111" style=""></path><path id="_179329736" stroke-width="3.8654528848" d="M120.026,272.7C113.17439999999999,268.21888,109.74799999999999,254.12,112.38306,247.53179999999998C114.49133,242.52390999999997,122.92566,241.47035999999997,122.79336,248.98101999999997" stroke="#373435" fill="#666666" style=""></path><path id="_179329808" stroke-width="3.8654528848" d="M120.949,270.855C110.5387,260.1813,122.66159999999999,239.8888,133.8632,250.69350000000003" stroke="#373435" fill="#333333" style=""></path><path id="_179343056" stroke-width="3.8654528848" d="M125.693,306.169C128.19576,306.828057,130.9631,306.96034099999997,133.86271,306.301284C137.28791999999999,305.511124,140.18752999999998,303.797344,142.42691,301.294574C141.10997999999998,297.076844,143.74501999999998,290.225274,143.48164,285.876374C142.822583,276.916504,134.65287,272.304274,126.48313999999999,274.149174C121.87092,275.202724,118.18114999999999,278.10233400000004,115.94174,281.792114L122.00318,289.03938400000004C122.529953,285.745284,124.90161,282.97794400000004,128.328,282.18660400000005C132.80794,281.1330540000001,137.15677,283.90038400000003,138.21031,288.38032400000003C139.26504,292.86026400000003,136.49770999999998,297.20909400000005,132.01776999999998,298.26263400000005C128.59138,299.05397500000004,125.16498999999999,297.60475800000006,123.32009999999998,294.83742400000006L120.94843999999998,303.92957400000006C122.39765999999997,304.85201800000004,123.97915999999998,305.64217400000007,125.69293999999998,306.16895400000004Z" stroke="#000000" fill="#999999" style=""></path><path id="_179343560" stroke-width="3.8654528848" d="M140.451,347.15C143.74509999999998,341.08856,149.27976999999998,337.53107,156.3948,336.2141" stroke="#373435" fill="#999999" style=""></path><path id="_179343632" stroke-width="3.8654528848" d="M159.031,341.353C150.46562,341.879773,146.90810000000002,345.43726,146.90810000000002,351.23531C146.90810000000002,354.92509,143.7451,354.39831000000004,140.45099000000002,347.14986000000005C138.34272,345.5695400000001,137.68366000000003,343.0656000000001,138.73839,340.43055000000004C140.45099000000002,336.21400000000006,148.48842000000002,332.65533000000005,154.15539,331.86517000000003" stroke="#373435" fill="#999999" style=""></path><path id="_179343704" stroke-width="3.8654528848" d="M142.56,379.038C157.977,381.93762000000004,167.5971,374.16358,169.4408,364.9391C171.81364,353.7387,158.2404,338.1894,149.4116,351.2347C145.59072,356.90047,151.51987,361.9084,155.7376,355.18786C158.63602999999998,350.44454,159.95415,356.63708,156.39547599999997,359.80008" stroke="#373435" fill="#777777" style=""></path><path id="_179343776" stroke-width="3.8654528848" d="M111.857,372.45C111.857,374.16378,112.779444,376.53544999999997,113.96527,379.43388C112.25267000000001,379.960653,110.14439,379.038209,107.77273000000001,377.1945C106.45462,378.9071,104.87311000000001,379.82955,103.29161,380.4886C102.10578000000001,378.38033,104.34634000000001,369.946,105.53217000000001,363.2267" stroke="#373435" fill="#cccccc" style=""></path><path id="_179343848" stroke-width="3.8654528848" d="M142.56,379.038C175.1077,378.906897,162.32580000000002,345.041,153.3648,364.4124" stroke="#373435" fill="#444444" style=""></path><path id="_179343920" stroke-width="3.8654528848" d="M143.35,365.466C150.46616,356.90062,156.6599,364.41245000000004,152.04766999999998,371.26405C141.76967,386.54995,124.37556999999998,378.51132,119.76326999999998,372.05421" stroke="#373435" fill="#ffffff" style=""></path><path id="_179343992" stroke-width="3.8654528848" d="M141.11,361.513C150.06987,368.10121,131.0954,384.04609999999997,120.42170000000002,365.59844999999996C115.94176000000002,357.82322999999997,114.22798000000002,345.70034999999996,113.30554000000002,333.70975" stroke="#373435" fill="#bbbbbb" style=""></path><path id="_179344064" stroke-width="3.8654528848" d="M136.894,350.445C143.7456,348.73122,143.7456,359.00919999999996,139.66133,363.6214C135.18021,368.62928999999997,126.22032999999999,371.39662,118.70973,362.17217999999997" stroke="#373435" fill="#999999" style=""></path><path id="_179344136" stroke-width="3.8654528848" d="M115.02,348.863C120.2901,369.1556,142.42759999999998,364.0166,135.9716,352.1571" stroke="#373435" fill="#ffffff" style=""></path><path id="_179344208" stroke-width="3.8654528848" d="M107.508,355.847C108.82611,364.67577,111.33005999999999,371.65959999999995,112.77928,374.2947C118.18166,383.78252999999995,126.74708,380.88291,119.76316,372.05413999999996C115.41432999999999,366.65175999999997,112.91156,353.73873999999995,111.59345,340.03434" stroke="#373435" fill="#888888" style=""></path><path id="_179344280" stroke-width="3.8654528848" d="M114.756,327.779C114.756,340.1653,118.44459,350.4444,125.1651,353.8696C132.01788,357.29599,142.427,350.31211,133.73048,345.69989" stroke="#373435" fill="#dddddd" style=""></path><path id="_179344352" stroke-width="3.8654528848" d="M126.088,306.96C117.6549,315.52538,119.49978999999999,342.14279999999997,129.64549,345.4369C132.01833,346.35934399999996,141.11049,346.49163,136.36598,337.92625" stroke="#373435" fill="#bbbbbb" style=""></path><path id="_179344424" stroke-width="3.8654528848" d="M128.724,310.386C124.37516999999998,317.36988,127.40588999999999,331.601,132.67716,336.34430000000003C136.76142,340.03408,144.80005999999997,337.266744,141.50475,330.54625000000004" stroke="#373435" fill="#888888" style=""></path><path id="_179344496" stroke-width="3.8654528848" d="M130.173,311.572C125.56078000000001,325.80310000000003,145.1943,338.8485,150.729,324.2216" stroke="#373435" fill="#777777" style=""></path><path id="_179344568" stroke-width="3.8654528848" d="M125.693,306.169C129.51388,314.07532,137.5513,315.52572,145.9856,312.23044" stroke="#373435" fill="#333333" style=""></path><path id="_214171976" stroke-width="3.8654528848" d="M307.405,137.898C302.13372,142.50904,299.89435,148.7028,300.15772999999996,155.81889999999999" stroke="#373435" fill="#333333" style=""></path><path id="_214172048" stroke-width="3.8654528848" d="M305.693,157.399C304.37489,148.8348,307.14222,144.486,312.80798,143.3001C316.23437,142.508759,315.17964,139.61031999999997,307.4056,137.89772C305.29733,136.18393999999998,302.66228,136.18393999999998,300.42172,137.765436C296.60084,140.400486,295.01934,148.965836,295.54611,154.763936" stroke="#373435" fill="#444444" style=""></path><path id="_214172120" stroke-width="3.8654528848" d="M338.898,132.759C345.22400000000005,147.25349999999997,339.689341,158.3217,331.12396,162.27479999999997C320.71366,167.01929999999996,302.52936,157.26808999999997,313.33536000000004,145.67199999999997C317.94640000000004,140.66528999999997,324.14016000000004,145.40861299999997,318.60546000000005,150.94327999999996C314.5212000000001,154.89643999999996,320.84602000000007,154.76415999999995,323.21768000000003,150.67989299999996" stroke="#373435" fill="#aaaaaa" style=""></path><path id="_214172192" stroke-width="3.8654528848" d="M325.59,104.427C327.30377999999996,104.03132900000001,329.80654999999996,104.29471600000001,332.83727,104.95377300000001C333.100657,103.108883,331.78372,101.26399300000001,329.27978,99.28800300000002C330.72900000000004,97.70650300000001,331.25695,95.99390300000002,331.52034000000003,94.28011300000001C329.27978,93.62105600000001,321.50574000000006,97.57421300000001,315.31204,100.34155300000002" stroke="#373435" fill="#ffffff" style=""></path><path id="_214172264" stroke-width="3.8654528848" d="M338.898,132.759C346.01416,164.6477,310.1723,159.63979999999998,327.0385,146.59449999999998" stroke="#373435" fill="#bbbbbb" style=""></path><path id="_214172336" stroke-width="3.8654528848" d="M325.722,136.712C319.00151,145.53958999999998,327.69799,149.8884,333.36494,143.82698C346.01454,130.51828,334.287384,115.23237999999999,327.03893999999997,112.20168" stroke="#373435" fill="#888888" style=""></path><path id="_214172408" stroke-width="3.8654528848" d="M321.505,135.261C329.9381,142.64055,341.1385,120.63419999999999,320.845943,114.3094C312.280563,111.67434999999999,300.025443,112.5968,288.03484299999997,114.441684" stroke="#373435" fill="#bbbbbb" style=""></path><path id="_214172480" stroke-width="3.8654528848" d="M309.777,133.681C309.51361299999996,140.79598000000001,319.6605,138.42432000000002,323.21799999999996,133.41643200000001C327.17116,128.01405200000002,327.69793999999996,118.65853200000001,317.15655999999996,113.38723200000001" stroke="#373435" fill="#cccccc" style=""></path><path id="_214172552" stroke-width="3.8654528848" d="M303.321,112.729C324.2726,113.386876,324.1404,136.1834,311.22614000000004,132.3625" stroke="#373435" fill="#666666" style=""></path><path id="_214172624" stroke-width="3.8654528848" d="M308.46,103.768C317.28877,103.108943,324.6671,104.031387,327.5668,104.95383C337.9759,107.98455,337.18573,117.07673,327.038846,112.2011C320.714026,109.17038,307.537646,109.56604999999999,293.964346,111.41094" stroke="#373435" fill="#333333" style=""></path><path id="_214172696" stroke-width="3.8654528848" d="M282.633,117.209C294.7559,114.44167,305.6929,115.75978,310.4362,121.42555C315.31181,127.35470000000001,310.831871,139.08305000000001,304.50705,131.70355" stroke="#373435" fill="#eeeeee" style=""></path><path id="_214172768" stroke-width="3.8654528848" d="M264.975,132.89C271.43211,122.74429999999998,297.65380000000005,118.65889999999999,303.3208,127.75100999999998C304.63773000000003,129.85927999999998,306.74601,138.68801,297.39047,136.05299999999997" stroke="#373435" fill="#eeeeee" style=""></path><path id="_214172840" stroke-width="3.8654528848" d="M268.796,134.602C274.72633,128.93623,289.2209,128.67285,295.0189,132.75829000000002C299.49884,135.92011000000002,298.57638999999995,144.35319,291.32912,142.6406" stroke="#373435" fill="#222222" style=""></path><path id="_214172912" stroke-width="3.8654528848" d="M270.378,135.789C283.1599,128.14605999999998,300.2907,144.3532,287.2442,153.05089999999998" stroke="#373435" fill="#ffffff" style=""></path><path id="_214172984" stroke-width="3.8654528848" d="M264.053,132.626C272.61838,134.60199,275.7802,142.11383,274.4633,151.0737" stroke="#373435" fill="#777777" style=""></path><path id="_214186232" stroke-width="3.8654528848" d="M235.063,132.626C233.74606999999997,134.99766,232.95472999999998,137.63271,232.95472999999998,140.53232C232.95472999999998,144.08981,234.14056,147.25281,235.98545,150.02015C240.46657,149.624479,244.9465,149.492196,249.55874999999997,149.492196C254.03868999999997,149.492196,258.51862,149.62448,262.99854999999997,150.02015C264.97571999999997,147.25282,266.02926999999994,144.08982,266.02926999999994,140.53232C266.02926999999994,135.789,264.0532799999999,131.57127,260.89027999999996,128.54052L252.58946999999995,132.88934999999998C255.62018999999995,134.07518,257.7284599999999,137.1059,257.7284599999999,140.53229C257.7284599999999,145.14451,254.0386799999999,148.83427999999998,249.55874999999992,148.83427999999998C244.9465299999999,148.83427999999998,241.25675999999993,145.14449999999997,241.25675999999993,140.53229C241.25675999999993,137.1059,243.36502999999993,134.07518,246.52803999999992,132.88934999999998L238.22604999999993,128.54052C236.90793999999994,129.72752999999997,235.85438999999994,131.04446,235.06304999999992,132.62597Z" stroke="#373435" fill="#888888" style=""></path><path id="_214186736" stroke-width="3.8654528848" d="M191.71,137.898C196.98128,142.50904,199.08955,148.7028,198.82616000000002,155.81889999999999" stroke="#373435" fill="#666666" style=""></path><path id="_214186808" stroke-width="3.8654528848" d="M193.292,157.399C194.74122,148.8348,191.97389,144.486,186.30812,143.3001C182.75063,142.508759,183.93646,139.61031999999997,191.7105,137.89772C193.81877,136.18393999999998,196.32272,136.18393999999998,198.69438,137.765436C202.38416,140.400486,203.96565999999999,148.965836,203.56999,154.763936" stroke="#373435" fill="#444444" style=""></path><path id="_214186880" stroke-width="3.8654528848" d="M160.217,132.759C153.89218000000002,147.25349999999997,159.42565900000002,158.3217,167.85994000000002,162.27479999999997C178.26904000000002,167.01929999999996,196.58564,157.26808999999997,185.64854000000003,145.67199999999997C181.03632000000002,140.66528999999997,174.97484000000003,145.40861299999997,180.50955000000002,150.94327999999996C184.46271000000002,154.89643999999996,178.13789000000003,154.76415999999995,175.76623,150.67989299999996" stroke="#373435" fill="#222222" style=""></path><path id="_214186952" stroke-width="3.8654528848" d="M173.526,104.427C171.8134,104.03132900000001,169.17717000000002,104.29471600000001,166.14645000000002,104.95377300000001C166.01534700000002,103.108883,167.33228000000003,101.26399300000001,169.70512000000002,99.28800300000002C168.25472000000002,97.70650300000001,167.86023000000003,95.99390300000002,167.46456000000003,94.28011300000001C169.70512000000002,93.62105600000001,177.47916000000004,97.57421300000001,183.80396000000005,100.34155300000002" stroke="#373435" fill="#444444" style=""></path><path id="_214187024" stroke-width="3.8654528848" d="M160.217,132.759C153.10084,164.6477,188.9427,159.63979999999998,171.94420000000002,146.59449999999998" stroke="#373435" fill="#222222" style=""></path><path id="_214187096" stroke-width="3.8654528848" d="M173.262,136.712C179.98249,145.53958999999998,171.28483,149.8884,165.61906,143.82698C153.10056,130.51828,164.8289,115.23237999999999,171.94387999999998,112.20168" stroke="#373435" fill="#ffffff" style=""></path><path id="_214187168" stroke-width="3.8654528848" d="M177.611,135.261C169.17672,142.64055,157.84519999999998,120.63419999999999,178.26887599999998,114.3094C186.83425599999998,111.67434999999999,198.95717599999998,112.5968,210.94887599999998,114.441684" stroke="#373435" fill="#888888" style=""></path><path id="_214187240" stroke-width="3.8654528848" d="M189.338,133.681C189.469103,140.79598000000001,179.4545,138.42432000000002,175.7659,133.41643200000001C171.94384,128.01405200000002,171.28477999999998,118.65853200000001,181.95844,113.38723200000001" stroke="#373435" fill="#888888" style=""></path><path id="_214187312" stroke-width="3.8654528848" d="M195.663,112.729C174.71140000000003,113.386876,174.8436,136.1834,187.88896,132.3625" stroke="#373435" fill="#444444" style=""></path><path id="_214187384" stroke-width="3.8654528848" d="M190.524,103.768C181.69523,103.108943,174.3157,104.031387,171.4172,104.95383C161.0069,107.98455,161.79827,117.07673,171.943973,112.2011C178.268793,109.17038,191.446373,109.56604999999999,205.15077300000002,111.41094" stroke="#373435" fill="#bbbbbb" style=""></path><path id="_214187456" stroke-width="3.8654528848" d="M216.351,117.209C204.2281,114.44167,193.2911,115.75978,188.6789,121.42555C183.80329,127.35470000000001,188.152127,139.08305000000001,194.60923,131.70355" stroke="#373435" fill="#444444" style=""></path><path id="_214187528" stroke-width="3.8654528848" d="M234.009,132.89C227.55189,122.74429999999998,201.32899999999998,118.65889999999999,195.79549999999998,127.75100999999998C194.34509999999997,129.85927999999998,192.23682999999997,138.68801,201.59354999999996,136.05299999999997" stroke="#373435" fill="#666666" style=""></path><path id="_214187600" stroke-width="3.8654528848" d="M230.187,134.602C224.38895000000002,128.93623,209.76330000000002,128.67285,203.9653,132.75829000000002C199.48418,135.92011000000002,200.40663,144.35319,207.65508000000003,142.6406" stroke="#373435" fill="#aaaaaa" style=""></path><path id="_214187672" stroke-width="3.8654528848" d="M228.607,135.789C215.8251,128.14605999999998,198.82659999999998,144.3532,211.7396,153.05089999999998" stroke="#373435" fill="#cccccc" style=""></path><path id="_214187744" stroke-width="3.8654528848" d="M235.063,132.626C226.36651999999998,134.60199,223.2035,142.11383,224.52159999999998,151.0737" stroke="#373435" fill="#dddddd" style=""></path><path id="_176405080" stroke-linecap="round" stroke-width="3.8654528848" d="M314.653,88.8782L332.0471,91.51325000000001M249.5587,122.74405000000002L266.95169999999996,125.37910000000002M258.78198999999995,117.86845000000002L276.17608999999993,120.50350000000003M268.1374799999999,113.12395000000004L285.5315799999999,115.76018000000003M277.3618699999999,108.24835000000003L294.7559699999999,110.88458000000003M286.71735999999987,103.37275000000002L304.11145999999985,106.14008000000003M296.07284999999985,98.62943000000003L313.4669499999998,101.26448000000003M305.2972399999998,93.75383000000004L322.6913399999998,96.38888000000004M323.8771699999998,84.13488000000004L334.8141699999998,85.84748000000003M184.3301699999998,88.87820000000004L166.9371699999998,91.51325000000004M249.5578699999998,122.74405000000004L232.1637699999998,125.37910000000005M240.2011999999998,117.86845000000005L222.8081999999998,120.50350000000006M230.9779099999998,113.12395000000006L213.5838099999998,115.76018000000006M221.6224199999998,108.24835000000006L204.2283199999998,110.88458000000006M212.2657499999998,103.37275000000005L194.8727499999998,106.14008000000005M203.0424599999998,98.62943000000006L185.6483599999998,101.26448000000006M193.6869699999998,93.75383000000006L176.2928699999998,96.38888000000007M175.10703999999978,84.13488000000007L164.17003999999977,85.84748000000006M154.02313999999978,103.50498000000006L166.93733999999978,91.51318000000006M139.92423999999977,175.58428000000006L152.83723999999978,163.59248000000005M141.90023999999977,165.30508000000006L154.81443999999976,153.31448000000006M143.87743999999975,155.02708000000007L156.79043999999976,143.03648000000007M145.98563999999976,144.74908000000008L158.89863999999977,132.75848000000008M147.96163999999976,134.4710800000001L160.87583999999976,122.47928000000009M149.93883999999974,124.19306000000009L162.85183999999975,112.20126000000009M152.04703999999975,113.91504000000009L164.96003999999976,101.92324000000009M156.00016999999977,93.2267600000001L164.16987999999978,85.8472100000001M72.85267999999978,205.3632100000001L64.02390999999977,220.6491100000001M139.92410999999976,175.5840100000001L131.09533999999977,190.7376100000001M130.30399899999978,179.8006100000001L121.47522899999977,195.0853100000001M120.68506899999977,184.01721000000012L111.98858899999978,199.30191000000013M111.19724799999977,188.36491000000012L102.36847799999977,203.51971000000012M101.57831799999977,192.5827100000001L92.74954799999976,207.86741000000012M91.95938799999976,196.79931000000013L83.26171799999976,212.08401000000015M82.47155799999976,201.14701000000014L73.64278799999975,216.30061000000015M63.232487999999755,209.58130000000014L57.830107999999754,219.20023000000015M344.9591079999998,103.50523000000015L332.0461079999998,91.51343000000016M359.19150799999977,175.58453000000014L346.2773079999998,163.59273000000013M357.0821079999998,165.30533000000014L344.16910799999977,153.31473000000014M355.1061079999998,155.02733000000015L342.19310799999977,143.03673000000015M353.12900799999977,144.74933000000016L340.21600799999976,132.75873000000016M351.02080799999976,134.47133000000017L338.10780799999975,122.47953000000017M349.04480799999976,124.19331000000017L336.13060799999977,112.20151000000017M347.0676079999998,113.91529000000017L334.15460799999977,101.92349000000017M342.9833779999998,93.22701000000018L334.8136679999998,85.84746000000018M426.2631679999998,205.3634600000002L434.9596479999998,220.6493600000002M359.19164799999976,175.5842600000002L367.88812799999977,190.7378600000002M368.6782879999998,179.8008600000002L377.5070579999998,195.0855600000002M378.2983989999998,184.01746000000023L387.1271689999998,199.30216000000024M387.9173289999998,188.36516000000023L396.61380899999983,203.51996000000022M397.4051499999998,192.5829600000002L406.23391999999984,207.86766000000023M407.02407999999986,196.79956000000024L415.8528499999999,212.08426000000026M416.6430099999999,201.14726000000024L425.3406799999999,216.30086000000026M435.74977999999993,209.58155000000025L441.2844399999999,219.20048000000025M65.34043999999989,238.17498000000026L64.02350999999989,220.64968000000027M112.7784099999999,294.17828000000026L111.46029999999989,276.65298000000024M106.0579199999999,286.13962000000026L104.7409899999999,268.61432000000025M99.2063299999999,278.2332500000002L98.0204999999999,260.7079500000002M92.4858399999999,270.1957800000002L91.16772999999989,252.67048000000017M85.63306999999989,262.1571200000002L84.4472399999999,244.63182000000018M78.9137599999999,254.25075000000018L77.59564999999989,236.7254500000002M72.1932699999999,246.2132800000002L70.8751599999999,228.6879800000002M58.61995999999989,230.2683000000002L57.82979999999989,219.20020000000022M94.3306999999999,365.20220000000023L100.7878099999999,381.54160000000024M112.7784099999999,294.17750000000024L119.2355199999999,310.51690000000025M110.14336999999989,304.32436000000024L116.59929999999989,320.66376000000025M107.50714999999988,314.47004000000027L113.96425999999988,330.8094400000003M104.87210999999988,324.61690000000027L111.32921999999988,340.9563000000003M102.23706999999987,334.7625800000003L108.69299999999987,351.1019800000003M99.60084999999987,344.9094400000003L106.05795999999987,361.2488400000003M96.96580999999986,355.05512000000033L103.42291999999986,371.3957200000003M91.69451999999987,375.34888000000035L95.77996999999986,385.62688000000037M433.7739699999999,238.17388000000037L434.9597999999999,220.64858000000038M386.2048999999999,294.17718000000036L387.5218299999999,276.65188000000035M393.0564899999999,286.13852000000037L394.2423199999999,268.61322000000035M399.77697999999987,278.23215000000033L401.09508999999986,260.7068500000003M406.62856999999985,270.1946800000003L407.81439999999986,252.66938000000027M413.34905999999984,262.1560200000003L414.6671699999998,244.63072000000028M420.0695499999998,254.2496500000003L421.3876599999998,236.7243500000003M426.9211399999998,246.2121800000003L428.2392499999998,228.68688000000031M440.4944499999998,230.26720000000032L441.2846099999998,219.19910000000033M404.7837099999998,365.20110000000034L398.1954999999998,381.54050000000035M386.20489999999984,294.17640000000034L379.74778999999984,310.51580000000035M388.83993999999984,304.32326000000035L382.38282999999984,320.66266000000036M391.47497999999985,314.4689400000004L385.01786999999985,330.8083400000004M394.11120999999986,324.6158000000004L387.65409999999986,340.9552000000004M396.74624999999986,334.7614800000004L390.28913999999986,351.1008800000004M399.38128999999986,344.9083400000004L392.92417999999986,361.2477400000004M402.01632999999987,355.05402000000043L395.56039999999985,371.39462000000043M407.2875999999998,375.34778000000045L403.3344399999998,385.6257800000005M115.28243999999978,391.55493000000047L100.78793999999978,381.5403300000005M188.67873999999978,389.3155500000005L174.1842399999998,379.43205000000046M178.1373999999998,389.7100500000005L163.6428999999998,379.6954500000005M167.7271599999998,389.9734500000005L153.2326599999998,379.95885000000055M157.1858199999998,390.23805000000056L142.69131999999982,380.35455000000053M146.77557999999982,390.63255000000055L132.28107999999983,380.6179500000006M136.36533999999983,390.8959500000006L121.73973999999983,381.0136400000006M125.82399999999983,391.1605400000006L111.32949999999983,381.27704000000057M104.87238999999983,391.8184400000006L95.78023999999982,385.62590000000057M232.69023999999982,448.08520000000055L249.55763999999982,453.22419000000053M188.67873999999983,389.31569000000053L205.54613999999984,394.4546800000005M195.00353999999984,397.7487800000005L211.73863999999983,402.8877700000005M201.19723999999982,406.0507700000005L218.06343999999982,411.1897600000005M207.5220399999998,414.4838600000005L224.3882399999998,419.6228500000005M213.8468399999998,422.9169500000005L230.58193999999978,428.0559400000005M220.04053999999977,431.2189400000005L236.90673999999976,436.35793000000047M226.36533999999975,439.6520300000005L243.23153999999974,444.79102000000046M238.88388999999975,456.38712000000044L249.55758999999975,459.68122000000045M383.70058999999975,391.55502000000047L398.19508999999977,381.5404200000005M310.30428999999975,389.3156400000005L324.9298899999998,379.43214000000046M320.8456299999998,389.7101400000005L335.3401299999998,379.6955400000005M331.25586999999985,389.9735400000005L345.88146999999987,379.95894000000055M341.7972099999999,390.23814000000056L356.2917099999999,380.35464000000053M352.20744999999994,390.63264000000055L366.83304999999996,380.6180400000006M362.74879,390.8960400000006L377.24329,381.0137300000006M373.15903000000003,391.1606300000006L387.78463000000005,381.27713000000057M394.11063000000007,391.8185300000006L403.33389000000005,385.62599000000057M266.29089000000005,448.08529000000055L249.55699000000004,453.22428000000053M310.30359000000004,389.31578000000053L293.56849000000005,394.4547700000005M304.10989000000006,397.7488700000005L287.2424900000001,402.8878600000005M297.7850900000001,406.0508600000005L280.9176900000001,411.1898500000005M291.4602900000001,414.4839500000005L274.7251900000001,419.6229400000005M285.2665900000001,422.9170400000005L268.40039000000013,428.0560300000005M278.94179000000014,431.2190300000005L262.07439000000016,436.35802000000047M272.61699000000016,439.6521200000005L255.88189000000017,444.79111000000046M260.09844000000015,456.38721000000044L249.55704000000014,459.68131000000045" stroke="#373435" fill="#777777" style="stroke-linecap: round;"></path><path id="_176405152" stroke-width="3.8654528848" d="M249.558,453.226L305.297,378.775L398.196,381.542L374.872,291.543L434.96,220.65L349.968,182.832L332.047,91.5133L249.558,134.471L166.938,91.5133L149.017,182.832L64.0242,220.65L124.243,291.543L100.789,381.542L193.687,378.775Z" stroke="#373435" fill="#222222" style=""></path></svg>