<?xml version="1.0" encoding="UTF-8"?>
<!DOCTYPE svg PUBLIC "-//W3C//DTD SVG 1.1//EN" "http://www.w3.org/Graphics/SVG/1.1/DTD/svg11.dtd">
<!-- Creator: CorelDRAW -->
<svg xmlns="http://www.w3.org/2000/svg" xml:space="preserve" width="500px" height="600px" style="shape-rendering:geometricPrecision; text-rendering:geometricPrecision; image-rendering:optimizeQuality; fill-rule:evenodd; clip-rule:evenodd"
viewBox="0 0 500 600.002"
 xmlns:xlink="http://www.w3.org/1999/xlink">
 <defs>
  <style type="text/css">
   <![CDATA[
    .str0 {stroke:#373435;stroke-width:4.16694;stroke-linejoin:round}
    .fil3 {fill:none}
    .fil0 {fill:#373435}
    .fil1 {fill:#FEFEFE}
    .fil2 {fill:#FEFEFE;fill-rule:nonzero}
   ]]>
  </style>
 </defs>
 <g id="Layer_x0020_1">
  <metadata id="CorelCorpID_0Corel-Layer"/>
  <g id="_261038008">
   <path id="_261044752" class="fil0" d="M267.784 510.417c106.059,-65.5195 214.002,-181.006 171.579,-314.403l-4.24253 -10.8414c-20.7402,-45.723 -69.7632,-62.6919 -116.429,-46.6655 -20.7402,8.95633 -34.8804,21.6839 -50.908,36.7667l-8.95515 8.48507 -8.48507 -8.48507c-16.0264,-15.0827 -30.1678,-27.8103 -51.3793,-36.7667 -46.1942,-16.0264 -95.216,0.942523 -115.956,46.6655l-4.24253 10.8414c-13.6701,42.8954 -11.7851,84.3759 0.942523,122.556 0,0.471261 0,0.471261 0,0.942523 1.41378,3.77127 2.82757,7.54254 4.24253,11.3138 29.2241,74.9471 98.0448,137.639 166.393,179.591l8.95633 5.6575 8.48388 -5.6575z"/>
   <path id="_261045640" class="fil1" d="M143.343 179.045l-32.0529 -11.3126 -0.471261 0.471261 -0.471261 0.471261 0.471261 0.471261 25.9253 22.6264 -25.454 22.154 0 0.471261 0.471261 0.942523 31.5816 -10.8414 7.07128 33.4678 0.471261 0.471261 0.471261 0c0.471261,0 0.942523,0 0.942523,-0.942523l6.59884 -32.9966 31.5816 10.8414 0.943704 -0.471261 0 -0.471261 -0.472442 -0.471261 -24.9816 -22.154 25.9253 -23.0977 -0.471261 -0.942523 -0.472442 0 -32.0529 11.3126 -7.0701 -34.4103 -0.471261 0c-0.471261,0 -0.471261,0 -0.471261,0.472442 0,0 -0.471261,0 -0.471261,0l-7.07128 33.9379z"/>
   <path id="_261042400" class="fil2" d="M297.952 284.632c2.35749,2.35631 5.18506,4.71379 7.54254,6.59884 2.35631,2.35631 5.18506,4.24253 7.54136,5.65632 2.35749,1.88505 5.18506,3.30001 8.0138,4.24253 2.35631,1.41378 5.18506,2.82757 8.48388,3.77127 1.41497,3.77009 3.77127,7.0701 5.65632,10.3701 2.35749,3.29883 4.71379,6.59884 7.54254,9.89885 -3.77127,1.88505 -7.0701,3.29883 -10.3701,4.71261 -3.30001,1.41497 -6.12758,2.35749 -8.95633,2.82875 -2.35631,0.942523 -5.18506,1.41378 -8.01262,1.41378 -2.35749,0.471261 -5.18506,0.471261 -8.0138,0.471261 -4.24253,0 -8.01262,-0.471261 -11.3126,-0.942523 -3.77127,-0.942523 -6.59884,-2.35631 -9.42759,-3.77127 -2.35631,-1.41378 -4.71379,-3.29883 -6.12758,-5.18506 -1.41378,-1.88505 -2.35749,-4.24135 -2.35749,-6.12758 0,-1.41378 0.472442,-1.88505 0.472442,-1.88505l2.82757 -0.942523c2.35749,-0.942523 3.77127,-2.82875 5.18506,-4.71379 1.41378,-1.88623 1.88505,-4.24253 1.88505,-6.60002 0,-1.41378 -0.471261,-2.82757 -0.942523,-4.24135 -0.471261,-1.41497 -1.41378,-2.35749 -2.35631,-3.77127 -0.942523,-0.942523 -2.35749,-1.88505 -3.30001,-2.35749 -1.41378,-0.942523 -2.82757,-0.942523 -4.24253,-0.942523 -3.29883,0 -6.12758,0.942523 -8.01262,3.77127 -1.88623,2.82875 -3.30001,6.12758 -3.30001,10.3701 0,7.0701 2.82875,14.6126 8.0138,22.154 8.48388,12.7276 19.7977,18.8552 33.4666,18.8552 3.30001,0 6.12758,0 8.95633,-0.942523 3.30001,-0.471261 6.12758,-1.41378 9.42759,-2.82875 2.82757,-1.41378 6.59884,-3.29883 10.3701,-5.65632 3.29883,-1.88505 7.54136,-4.71379 12.2552,-8.01262 13.6701,10.3701 28.754,16.0264 45.723,16.0264 4.24253,0 8.48507,-0.942523 12.2552,-1.88623 3.30001,-1.41378 6.60002,-2.82757 9.42759,-5.18506 2.82875,-1.88505 5.18506,-4.24135 7.07128,-7.0701 1.41378,-2.35631 2.35631,-5.65632 2.35631,-8.48507 0,-3.29883 -0.942523,-6.12758 -2.35631,-8.95515 -1.41497,-2.82875 -3.30001,-5.18506 -6.12876,-7.07128 -2.35631,-1.88505 -5.65632,-3.77127 -9.42641,-4.71379 -3.30001,-0.942523 -7.07128,-1.41378 -11.3138,-1.41378 -1.88505,0 -3.77009,0 -6.12758,0.471261 -1.88505,0 -4.24253,0.471261 -6.59884,1.41378 5.18506,-2.35631 9.89885,-5.65632 14.1414,-9.42641 4.24135,-3.77127 8.01262,-8.0138 11.3126,-12.7276 3.29883,-4.71379 5.65632,-9.89885 7.54136,-16.0264 1.41497,-5.65632 2.35749,-11.3126 2.35749,-17.9115 0,-8.0138 -1.41497,-16.0276 -5.18506,-24.0402 -3.30001,-7.54254 -8.0138,-14.6126 -14.6126,-21.2115 -6.59884,-6.12758 -14.1414,-11.3126 -23.0977,-15.0839 -9.42641,-3.77127 -19.7965,-5.65632 -31.1103,-5.65632 -4.24135,0 -8.01262,0 -11.7839,0.471261 -3.30001,0.942523 -7.0701,1.41378 -10.3701,2.82757 -3.30001,0.943704 -6.59884,2.82875 -9.89885,4.24253 -2.82757,1.88623 -6.12758,4.24253 -9.42759,6.59884 -6.59884,-6.12758 -13.1977,-8.95515 -20.269,-8.95515 -6.59884,0 -11.3126,2.35631 -14.6115,7.54136 -3.30001,4.71379 -5.18506,11.3126 -5.18506,19.7977 0,5.18506 0.471261,10.3701 1.88505,16.0264 0.942523,5.65632 2.82757,11.3126 5.65632,17.4414 2.35749,5.65632 6.12758,11.7839 10.3701,17.9115 4.24253,6.12758 9.89885,12.7264 16.4977,18.8552zm59.3931 17.9115c-0.942523,0 -1.41378,0 -2.35749,0 -0.942523,0 -2.35631,0 -3.77009,-0.471261 -0.943704,-2.35631 -1.88623,-5.18506 -2.82875,-7.54136 -0.942523,-2.82875 -1.88505,-5.18506 -2.82875,-8.0138l-10.8414 -33.4666 0 0c-2.35631,-7.54254 -4.24135,-14.1414 -6.12758,-19.3264 -1.88505,-5.18506 -3.77127,-9.42759 -5.65632,-13.1989 -1.88505,-3.77127 -3.77127,-7.0701 -6.12758,-9.89885 -1.88505,-2.82757 -4.71379,-6.12758 -7.54254,-9.42759 10.3701,-8.01262 21.6839,-11.7839 34.8816,-11.7839 8.48507,0 16.4977,1.41378 24.5115,4.71379 8.0138,3.30001 14.6126,7.54254 20.7402,13.6701 6.12758,5.65632 10.8414,12.2552 14.6126,19.7977 3.77127,8.01262 5.65632,16.0264 5.65632,24.9816 0,6.60002 -1.41378,12.7276 -4.24253,18.8552 -2.35631,6.12758 -6.12758,11.3126 -10.8414,16.0264 -4.71379,4.24253 -10.3701,8.0138 -16.4977,10.8414 -6.59884,2.82875 -13.1989,4.24253 -20.7402,4.24253zm-37.7104 -31.1103c1.41497,4.24253 2.35749,8.48507 3.30001,12.2552 0.942523,4.24253 2.35749,8.0138 3.30001,11.3138 -1.88623,-0.471261 -3.30001,-0.943704 -4.71379,-1.88623 -1.41378,-0.471261 -2.35749,-1.41378 -3.77127,-2.35631 -1.41378,-0.471261 -2.82757,-1.88623 -4.24253,-2.82875 -1.41378,-1.41378 -3.29883,-2.82757 -5.65632,-4.71379l0 0c-5.18506,-4.71379 -9.89885,-9.89885 -14.1414,-15.0839 -3.77009,-5.65632 -7.54136,-11.7839 -10.3701,-17.9115 -2.82757,-6.12758 -5.18506,-12.7264 -6.59884,-19.3264 -1.41378,-6.12758 -2.35631,-12.7264 -2.35631,-19.3264 0,-5.65632 0.942523,-9.89767 2.35631,-12.7264 1.41378,-2.82875 3.30001,-4.24253 6.59884,-4.24253 2.35749,0 4.71379,0.942523 6.60002,2.35749 1.88505,1.41378 4.24253,3.77009 6.12758,6.12758 -0.942523,1.41378 -1.88505,2.35631 -2.82875,3.29883 -0.471261,1.41497 -1.41378,2.35749 -2.35631,4.24253 -0.942523,1.41497 -2.35749,3.30001 -3.30001,5.18506 -0.942523,1.88623 -2.35631,4.71379 -3.77009,7.54254l7.0701 2.82757 2.35631 -4.24253 0 0c0.943704,-1.88505 2.35749,-4.24135 3.30001,-5.65632 1.41378,-1.88505 2.82875,-3.77009 3.77127,-5.65632 0.942523,1.41497 1.88505,2.82875 2.35631,4.24253 0.942523,1.41378 1.41378,3.30001 2.35749,5.18506 0.942523,1.88505 1.88505,4.24253 2.82757,7.0701 0.942523,2.82875 1.88623,6.60002 2.82875,10.3713 1.41378,4.24135 2.82757,8.95515 4.24253,14.6115 1.41378,5.18506 2.82757,11.7851 4.71261,19.3264zm74.477 67.877c-6.59884,0 -12.7276,-1.41378 -18.3839,-4.71379 -5.18506,-2.82757 -9.89885,-7.0701 -14.1402,-12.2552 5.18506,-3.30001 9.42641,-5.65632 12.7264,-7.0701 3.30001,-1.88623 6.12758,-2.82875 8.48507,-3.77127 1.88505,-0.942523 4.24253,-1.41378 6.12758,-1.88505 2.35631,0 4.71379,0 7.54136,0 2.82875,0 5.65632,0 8.0138,0.942523 2.82757,0.942523 5.18506,1.88505 7.0701,2.82757 1.88623,1.41497 3.30001,2.82875 4.24253,4.71379 1.41378,1.88623 1.88505,3.77127 1.88505,5.65632 0,1.88623 -0.471261,4.24253 -1.88505,6.12758 -1.41378,1.88623 -2.82757,3.30001 -5.18506,4.71379 -1.88505,1.41497 -4.24253,2.35749 -7.0701,3.30001 -3.30001,0.942523 -6.12758,1.41378 -9.42759,1.41378zm-36.7667 -29.2241c5.18506,0 9.89885,-0.943704 14.6126,-1.88623 -2.35749,0.942523 -4.71379,1.88623 -7.07128,3.30001 -2.35631,1.41378 -4.71379,2.82757 -7.54136,4.24253 -0.471261,-0.942523 -0.942523,-1.88623 -1.41378,-2.82875 -0.472442,-0.942523 -0.943704,-1.88505 -1.41497,-2.82757 0,0 0.471261,0 0.471261,0 0.471261,0 0.471261,0 0.471261,0 0.472442,0 0.943704,0 0.943704,0 0.471261,0 0.942523,0 0.942523,0zm-150.838 -16.9701l-8.0138 1.88623c2.35631,6.12758 4.71379,11.3126 6.59884,15.0839 1.41497,3.77009 2.82875,6.59884 4.24253,8.48388l-0.471261 -0.471261c5.18506,8.95633 11.3126,13.6701 17.4402,13.6701 3.30001,0 5.65632,-0.942523 8.0138,-2.82875 1.88505,-1.88505 3.30001,-4.71379 4.24253,-8.01262 1.41378,1.88505 2.82757,3.77009 4.24253,5.18506 0.942523,1.41378 2.35631,2.35631 3.29883,3.29883 1.41378,0.943704 2.35749,1.41497 3.77127,1.41497 1.41378,0.471261 2.82757,0.471261 4.71379,0.471261 3.77127,0 6.12758,-0.942523 8.48388,-3.30001 1.88623,-2.35631 3.30001,-5.18506 3.30001,-8.48507 0,-1.41378 -0.471261,-2.82757 -0.471261,-4.71261 -0.471261,-1.88623 -0.942523,-3.77127 -1.88505,-6.12876l-11.7851 -41.9517c-2.82757,0.471261 -5.65632,0.942523 -8.48388,0.942523 -2.82875,0 -6.12758,-0.471261 -9.42759,-0.942523 2.35631,8.95633 4.71379,16.4977 6.59884,23.0977 1.88623,6.12758 3.30001,11.3126 4.71379,15.5552 0.942523,3.77009 1.88505,7.0701 2.82875,9.42759 0.471261,2.35631 0.942523,4.24135 1.41378,5.18506 0.471261,1.41378 0.471261,1.88505 0.471261,2.35631 0,0 0,0.471261 0,0.471261 -0.942523,-0.471261 -2.35631,-1.41378 -3.77127,-3.30001 -1.41378,-1.88505 -2.82757,-4.24135 -4.71379,-7.54136 -1.41378,-3.30001 -2.82757,-6.59884 -4.71379,-10.8414 -1.41378,-4.24253 -3.29883,-8.48507 -4.71261,-13.1989l0 0.471261c-1.41497,-4.71379 -2.35749,-8.95515 -3.77127,-12.7264 -0.942523,-3.77127 -1.88623,-6.59884 -2.82875,-8.48507 -2.82757,0 -5.65632,0.471261 -8.48388,0.471261 -2.82875,0 -5.65632,-0.471261 -8.95633,-0.942523l15.0839 50.4368c0.471261,2.35631 0.942523,3.77127 0.942523,4.71379 0,0.942523 0,1.41378 -0.471261,1.41378 -1.41378,0 -2.35749,-0.471261 -3.30001,-1.41378 -0.942523,-1.41378 -2.35631,-2.82875 -3.77009,-5.18506 -0.943704,-1.88505 -2.35749,-4.71379 -3.77127,-7.54254 -1.41378,-3.29883 -2.82875,-6.59884 -4.71379,-10.3701l-1.88505 -5.65632zm-32.9966 -43.8368c0,1.88505 0.471261,2.82757 0.942523,4.24253 0.942523,1.41378 1.88623,2.35631 2.82875,3.29883 0.942523,0.942523 2.35631,1.88623 3.77127,2.35749 1.41378,0.471261 2.82757,0.942523 4.24135,0.942523 2.82875,0 4.71379,-0.942523 6.60002,-2.82875 1.88505,-1.41378 2.82757,-3.29883 2.82757,-5.65632 0,-1.41378 -0.471261,-2.82757 -0.942523,-4.24253 -0.471261,-1.41378 -1.41378,-2.35631 -2.35631,-3.29883 -0.943704,-1.41378 -2.35749,-1.88623 -3.77127,-2.35749 -1.41378,-0.942523 -2.82875,-0.942523 -4.24253,-0.942523 -2.82875,0 -5.18506,0.471261 -7.0701,2.35749 -1.88623,1.41378 -2.82875,3.77009 -2.82875,6.12758zm-2.35631 45.723l3.29883 8.48388c3.77127,9.89885 7.54254,16.9701 11.7851,21.2115 3.77009,4.24253 7.54136,6.60002 11.7839,6.60002 1.41378,0 3.30001,-0.471261 5.18506,-1.41497 1.41378,-0.471261 2.82757,-1.88505 4.24253,-3.29883 1.41378,-1.41378 2.35631,-2.82875 3.29883,-4.71379 0.471261,-1.88505 0.943704,-3.77127 0.943704,-6.12758 0,-0.942523 -0.472442,-2.82875 -0.943704,-5.18506 -0.471261,-2.35749 -0.942523,-5.18506 -1.88505,-8.48507 -1.88505,-5.65632 -3.30001,-11.7839 -5.18506,-17.9115 -1.88505,-6.12876 -3.77127,-12.2563 -5.18506,-17.9127 -2.82875,0.471261 -5.65632,0.471261 -8.48507,0.471261 -2.82757,0 -5.65632,-0.471261 -8.95515,-0.942523l15.5552 52.7931c0,0.471261 0,1.41497 0.471261,1.88623 0,0.471261 0,0.942523 0,1.41378 0,0 0,0.471261 -0.471261,0.942523 0,0 -0.471261,0 -0.471261,0 -0.943704,0 -1.88623,-0.471261 -2.82875,-1.41378 -1.41378,-0.942523 -2.35749,-2.35749 -3.77127,-4.71379 -1.41378,-2.35749 -2.82757,-5.65632 -4.71379,-9.42759 -1.88505,-3.77127 -3.77009,-8.95633 -6.59884,-14.6126l-7.0701 2.35749zm7.54136 3.29883c-0.942523,0 -1.41378,0 -1.41378,0l3.29883 -0.942523 -2.82757 -6.12758c-2.82875,-6.12758 -5.65632,-11.3126 -8.0138,-16.0264 -2.35631,-4.24253 -4.71379,-7.54254 -7.0701,-10.3701 -4.71379,-5.65632 -9.89885,-8.48507 -16.0264,-8.48507 -2.35749,0 -4.24253,0.471261 -6.12758,1.88623 -1.88623,1.88505 -2.82875,3.77009 -2.82875,6.12758 0,1.88505 0.942523,3.77009 2.35749,5.18506 1.41378,1.88505 3.29883,2.82757 5.65632,2.82757 2.82757,0 4.71379,-0.942523 6.59884,-2.82757l1.41378 -1.41497c0,0 0,-0.471261 0,-0.471261 0.471261,0 0.471261,0 0.471261,0 0.471261,0 0.943704,0.943704 0.943704,2.35749 0,1.88505 -0.943704,4.71379 -2.35749,8.95633l-1.88505 5.18506 0 0c-2.35749,5.18506 -3.30001,10.3701 -3.30001,14.6115 0,8.95633 2.82875,16.4989 8.48507,23.0977 6.12758,6.12758 12.7264,9.42759 20.7402,9.42759 4.71379,0 8.95515,-1.41497 12.2552,-4.24253 3.77127,-3.30001 5.18506,-7.0701 5.18506,-11.7839 0,-4.71379 -1.41378,-8.48507 -4.71379,-12.2563 -2.82757,-3.29883 -6.59884,-4.71379 -10.8414,-4.71379zm-6.12758 1.41497l-0.942523 0.471261c-1.88623,1.88505 -2.82875,3.77009 -2.82875,6.12758 0,2.35631 0.942523,4.24253 2.35749,6.12758 1.88505,1.41378 3.77009,2.35749 6.59884,2.35749 1.41378,0 2.35631,-0.472442 3.77127,-0.943704l-0.471261 0 1.88505 -0.471261 1.41378 -0.471261c0,0 0.471261,0.471261 0.471261,0.471261l0 0c0.471261,0.942523 0.942523,1.88623 0.942523,3.30001 0,1.88505 -0.942523,3.30001 -1.88505,4.71379 -1.41378,1.41378 -2.35631,1.88505 -4.24253,1.88505 -2.35631,0 -4.71379,-1.88505 -7.0701,-5.65632 -3.30001,-4.71379 -5.65632,-10.3701 -7.54254,-16.969 -0.942523,-3.77127 -1.41378,-7.07128 -1.88505,-10.3701 -0.471261,-3.77127 -0.942523,-7.54254 -0.942523,-10.8414l0 -0.943704 0 -0.471261c2.82757,4.71379 5.65632,10.3701 8.48507,16.9701l1.88505 4.71379zm-58.4494 -19.7977c0,-1.88623 0.471261,-3.30001 0.942523,-4.71379 0.471261,-1.41378 1.41378,-2.35749 2.35631,-2.35749 0.471261,0 0.942523,0.943704 1.88623,2.82875 0.942523,1.41378 1.88505,3.77127 2.82757,6.59884 1.41378,2.35749 2.35749,5.65632 3.77127,9.42759 0.942523,3.30001 2.35631,7.0701 3.30001,10.8414l0 0c0.942523,3.30001 1.88505,6.59884 2.35631,9.42759 0.471261,2.82875 0.942523,5.18506 0.942523,7.0701 0,2.35749 -0.471261,3.30001 -1.88505,3.30001 -0.942523,0 -1.88623,-0.942523 -3.30001,-2.35631 -1.41378,-1.88623 -2.82757,-4.24253 -4.24253,-7.07128 -1.41378,-3.29883 -2.82757,-6.59884 -4.24135,-11.3126 -1.41497,-4.24253 -2.35749,-8.95633 -3.77127,-14.1414 0,-1.41378 -0.471261,-2.35631 -0.471261,-3.77127 0,-1.41378 -0.471261,-2.35631 -0.471261,-3.77009zm-32.9966 15.0839l2.35749 5.65632c2.82757,6.12758 5.18506,11.3126 7.0701,15.0839 2.35631,4.24253 4.24253,7.0701 6.12758,9.42759 1.88623,2.35631 3.30001,3.77009 5.18506,4.71261 1.88623,0.943704 3.77127,1.41497 6.12758,1.41497 6.12876,0 9.89885,-2.82875 12.2563,-8.48507 1.88505,2.82875 3.77127,4.71379 5.65632,6.12758 1.88505,1.41497 4.24253,1.88623 6.59884,1.88623 4.71379,0 8.48507,-1.88623 10.8414,-5.65632 2.82875,-4.24253 4.24253,-8.95633 4.24253,-15.5552 0,-5.18624 -0.942523,-10.3713 -2.35631,-15.5563 -1.88623,-5.18506 -4.24253,-9.89767 -7.07128,-14.1402 -2.82757,-4.24253 -6.12758,-8.0138 -9.89885,-10.3701 -3.29883,-2.82875 -7.0701,-4.24253 -10.8414,-4.24253 -1.41378,0 -2.82757,0.471261 -4.24253,0.942523 -1.41378,0.942523 -2.35631,1.88505 -3.29883,3.30001l-0.942523 -3.30001c-3.30001,0.471261 -6.60002,0.942523 -9.42759,0.471261 -2.82875,0 -5.65632,-0.942523 -8.95633,-2.82757l13.6701 47.1368 0 0 1.88505 7.54136c0.471261,1.41497 0.942523,2.35749 0.942523,3.30001 0,0.471261 -0.471261,0.942523 -0.942523,0.942523 -0.942523,0 -1.88505,-0.471261 -2.82875,-1.41378 -0.942523,-0.942523 -2.35631,-2.35749 -3.77009,-4.71379 -1.41497,-2.35749 -2.82875,-5.65632 -4.71379,-9.42759 -1.88623,-3.77127 -3.77127,-8.48507 -6.12758,-14.6126l-7.54254 2.35749z"/>
   <path id="_261037048" class="fil1" d="M276.74 377.492c-2.35631,-4.71379 -4.71379,-6.60002 -8.95633,-6.60002 -4.71379,0 -8.48388,3.77127 -8.48388,8.48507 0,8.95633 8.48388,17.4402 17.4402,25.9253 8.48507,-8.48507 17.4414,-16.969 17.4414,-25.9253 0,-4.71379 -4.24253,-8.48507 -8.95633,-8.48507 -4.24253,0 -6.59884,1.88623 -8.48507,6.60002z"/>
   <path id="_261041368" class="fil1" d="M223.947 388.805c-2.82875,-5.18506 -5.18506,-7.54254 -10.8414,-7.54254 -5.65632,0 -10.3701,4.71379 -10.3701,10.3701 0,10.3701 10.3701,21.2127 21.2115,31.5828 10.3701,-10.3701 21.2115,-21.2127 21.2115,-31.5828 0,-5.65632 -4.71379,-10.3701 -10.8414,-10.3701 -5.18506,0 -8.0138,2.35749 -10.3701,7.54254z"/>
   <path id="_261041296" class="fil1" d="M355.931 373.25c-3.77127,-7.54254 -7.54254,-11.3126 -15.0839,-11.3126 -8.48507,0 -15.5552,7.0701 -15.5552,15.0839 0,15.0839 15.5552,30.1666 30.6391,45.2505 15.0827,-15.0839 30.1666,-30.1666 30.1666,-45.2505 0,-8.0138 -7.0701,-15.0839 -15.0839,-15.0839 -7.54136,0 -11.3126,3.77009 -15.0827,11.3126z"/>
   <path id="_261040960" class="fil1" d="M259.771 442.54c-3.77127,-7.54136 -7.54254,-11.3126 -15.0839,-11.3126 -8.48507,0 -15.0839,6.59884 -15.0839,15.0839 0,15.0839 15.0839,30.1678 30.1678,45.2517 15.0839,-15.0839 30.1678,-30.1678 30.1678,-45.2517 0,-8.48507 -6.60002,-15.0839 -15.0839,-15.0839 -7.54254,0 -11.3126,3.77127 -15.0839,11.3126z"/>
   <path id="_261037960" class="fil1" d="M198.022 430.756c-1.88505,-4.71379 -4.24253,-6.59884 -8.48507,-6.59884 -4.71379,0 -8.48388,3.77009 -8.48388,8.48388 0,8.95633 8.48388,17.4414 16.969,26.3965 8.95633,-8.95515 17.4402,-17.4402 17.4402,-26.3965 0,-4.71379 -3.77009,-8.48388 -8.48388,-8.48388 -4.24253,0 -6.60002,1.88505 -8.95633,6.59884z"/>
   <path id="_261038560" class="fil1" d="M311.151 413.788c-2.35749,-5.18506 -5.18506,-7.54254 -10.3701,-7.54254 -5.65632,0 -10.8414,4.71379 -10.8414,10.3701 0,10.3701 10.8414,21.2115 21.2115,31.5816 10.8414,-10.3701 21.2115,-21.2115 21.2115,-31.5816 0,-5.65632 -4.71379,-10.3701 -10.3701,-10.3701 -5.18506,0 -8.0138,2.35749 -10.8414,7.54254z"/>
   <path id="_261037840" class="fil1" d="M161.726 371.836c-3.77127,-7.54254 -7.54254,-11.3138 -15.0839,-11.3138 -8.0138,0 -15.0839,6.60002 -15.0839,15.0839 0,15.0839 15.0839,30.1678 30.1678,45.2517 15.0839,-15.0839 30.1678,-30.1678 30.1678,-45.2517 0,-8.48388 -6.60002,-15.0839 -15.0839,-15.0839 -7.54254,0 -11.3126,3.77127 -15.0839,11.3138z"/>
   <g>
    <path id="_261037312" class="fil3 str0" d="M259.3 119.182c8.48388,0 15.5552,-7.07128 15.5552,-16.0276 0,-8.48388 -7.07128,-15.5552 -15.5552,-15.5552 -8.48507,0 -15.5552,7.07128 -15.5552,15.5552 0,8.95633 7.0701,16.0276 15.5552,16.0276z"/>
    <path id="_261037912" class="fil3 str0" d="M259.3 150.763c3.29883,-3.30001 7.0701,-6.60002 10.8414,-9.42759 -3.77127,0.942523 -7.07128,1.41378 -10.8414,1.41378 -3.77127,0 -7.54254,-0.471261 -10.8414,-1.41378 3.77009,2.82757 7.54136,6.12758 10.8414,9.42759z"/>
    <path id="_261037600" class="fil3 str0" d="M259.3 544.356c-197.032,-115.014 -237.57,-266.324 -203.632,-357.298 25.454,-68.3494 91.446,-103.701 171.107,-61.7494 -17.4402,-25.454 0.943704,-61.2781 32.5253,-61.2781 31.5816,0 49.9643,35.8241 32.5241,61.2781 79.6621,-41.9517 145.653,-6.60002 170.636,61.7494 34.4103,90.9735 -6.12758,242.284 -203.16,357.298z"/>
   </g>
  </g>
 </g>
</svg>
