<?xml version="1.0" encoding="UTF-8"?>
<!DOCTYPE svg PUBLIC "-//W3C//DTD SVG 1.1//EN" "http://www.w3.org/Graphics/SVG/1.1/DTD/svg11.dtd">
<!-- Creator: CorelDRAW X6 -->
<svg xmlns="http://www.w3.org/2000/svg" xml:space="preserve" width="0.914268in" height="1.02107in" version="1.1" style="shape-rendering:geometricPrecision; text-rendering:geometricPrecision; image-rendering:optimizeQuality; fill-rule:evenodd; clip-rule:evenodd"
viewBox="0 0 288 322"
 xmlns:xlink="http://www.w3.org/1999/xlink">
 <defs>
  <style type="text/css">
   <![CDATA[
    .str0 {stroke:#373435;stroke-width:0.945235}
    .fil1 {fill:none}
    .fil0 {fill:#FF0000}
    .fil2 {fill:#FEFEFE;fill-rule:nonzero}
   ]]>
  </style>
 </defs>
 <g id="Layer_x0020_1">
  <metadata id="CorelCorpID_0Corel-Layer"/>
  <g id="_738697664">
   <path class="fil0" d="M31 191c14,29 34,51 57,72 38,-9 60,-35 86,-74 10,-15 20,-30 30,-42 11,-13 11,-13 18,-18 13,-11 28,-15 48,-12 -3,-74 -78,-97 -127,-37 -33,40 -57,96 -112,111z"/>
   <path class="fil0" d="M51 141c2,-4 4,-6 9,-6 4,0 8,4 8,8 0,9 -8,17 -17,26 -8,-9 -17,-17 -17,-26 0,-4 4,-8 9,-8 4,0 6,2 8,6z"/>
   <path class="fil0" d="M89 83c-1,0 -1,1 -2,1 0,0 -1,1 -1,1 -1,1 -1,2 -2,2 0,1 0,1 0,1 0,1 0,1 0,2 1,0 1,0 1,0 0,0 1,0 1,0 0,-1 1,-1 1,-2 0,0 1,-1 1,-2 0,-1 1,-2 1,-3zm-1 -3c0,0 -1,0 -1,1 0,0 0,0 -1,0 0,0 0,0 0,0 -1,0 -2,0 -2,0 -1,0 -2,0 -3,0 -1,-1 -1,-1 -2,-2 -1,-1 -1,-2 -1,-3 -1,0 -1,-2 -1,-3 0,-1 0,-3 1,-5 0,-2 1,-4 2,-6 0,0 0,0 -1,1 0,0 0,0 0,1l-2 3c-1,1 -2,3 -3,5l0 -11c0,0 0,-1 0,-1 0,0 0,-1 0,-1 -1,0 -1,1 -1,1 0,1 0,2 -1,4l0 1 0 1c-1,1 -1,2 -1,3 0,0 0,1 -1,2 0,0 0,1 0,2 0,0 -1,1 -1,1 -3,5 -6,7 -11,7 -2,0 -4,0 -6,-1 -2,-1 -3,-2 -5,-4 -1,-1 -2,-3 -3,-5 -1,-2 -1,-4 -1,-6 0,-2 0,-4 1,-6 1,-2 2,-3 3,-5 1,-1 3,-2 4,-3 2,-1 4,-1 6,-1 1,-2 2,-3 4,-3 1,-1 3,-1 5,-1 2,0 4,0 6,1 1,1 2,2 3,2 0,1 1,2 1,3 1,1 1,3 1,4 0,2 1,3 1,5 1,-2 2,-3 3,-4 1,-2 2,-3 3,-4 1,0 2,-1 3,-2 2,0 3,-1 5,-1l0 2c-1,0 -2,1 -2,1 -1,0 -1,0 -2,1 0,0 -1,1 -1,1 0,1 -1,1 -1,2 0,1 -1,2 -1,4 -1,1 -1,3 -2,4 0,2 -1,4 -1,5 0,2 0,4 0,5 0,1 0,2 0,3 1,0 1,1 2,1 0,0 -1,0 -1,0 0,-1 0,-1 0,-2 0,0 0,0 0,-1 0,0 0,-1 1,-1l3 -13c1,0 2,0 2,0 1,0 1,0 1,0 1,0 1,0 2,0 -1,2 -1,4 -2,6 0,1 -1,2 -1,3 0,1 0,2 -1,3 0,0 0,1 0,1 0,1 0,1 0,1 0,0 0,0 0,1 0,0 0,0 0,0 1,-1 2,-2 2,-4 1,-1 2,-3 2,-5l2 -4 0 -1c0,0 0,0 0,0 0,0 0,-1 0,-1 0,0 1,0 1,0 0,0 1,0 1,0 1,0 1,0 1,0 1,0 1,0 2,0l-4 14c0,0 1,-1 1,-2 1,-1 1,-2 2,-3l0 -1 2 0c0,2 -1,3 -2,4 0,1 -1,2 -1,3 0,0 -1,1 -1,2 -1,0 -2,1 -2,1 -1,2 -2,4 -2,6 -1,2 -2,3 -2,4 -1,1 -2,2 -2,2 -1,1 -2,1 -2,1 -1,0 -2,0 -2,0 -1,0 -1,-1 -2,-1 0,0 0,-1 -1,-1 0,-1 0,-1 0,-2 0,-1 0,-1 0,-2 0,-1 1,-1 1,-2 0,-1 1,-2 2,-2 1,-1 2,-2 4,-3zm-18 -19c0,1 0,1 0,1 0,0 0,0 0,0l0 -1 0 0zm0 -5l2 0c0,0 0,0 0,-1 1,0 1,0 1,0 -1,-3 -2,-4 -3,-5 -2,-1 -3,-2 -5,-2 -1,0 -2,0 -3,0 0,1 -1,1 -2,2 1,0 2,0 3,0 1,1 2,1 3,2 1,1 1,2 2,2 1,1 1,2 2,3l0 -1zm-4 7c0,0 0,-1 1,-1 0,0 0,-1 1,-1 0,-2 -1,-3 -1,-4 -1,-1 -1,-2 -2,-3 -1,-1 -2,-1 -3,-2 -2,0 -3,0 -4,0 -1,1 -1,3 -1,4 0,1 0,2 0,3 0,1 1,2 1,2 1,1 2,1 2,2 1,0 2,0 3,0 1,0 2,0 2,0l1 0zm-8 16c1,0 2,0 3,-1 1,0 2,-1 2,-2 1,-1 2,-2 3,-3 1,-2 1,-3 2,-5 -1,2 -2,3 -4,4 -1,1 -3,1 -5,1 -1,0 -2,0 -3,0 -1,-1 -2,-1 -3,-2 -1,-1 -2,-2 -2,-3 0,-1 -1,-2 -1,-3 0,-1 1,-2 1,-4l2 1c0,1 0,2 0,3 0,0 0,1 0,2 0,1 1,2 1,2 1,1 2,1 2,1 1,1 2,1 3,1 1,0 2,0 2,-1 1,0 2,0 3,-1 1,0 1,-1 2,-2 0,-1 1,-2 1,-3 -1,1 -3,2 -4,2 -1,0 -2,-1 -3,-1 -1,-1 -2,-1 -3,-2 -1,-1 -2,-2 -2,-3 0,-1 -1,-2 -1,-4 0,0 0,-1 1,-2 0,0 0,-1 0,-2 -1,1 -3,1 -4,2 -1,1 -2,2 -3,3 -1,2 -1,3 -2,4 0,2 -1,3 -1,5 0,1 1,3 1,5 1,1 2,3 3,4 1,1 2,2 4,3 1,1 3,1 5,1zm43 33l0 2c-1,1 -2,3 -2,4 -1,1 -1,2 -2,3 0,0 -1,1 -1,1 -1,0 -1,1 -2,1 -1,0 -1,-1 -1,-1 -1,0 -1,0 -2,-1 0,0 0,-1 0,-1 -1,-1 -1,-1 -1,-1 0,0 -1,1 -1,1 -2,2 -4,3 -6,3 0,0 -1,-1 -2,-1 0,0 -1,-1 -1,-1 -1,-1 -1,-1 -1,-2 -1,0 -1,-1 -1,-1 0,1 -1,1 -2,2 -1,2 -3,3 -5,3 -1,0 -2,-1 -2,-1 -1,0 -1,-1 -2,-1 0,-1 -1,-1 -1,-2 0,-1 0,-2 0,-2 0,-1 0,-2 0,-2l0 0c0,0 -1,0 -1,0 0,0 0,0 0,0 -1,1 -1,2 -2,3 0,1 -1,2 -2,2 0,1 -1,2 -1,2 -1,0 -2,1 -2,1 -1,0 -2,-1 -3,-1 0,-1 -1,-2 -1,-3 -1,2 -3,3 -5,3 0,0 -1,0 -2,-1 0,0 -1,-1 -1,-2 0,-1 0,-2 1,-3l3 -12c0,0 1,0 1,0 0,0 1,0 1,0 1,0 2,0 3,0l-4 16c0,-1 1,-2 2,-4 1,-2 2,-5 3,-9l1 -3c0,0 1,0 1,0 0,0 1,0 1,0 1,0 2,0 3,0l-4 14c0,0 0,1 0,1 0,0 0,0 0,0 0,1 0,1 0,1 0,0 0,0 0,0 1,0 1,0 1,0 1,-1 1,-1 1,-2 1,0 1,-1 2,-2 0,0 1,-1 1,-2 0,-1 0,-1 -1,-1 0,-1 0,-1 0,-1 0,-1 0,-1 0,-1 0,-1 0,-1 0,-1 0,-1 0,-2 0,-2 0,-1 0,-2 1,-2 0,-1 0,-1 1,-2 0,0 1,0 1,0 1,0 2,1 2,2 0,1 0,2 -1,3 0,1 0,2 0,4l0 0c0,0 0,-1 1,-1 0,0 0,-1 0,-1 0,-1 1,-2 1,-3 1,-1 2,-1 2,-2 1,-1 1,-1 2,-2 1,0 1,0 2,0 1,0 1,0 2,0 0,0 1,1 1,1 0,1 1,1 1,2 0,0 0,1 0,2 0,2 -1,4 -2,5 -1,2 -3,3 -6,3 0,1 0,1 0,2 0,1 0,1 1,1 1,0 1,0 2,0 1,0 1,-1 2,-2 1,0 1,-1 2,-2 1,-1 1,-2 2,-3l0 -1c0,0 0,-1 1,-1 0,-1 0,-2 1,-3 1,-1 1,-1 2,-2 0,-1 1,-1 2,-2 0,0 1,0 2,0 0,0 1,0 1,0 1,0 1,1 1,1 1,1 1,1 1,2 0,0 0,1 0,2 0,2 0,4 -2,5 -1,2 -3,3 -5,3 0,1 0,1 0,2 0,1 0,1 1,1 0,0 1,0 1,0 1,0 2,-1 2,-2 1,0 2,-1 2,-2 1,-1 2,-2 2,-3l1 -1 1 -5 -2 0 1 -2 2 0 2 -7c0,0 0,0 0,0 1,0 1,0 2,0 0,0 1,0 2,0l-2 7 2 0 0 2 -2 0 -3 11c-1,1 -1,1 -1,2 0,0 0,0 0,0 1,0 1,0 1,0 0,-1 1,-1 1,-2 0,0 1,-1 1,-2 1,-1 1,-3 2,-4l2 0zm-14 -6c0,0 -1,0 -1,1 0,1 -1,1 -1,2 0,1 -1,2 -1,3 0,1 -1,2 -1,3 1,0 2,-1 2,-1 1,-1 2,-2 2,-4 0,-1 1,-2 1,-3 0,-1 -1,-1 -1,-1zm-12 0c-1,0 -1,0 -1,1 -1,1 -1,1 -1,2 -1,1 -1,2 -1,3 -1,1 -1,2 -1,3 1,0 1,-1 2,-1 1,-1 1,-2 1,-4 1,-1 1,-2 1,-3 0,-1 0,-1 0,-1zm-33 1c0,0 0,0 0,0 0,0 0,0 0,0l0 0zm5 -5c1,-1 1,-1 1,-1 1,-1 1,-1 1,-2 1,0 1,-1 1,-1 0,0 1,-1 1,-1 0,-1 0,-1 0,-1 0,-1 0,-1 0,-2 0,0 0,-1 -1,-1 0,0 0,0 -1,1 0,0 0,1 -1,2 0,0 0,1 -1,2 0,1 0,2 0,3l0 1zm-8 3c0,0 1,0 1,0 0,0 0,0 1,0 0,0 0,-1 0,-1 0,0 0,-1 0,-1 0,-1 -1,-2 -1,-3 -1,-1 -1,-2 -2,-3 -1,-1 -2,-1 -3,-2 -2,0 -3,-1 -4,-1 0,1 -1,2 -1,2 0,1 0,1 0,2 0,1 0,2 1,2 0,1 1,2 2,3 0,1 1,1 2,1 2,1 3,1 4,1zm-8 16c1,0 3,-1 4,-1 1,-1 2,-2 3,-3 1,-1 2,-2 3,-4 0,-1 1,-3 1,-5 -1,2 -2,4 -4,5 -1,2 -3,2 -6,2 -1,0 -2,0 -3,0 -1,-1 -2,-1 -3,-2 -1,-1 -2,-2 -2,-3 -1,-1 -1,-2 -1,-3 0,-1 0,-1 0,-2 1,0 1,-1 1,-2l2 1c0,1 -1,2 -1,3 0,1 1,2 1,2 0,1 1,2 1,2 1,1 1,1 2,1 1,1 2,1 3,1 1,0 3,-1 4,-2 2,-1 3,-2 4,-4 0,0 -1,0 -1,0 0,0 0,0 0,0 -2,0 -3,0 -4,0 -2,-1 -3,-2 -4,-3 -1,0 -2,-1 -2,-3 -1,-1 -1,-2 -1,-4 0,0 0,0 0,-1 0,0 0,-1 0,-1 -1,0 -3,1 -4,2 -1,1 -2,2 -3,3 -1,1 -2,2 -2,4 0,1 -1,2 -1,4 0,2 1,3 1,5 1,1 2,3 3,4 1,1 2,2 4,3 1,0 3,1 5,1zm16 -15c0,2 0,5 -1,6 0,2 -1,4 -2,6 -3,3 -7,5 -12,5 -2,0 -4,0 -5,-1 -2,0 -3,-1 -5,-2 -1,-1 -2,-2 -3,-4 -1,-1 -2,-3 -3,-4 0,-1 0,-2 0,-3 0,0 0,-1 0,-2 0,-1 0,-3 1,-5 0,-2 1,-3 2,-4 2,-2 3,-3 5,-4 1,-1 3,-1 5,-2 2,-1 3,-3 4,-3 2,-1 3,-2 5,-2 2,0 3,1 5,2 1,0 3,1 4,3l-1 2c-1,-1 -2,-2 -2,-2 -1,-1 -2,-1 -2,-1 -1,-1 -1,-1 -2,-1 -1,0 -1,0 -2,0 -1,0 -2,0 -3,0 -1,1 -2,1 -3,2 1,0 3,1 4,1 1,1 2,1 3,2 1,1 2,2 3,3 0,1 1,2 1,4 0,-2 1,-3 1,-4 0,-2 1,-3 2,-4 0,-1 1,-1 2,-2 1,-1 2,-1 2,-1 2,0 2,0 3,1 0,1 1,2 1,3 0,2 -1,3 -2,5 -1,2 -3,3 -5,5l0 1z"/>
   <path class="fil0" d="M143 263c3,-6 6,-9 12,-9 6,0 12,6 12,13 0,12 -12,24 -24,36 -13,-12 -25,-24 -25,-36 0,-7 6,-13 12,-13 6,0 9,3 13,9z"/>
   <path class="fil0" d="M188 253c1,-2 3,-4 6,-4 3,0 5,3 5,6 0,5 -5,11 -11,16 -5,-5 -11,-11 -11,-16 0,-3 2,-6 6,-6 2,0 4,2 5,4z"/>
   <path class="fil0" d="M177 218c2,-4 4,-6 8,-6 4,0 8,4 8,8 0,8 -8,16 -16,24 -8,-8 -16,-16 -16,-24 0,-4 4,-8 8,-8 4,0 6,2 8,6z"/>
   <path class="fil0" d="M209 168c2,-2 3,-4 6,-4 3,0 5,3 5,6 0,5 -5,11 -11,16 -5,-5 -11,-11 -11,-16 0,-3 3,-6 6,-6 3,0 4,2 5,4z"/>
   <path class="fil0" d="M219 201c2,-5 5,-8 10,-8 5,0 10,5 10,10 0,10 -10,21 -20,31 -11,-10 -21,-21 -21,-31 0,-5 5,-10 10,-10 5,0 8,3 11,8z"/>
   <path class="fil1 str0" d="M143 321c28,-17 54,-34 76,-56 17,-16 31,-33 43,-53 24,-39 34,-86 17,-129 -18,-49 -71,-68 -114,-41 12,-18 0,-41 -22,-42 -21,1 -33,24 -21,42 -43,-27 -98,-9 -114,41 -15,43 -6,90 17,129 12,20 26,37 43,53 22,22 48,39 75,56zm0 -262c-2,-3 -4,-5 -7,-7 3,1 5,1 7,1 4,0 7,0 8,-1 -3,2 -5,4 -8,7zm0 -22c-5,0 -10,-4 -10,-10 0,-6 5,-11 10,-11 6,0 11,5 11,11 0,6 -5,10 -11,10z"/>
   <path class="fil0" d="M247 143c3,-6 6,-9 12,-9 7,0 12,6 12,12 0,12 -12,25 -24,37 -12,-12 -24,-25 -24,-37 0,-6 5,-12 12,-12 6,0 9,3 12,9z"/>
   <path class="fil2" d="M207 89c-1,1 -1,2 -1,3 -1,2 -1,3 -1,6 0,2 0,4 0,7 1,2 1,5 1,7 2,-2 3,-4 4,-6 1,-2 1,-5 1,-8 -1,-3 -1,-6 -2,-7 0,-1 -1,-2 -2,-2zm18 7c2,0 4,0 6,0 -1,8 -4,13 -7,18 -2,5 -6,9 -10,13 -2,1 -3,2 -5,2 -1,0 -3,1 -5,1 -1,-1 -2,-1 -4,-2 -1,-1 -2,-2 -3,-4 0,-1 -1,-1 -1,-2 0,1 1,2 1,3 0,3 0,6 -1,9 0,4 -1,7 -2,10 -1,3 -3,6 -5,8 -1,2 -2,3 -3,4 -2,1 -3,2 -4,2 -1,0 -2,0 -3,0 0,6 -1,10 -3,14 -2,2 -3,3 -4,4 -2,1 -3,1 -4,1 0,6 -2,11 -4,15 -1,2 -3,3 -4,4 -1,1 -3,1 -4,1 -1,0 -2,0 -3,-1 -2,0 -3,-1 -3,-2 -2,-4 -4,-9 -6,-16 0,-3 -1,-5 -1,-8 0,0 0,0 0,0 0,0 0,0 0,0 0,0 0,0 0,0 0,0 0,-1 0,-1 -1,0 -1,-1 -1,-1 -1,0 -1,0 -1,0 -1,0 -1,1 -1,1 0,0 -1,1 -1,1 -1,1 -1,2 -2,2 0,1 1,3 1,4 2,4 3,9 4,13 0,4 1,9 0,13 0,3 0,6 -1,9 -1,3 -2,6 -3,9 -1,4 -3,6 -5,9 -2,3 -4,5 -6,7 -3,3 -7,5 -10,6 -3,1 -7,2 -11,2 -4,1 -7,0 -11,0 -4,-1 -7,-2 -11,-3 -3,-2 -6,-3 -9,-5 -3,-2 -5,-4 -7,-7 -2,-3 -4,-7 -4,-10 0,-4 0,-8 2,-12 2,-3 4,-7 7,-11 3,-4 6,-8 10,-12 3,-10 9,-20 18,-30 4,-5 8,-9 12,-13 4,-3 8,-6 13,-8 1,-3 1,-5 2,-7 1,-1 2,-3 3,-5 0,-1 1,-2 1,-3 1,0 2,-1 3,-3 0,0 0,0 0,0 0,-1 0,-1 0,-1 1,2 2,4 3,6 -1,0 -1,0 -1,0 0,1 0,1 0,1 -1,1 -2,2 -2,2 -1,1 -1,2 -2,2 0,2 -1,4 -2,6 3,0 5,0 7,1 2,1 4,2 5,4 2,4 3,7 3,11 1,3 0,7 -2,12 2,0 3,0 4,0 1,1 2,2 3,3 0,1 0,2 1,3 0,0 1,2 1,3 0,1 1,2 1,3 1,2 1,3 1,4 1,3 2,4 2,6 1,2 1,3 2,4 0,0 1,1 1,1 1,0 1,0 2,-1 1,-2 1,-5 1,-9 -1,-1 -2,-2 -3,-3 -2,-3 -3,-7 -4,-11 -1,-4 -1,-9 -1,-13 0,-5 0,-9 1,-13 1,-5 2,-8 4,-11 2,-3 4,-5 6,-5 3,1 5,2 6,5 2,3 3,6 4,11 0,0 0,0 0,0 0,0 0,-1 0,-1 0,-1 0,-2 0,-4 0,0 0,0 0,0 0,-1 0,-1 0,-2 -1,-6 -1,-11 -1,-15 0,-4 0,-8 0,-11 1,-3 2,-5 2,-7 2,-2 3,-4 5,-5 1,-2 3,-2 4,-2 2,0 3,1 4,2 0,2 0,3 0,4 -1,2 -2,4 -3,5 -1,0 -1,1 -2,1 -1,0 -2,0 -3,0 0,0 0,0 -1,0 0,0 0,0 0,0 0,0 0,0 0,0 -1,0 -1,1 0,2 0,0 1,1 1,2 1,1 2,1 3,2 1,1 2,1 3,2 1,1 3,2 4,3 1,2 1,3 2,4 0,1 1,1 1,2 0,-1 0,-1 0,-1 -1,-2 -1,-5 -1,-8 0,-2 0,-5 0,-8 0,-2 1,-5 2,-7 1,-2 2,-4 3,-5 1,-2 3,-3 5,-3 1,-1 3,-1 4,-1 2,0 3,0 5,1 1,0 2,1 3,2 1,1 2,2 2,3 2,5 2,9 0,13 -2,5 -5,9 -11,13 1,1 1,2 1,3 2,2 3,3 4,2 2,-1 3,-2 4,-4 1,-1 2,-3 3,-5 2,-2 2,-4 3,-7 1,-2 2,-4 2,-7 0,-1 0,-2 1,-3zm-44 35c0,0 1,0 1,0 1,-1 2,0 3,2 1,1 1,3 1,5 -1,2 -1,4 -3,5 0,1 0,1 -1,2 0,0 -1,1 -2,1 0,1 0,1 0,2 0,1 0,1 0,2 1,1 2,1 3,1 1,0 1,0 2,-1 2,-3 3,-5 3,-9 0,-3 0,-6 -1,-9 -1,-4 -2,-7 -3,-11 -1,-3 -3,-6 -4,-8 0,-1 0,-1 -1,-1 0,4 1,9 2,15 0,1 0,3 0,4zm-8 36c2,-2 3,-7 1,-14 -1,1 -3,0 -4,-3 -1,-1 -2,-2 -2,-3 0,-2 0,-3 0,-5 0,-1 0,-3 0,-4 1,-1 1,-3 2,-4 0,-1 -1,-2 -1,-3 -1,-2 -2,-3 -3,-3 -1,-1 -2,0 -3,1 0,0 0,1 0,1 -1,1 -1,2 -1,3 0,1 0,2 1,3 0,2 0,4 0,6 1,1 1,3 2,6 0,2 1,5 1,7 1,3 2,5 2,7 1,3 2,4 2,5 1,1 1,1 2,1 0,0 1,0 1,-1zm-47 9c0,0 0,-1 0,-1 0,-1 0,-1 0,-1 0,0 0,1 0,2 0,0 0,1 1,2 0,-1 0,-1 -1,-2zm3 -36c0,2 0,4 1,7 0,2 0,4 1,7 0,2 1,4 2,7 0,2 1,4 2,6 0,0 0,-1 0,-1 1,-1 1,-1 1,-1 1,-1 2,-2 3,-3 0,-7 -1,-12 -4,-17 -1,-1 -2,-3 -3,-3 -1,-1 -2,-2 -3,-2zm-6 14c0,-2 1,-4 1,-6 0,-2 0,-4 0,-7 -3,1 -7,4 -10,7 -4,3 -7,6 -11,10 -2,3 -4,6 -6,9 -2,3 -4,7 -5,10 5,-5 10,-8 15,-9 5,-2 9,-1 13,1 -1,-1 -1,-3 -2,-5 -1,-1 -2,-1 -3,-2 -1,-1 -2,-1 -3,-2 1,-2 2,-4 3,-7 1,1 3,2 4,3 1,1 2,2 3,3 1,1 1,3 2,5 0,-4 -1,-7 -1,-10 0,0 0,0 0,0zm-10 44c4,-5 7,-11 8,-18 -2,-2 -4,-4 -7,-5 -2,-1 -4,-1 -7,0 -3,0 -6,1 -8,3 -3,2 -6,4 -9,6 0,0 -1,1 -1,1 0,0 0,0 -1,1 0,3 0,5 0,7 0,2 1,4 2,6 1,1 2,2 4,3 2,1 4,1 6,1 2,0 4,0 7,-1 2,-1 4,-2 6,-4zm16 26c1,-1 2,-3 2,-6 1,-2 1,-4 1,-7 0,-2 0,-5 0,-8 0,-3 -1,-6 -2,-10 0,5 -1,10 -3,15 -1,5 -4,9 -8,12 -3,3 -5,4 -8,5 -3,1 -6,2 -9,2 -3,0 -6,-1 -8,-2 -2,-2 -4,-3 -6,-5 0,-1 -1,-2 -2,-3 0,-1 0,-3 -1,-5 2,0 4,-1 6,-2 1,2 1,3 1,4 1,1 1,2 2,3 1,1 2,2 4,3 1,1 3,1 5,1 2,0 4,0 6,-1 3,0 4,-2 6,-3 2,-2 3,-4 5,-6 1,-2 2,-5 3,-7 0,-3 1,-6 1,-8 0,-3 0,-6 0,-8 -2,5 -5,10 -9,14 -2,2 -5,4 -8,5 -3,2 -6,2 -9,2 -2,0 -5,-1 -8,-2 -2,-1 -4,-3 -6,-5 -1,-1 -1,-2 -2,-4 0,-1 0,-3 0,-5 -3,3 -5,6 -6,10 -2,3 -3,6 -3,9 -1,3 -1,5 0,8 0,3 1,5 3,7 4,6 11,10 19,12 3,0 5,1 7,1 3,0 5,0 8,-1 2,0 4,-1 6,-2 2,-1 4,-2 6,-3 3,-3 5,-6 7,-10z"/>
  </g>
 </g>
</svg>
