<?xml version="1.0" encoding="UTF-8" standalone="no"?>
<!-- Created with Inkscape (http://www.inkscape.org/) -->

<svg
   xmlns:dc="http://purl.org/dc/elements/1.1/"
   xmlns:cc="http://creativecommons.org/ns#"
   xmlns:rdf="http://www.w3.org/1999/02/22-rdf-syntax-ns#"
   xmlns:svg="http://www.w3.org/2000/svg"
   xmlns="http://www.w3.org/2000/svg"
   version="1.1"
   width="765"
   height="990"
   id="svg2">
  <defs
     id="defs4">
    <filter
       color-interpolation-filters="sRGB"
       id="filter4646">
      <feFlood
         result="flood"
         flood-color="rgb(0,0,0)"
         flood-opacity="0.4"
         id="feFlood4648" />
      <feComposite
         in2="SourceGraphic"
         operator="in"
         in="flood"
         result="composite1"
         id="feComposite4650" />
      <feGaussianBlur
         result="blur"
         stdDeviation="0.5"
         id="feGaussianBlur4652" />
      <feOffset
         result="offset"
         dy="0.9"
         dx="0.5"
         id="feOffset4654" />
      <feComposite
         in2="offset"
         operator="over"
         in="SourceGraphic"
         result="composite2"
         id="feComposite4656" />
    </filter>
    <filter
       color-interpolation-filters="sRGB"
       id="filter4646-1">
      <feFlood
         result="flood"
         flood-color="rgb(0,0,0)"
         flood-opacity="0.4"
         id="feFlood4648-7" />
      <feComposite
         in2="SourceGraphic"
         operator="in"
         in="flood"
         result="composite1"
         id="feComposite4650-4" />
      <feGaussianBlur
         result="blur"
         stdDeviation="0.5"
         id="feGaussianBlur4652-0" />
      <feOffset
         result="offset"
         dy="0.9"
         dx="0.5"
         id="feOffset4654-9" />
      <feComposite
         in2="offset"
         operator="over"
         in="SourceGraphic"
         result="composite2"
         id="feComposite4656-4" />
    </filter>
    <filter
       color-interpolation-filters="sRGB"
       id="filter4646-1-8">
      <feFlood
         result="flood"
         flood-color="rgb(0,0,0)"
         flood-opacity="0.4"
         id="feFlood4648-7-8" />
      <feComposite
         in2="SourceGraphic"
         operator="in"
         in="flood"
         result="composite1"
         id="feComposite4650-4-2" />
      <feGaussianBlur
         result="blur"
         stdDeviation="0.5"
         id="feGaussianBlur4652-0-4" />
      <feOffset
         result="offset"
         dy="0.9"
         dx="0.5"
         id="feOffset4654-9-5" />
      <feComposite
         in2="offset"
         operator="over"
         in="SourceGraphic"
         result="composite2"
         id="feComposite4656-4-5" />
    </filter>
    <filter
       color-interpolation-filters="sRGB"
       id="filter4646-1-8-1">
      <feFlood
         result="flood"
         flood-color="rgb(0,0,0)"
         flood-opacity="0.4"
         id="feFlood4648-7-8-1" />
      <feComposite
         in2="SourceGraphic"
         operator="in"
         in="flood"
         result="composite1"
         id="feComposite4650-4-2-5" />
      <feGaussianBlur
         result="blur"
         stdDeviation="0.5"
         id="feGaussianBlur4652-0-4-2" />
      <feOffset
         result="offset"
         dy="0.9"
         dx="0.5"
         id="feOffset4654-9-5-7" />
      <feComposite
         in2="offset"
         operator="over"
         in="SourceGraphic"
         result="composite2"
         id="feComposite4656-4-5-6" />
    </filter>
    <filter
       color-interpolation-filters="sRGB"
       id="filter4646-1-2">
      <feFlood
         result="flood"
         flood-color="rgb(0,0,0)"
         flood-opacity="0.4"
         id="feFlood4648-7-4" />
      <feComposite
         in2="SourceGraphic"
         operator="in"
         in="flood"
         result="composite1"
         id="feComposite4650-4-5" />
      <feGaussianBlur
         result="blur"
         stdDeviation="0.5"
         id="feGaussianBlur4652-0-5" />
      <feOffset
         result="offset"
         dy="0.9"
         dx="0.5"
         id="feOffset4654-9-1" />
      <feComposite
         in2="offset"
         operator="over"
         in="SourceGraphic"
         result="composite2"
         id="feComposite4656-4-7" />
    </filter>
    <filter
       color-interpolation-filters="sRGB"
       id="filter4646-4">
      <feFlood
         result="flood"
         flood-color="rgb(0,0,0)"
         flood-opacity="0.4"
         id="feFlood4648-0" />
      <feComposite
         in2="SourceGraphic"
         operator="in"
         in="flood"
         result="composite1"
         id="feComposite4650-9" />
      <feGaussianBlur
         result="blur"
         stdDeviation="0.5"
         id="feGaussianBlur4652-4" />
      <feOffset
         result="offset"
         dy="0.9"
         dx="0.5"
         id="feOffset4654-8" />
      <feComposite
         in2="offset"
         operator="over"
         in="SourceGraphic"
         result="composite2"
         id="feComposite4656-8" />
    </filter>
  </defs>
  <metadata
     id="metadata7">
    <rdf:RDF>
      <cc:Work
         rdf:about="">
        <dc:format>image/svg+xml</dc:format>
        <dc:type
           rdf:resource="http://purl.org/dc/dcmitype/StillImage" />
        <dc:title></dc:title>
      </cc:Work>
    </rdf:RDF>
  </metadata>
  <g
     id="layer4"
     style="display:inline">
    <path
       d="m 188.39643,-15.18938 c 7.84875,-4.8675 15.215,-9.89125 21.6575,-16.055 4.805,-4.68625 8.78125,-9.475 12.1925,-15.235 6.61875,-11.165 9.11625,-24.3175 4.94625,-36.84625 -4.67,-14.03375 -20.36625,-19.205 -32.60625,-11.73 3.33375,-4.9225 -0.14875,-11.70375 -6.19,-11.73625 -6.04125,0.0325 -9.52375,6.81375 -6.19125,11.73625 -12.24,-7.475 -27.93487,-2.30375 -32.60562,11.73 -4.16938,12.52875 -1.67213,25.68125 4.94612,36.84625 3.41188,5.76 7.38813,10.54875 12.192,15.235 6.44375,6.16375 13.80875,11.1875 21.65875,16.055 z m 0,-81.09875 c -1.645,0 -2.9775,-1.3325 -2.9775,-2.9775 0,-1.64375 1.3325,-2.9775 2.9775,-2.9775 1.64375,0 2.9775,1.33375 2.9775,2.9775 0,1.645 -1.33374,2.9775 -2.9775,2.9775 z m 0,6.08125 c -0.645,-0.64625 -1.34125,-1.25375 -2.0775,-1.82875 0.67375,0.19375 1.37625,0.295 2.0775,0.295 0.70125,0 1.4025,-0.10125 2.07625,-0.295 -0.73625,0.575 -1.43125,1.1825 -2.07625,1.82875 z"
       transform="translate(0,225)"
       id="path4756-2"
       style="fill:none;stroke:#000000;stroke-width:0.125;stroke-miterlimit:4;stroke-opacity:1;stroke-dasharray:none;display:inline" />
  </g>
  <g
     transform="translate(0,225)"
     id="layer2"
     style="display:inline">
    <g
       id="g5158">
      <path
         d="m 222.37643,-82.84938 -51.39125,49.2825 c -6.11287,-5.7125 -11.40312,-12.29375 -14.80425,-19.5275 l 33.88925,-32.5625 c 3.01625,-2.8325 5.77625,-5.295 9.755,-6.965 9.15501,-3.18875 18.98625,0.47 22.55125,9.7725 z"
         id="path4764-4"
         style="fill:#c89955;fill-opacity:1;stroke:none" />
      <path
         d="m 175.78268,-88.10938 c -0.10624,0.58375 -0.23749,1.0775 -0.39125,1.48875 -0.15125,0.41 -0.33375,0.76375 -0.54625,1.06125 -0.2075,0.29875 -0.445,0.54875 -0.71125,0.75625 -0.26625,0.20625 -0.5675,0.395 -0.9075,0.56125 -0.5775,0.2825 -1.21,0.42375 -1.89875,0.42375 -0.59375,0 -1.1575,-0.115 -1.6875,-0.34625 -0.52875,-0.23375 -0.99375,-0.55125 -1.395,-0.95625 -0.40125,-0.40375 -0.715,-0.88125 -0.94875,-1.43625 -0.23125,-0.555 -0.34625,-1.155 -0.34625,-1.8025 0,-0.375 0.0512,-0.74375 0.15,-1.11 0.1,-0.3625 0.24375,-0.7075 0.42625,-1.035 0.18625,-0.33125 0.4075,-0.635 0.6675,-0.9175 0.26001,-0.2825 0.5525,-0.52625 0.87625,-0.72875 0.32,-0.205 0.67,-0.365 1.04251,-0.48 0.37124,-0.11625 0.76624,-0.17375 1.17874,-0.17375 0.43,0 0.84375,0.0675 1.23875,0.2025 0.39375,0.135 0.74375,0.32625 1.045,0.5775 0.4625,-0.53875 1.1,-0.9725 1.915,-1.29625 0.815,-0.3275 1.8125,-0.5325 2.98875,-0.61875 l 0,0.6 c -0.28125,0.0962 -0.54125,0.2375 -0.77625,0.42875 -0.23375,0.19 -0.455,0.4525 -0.65749,0.78625 -0.20126,0.33625 -0.39376,0.75125 -0.5675,1.24375 -0.17625,0.4975 -0.3425,1.09125 -0.49625,1.7875 0.22375,-0.19 0.45124,-0.50125 0.6825,-0.94 l 0.58374,0.24375 c -0.11874,0.22375 -0.23124,0.42 -0.33374,0.58375 -0.1025,0.16 -0.21125,0.30125 -0.32375,0.41625 -0.1125,0.11625 -0.23125,0.215 -0.35625,0.295 -0.1275,0.0813 -0.26875,0.16125 -0.4325,0.235 l -0.0188,0.15 z m -2.35749,2.19125 c 0.12124,-0.17 0.23999,-0.385 0.3625,-0.64875 0.12124,-0.2625 0.24625,-0.57 0.37124,-0.92 -0.16999,0.285 -0.3525,0.51 -0.555,0.67 -0.19875,0.16125 -0.43874,0.30875 -0.71499,0.44625 l 0.01,0 c -0.38125,0.2025 -0.82125,0.30125 -1.315,0.30125 -0.3425,0 -0.6675,-0.0637 -0.97125,-0.18875 -0.305,-0.12875 -0.57125,-0.3025 -0.79875,-0.52 -0.2275,-0.22125 -0.41125,-0.4775 -0.545,-0.7725 -0.135,-0.295 -0.2025,-0.61 -0.2025,-0.95 0,-0.3625 0.0862,-0.71125 0.25625,-1.0425 l 0.6125,0.17 c -0.14375,0.28875 -0.215,0.58125 -0.215,0.8825 0,0.2375 0.0488,0.46125 0.14125,0.67375 0.0937,0.20875 0.22125,0.39375 0.385,0.55125 0.16375,0.16 0.3525,0.28875 0.57375,0.38125 0.21875,0.0937 0.45,0.14125 0.69375,0.14125 0.23375,0 0.46125,-0.045 0.6925,-0.135 0.2275,-0.0925 0.445,-0.2175 0.65125,-0.3775 0.20875,-0.1575 0.39375,-0.34375 0.56375,-0.55875 0.17,-0.21125 0.3075,-0.43875 0.41375,-0.6825 -0.32,-0.25 -0.555,-0.52875 -0.70875,-0.83125 -0.15375,-0.30375 -0.23125,-0.6575 -0.23125,-1.0575 0,-0.1925 0.02,-0.3825 0.0613,-0.56125 0.0425,-0.18375 0.11874,-0.3725 0.23124,-0.565 -0.25625,-0.2375 -0.5325,-0.4075 -0.82749,-0.50625 -0.29126,-0.1 -0.625,-0.15125 -0.99376,-0.15125 -0.46875,0 -0.9275,0.1025 -1.3725,0.31125 -0.45,0.205 -0.84375,0.4875 -1.1875,0.84375 -0.3425,0.35875 -0.62125,0.77625 -0.83,1.25 -0.20875,0.47875 -0.315,0.985 -0.315,1.52375 0,0.4875 0.09,0.95875 0.27,1.415 0.18,0.45125 0.42625,0.8525 0.74125,1.19625 0.31376,0.34625 0.67875,0.62125 1.09875,0.82625 0.42125,0.20875 0.87001,0.31125 1.35375,0.31125 0.45625,0 0.8725,-0.115 1.2475,-0.34625 0.37625,-0.23375 0.72875,-0.5925 1.05251,-1.08 z m 1.28624,-3.48375 c 0,0.0838 -0.01,0.2025 -0.0288,0.36 0.34625,-0.87875 0.6825,-1.65875 1.01626,-2.345 0.32999,-0.68625 0.69874,-1.24375 1.10624,-1.6775 -0.54874,0.17 -1.02249,0.42 -1.41999,0.7575 -0.39875,0.33375 -0.74125,0.75625 -1.03,1.26375 0.13125,0.25625 0.22375,0.51 0.27625,0.76625 0.0537,0.25375 0.08,0.545 0.08,0.875 z m -0.77,-0.35625 c 0,0.18375 0.0312,0.3475 0.0925,0.48875 0.0125,-0.0487 0.02,-0.0962 0.02,-0.13875 0,-0.045 0,-0.0863 0,-0.125 0,-0.125 -0.007,-0.24 -0.02,-0.34625 -0.0125,-0.10625 -0.0312,-0.21125 -0.0538,-0.32125 -0.0138,0.0712 -0.0225,0.14125 -0.0288,0.21875 -0.006,0.0737 -0.01,0.15 -0.01,0.22375 z m -11.75137,9.455 c -0.30163,0.305 -0.58688,0.5525 -0.85963,0.735 -0.2725,0.18625 -0.58362,0.34625 -0.9365,0.48375 -0.17612,0.40125 -0.404,0.77 -0.68637,1.10625 0.20875,0.10625 0.3915,0.19 0.55487,0.245 0.16375,0.0575 0.3175,0.0987 0.46201,0.12125 0.14424,0.025 0.28524,0.0412 0.42312,0.045 0.13813,0.002 0.27925,0.002 0.42975,0.002 0.21512,0 0.41712,-0.0225 0.60625,-0.07 0.1925,-0.0475 0.35937,-0.10875 0.50037,-0.18875 0.13788,-0.0775 0.25013,-0.17 0.33338,-0.27625 0.0801,-0.10625 0.122,-0.22125 0.122,-0.34 0,-0.0187 0.003,-0.0288 0.01,-0.0288 l -0.12188,-0.055 c -0.31425,-0.15625 -0.47125,-0.40625 -0.47125,-0.75375 0,-0.0925 0.0191,-0.185 0.0577,-0.28125 0.035,-0.0937 0.0865,-0.1775 0.15375,-0.25375 0.0641,-0.0737 0.14101,-0.135 0.231,-0.1825 0.0865,-0.0487 0.1765,-0.0712 0.2725,-0.0712 0.21826,0 0.39476,0.0863 0.52626,0.26 0.13137,0.1725 0.1955,0.3975 0.1955,0.68375 0,0.455 -0.15413,0.92 -0.45888,1.39125 l 0,-0.01 c -0.51937,0.79875 -1.183,1.19625 -1.98487,1.19625 -0.18288,0 -0.35613,-0.0125 -0.523,-0.0375 -0.16651,-0.0263 -0.33988,-0.0713 -0.52263,-0.14125 -0.18287,-0.0675 -0.3785,-0.16375 -0.58675,-0.2825 -0.212,-0.11875 -0.449,-0.27625 -0.71225,-0.46875 -0.38162,0.31125 -0.7855,0.5425 -1.21212,0.69 -0.42663,0.1475 -0.88838,0.22125 -1.3855,0.22125 -0.25013,0 -0.49075,-0.0387 -0.715,-0.1125 -0.22463,-0.0775 -0.4235,-0.17875 -0.59351,-0.31125 -0.17012,-0.13125 -0.30474,-0.285 -0.40399,-0.46125 -0.0995,-0.17375 -0.15088,-0.3625 -0.15088,-0.56125 0,-0.20875 0.045,-0.3975 0.13775,-0.57125 0.09,-0.17 0.21513,-0.32125 0.36888,-0.44625 0.15737,-0.125 0.34337,-0.22375 0.55812,-0.295 0.21188,-0.0737 0.43938,-0.10875 0.68638,-0.10875 0.0354,0 0.0705,0 0.10275,0 0.0319,0 0.0673,0.004 0.10237,0.006 -0.23712,-0.17 -0.449,-0.36875 -0.64137,-0.5925 -0.18925,-0.225 -0.35613,-0.47125 -0.49388,-0.7375 -0.14112,-0.26625 -0.25025,-0.5525 -0.32387,-0.86 -0.0737,-0.305 -0.11238,-0.62875 -0.11238,-0.965 0,-0.4875 0.0996,-0.975 0.29513,-1.46 0.19887,-0.4875 0.48437,-0.92 0.8565,-1.30125 0.372,-0.3825 0.82412,-0.69375 1.35312,-0.93 0.52938,-0.2375 1.12888,-0.35625 1.793,-0.35625 0.44888,0 0.86588,0.07 1.25075,0.215 0.38163,0.14375 0.7505,0.3425 1.10663,0.6 0.18237,-0.15125 0.37487,-0.27 0.58037,-0.35625 0.20188,-0.0875 0.40075,-0.1325 0.59625,-0.1325 0.388,0 0.68638,0.155 0.89825,0.46625 0.20838,0.3075 0.31437,0.73375 0.31437,1.27 0,0.3075 -0.0355,0.6275 -0.10287,0.9675 -0.0705,0.3375 -0.17963,0.68625 -0.33338,1.04875 -0.15412,0.3625 -0.35925,0.735 -0.61262,1.11 -0.25337,0.375 -0.5645,0.75375 -0.93325,1.135 z m -3.18475,0.8925 0.0964,-0.25375 c 0.035,-0.10625 0.0769,-0.21125 0.1155,-0.315 0.0415,-0.1025 0.0769,-0.205 0.10874,-0.30375 l -0.009,0 0.60299,-2.005 c 0.13788,-0.45875 0.25976,-0.83625 0.36563,-1.14125 0.10563,-0.30125 0.21163,-0.565 0.31438,-0.78625 0.10237,-0.22125 0.2115,-0.42 0.33025,-0.59 0.1155,-0.1725 0.25012,-0.35875 0.40712,-0.5575 -0.28212,-0.21875 -0.57725,-0.37875 -0.882,-0.47875 -0.30788,-0.0987 -0.63175,-0.15 -0.96837,-0.15 -0.47163,0 -0.92376,0.0962 -1.35988,0.29125 -0.433,0.1925 -0.81788,0.45625 -1.15438,0.78625 -0.33387,0.33 -0.60312,0.72125 -0.80825,1.17375 -0.202,0.44875 -0.30475,0.93 -0.30475,1.44375 0,0.38125 0.0705,0.74375 0.21476,1.09 0.1445,0.34625 0.3465,0.65375 0.60299,0.92 0.25663,0.26625 0.56125,0.47875 0.911,0.635 0.34938,0.16125 0.73425,0.24125 1.14488,0.24125 l 0.2725,0 z m 1.95937,-1.7425 c -0.0641,0.2575 -0.11512,0.475 -0.15687,0.65125 -0.0419,0.18 -0.0933,0.37875 -0.15425,0.59625 0.0677,-0.0312 0.13187,-0.0637 0.18612,-0.0987 0.0577,-0.035 0.1155,-0.0737 0.17638,-0.12125 0.0577,-0.045 0.12512,-0.10375 0.19562,-0.1675 0.074,-0.0675 0.16375,-0.1475 0.26963,-0.24 0.27575,-0.26375 0.529,-0.56125 0.76325,-0.895 0.231,-0.3375 0.42975,-0.68625 0.59637,-1.0525 0.16688,-0.365 0.29513,-0.74125 0.38513,-1.125 0.0929,-0.385 0.13787,-0.76375 0.13787,-1.13875 0,-0.6125 -0.13787,-0.92125 -0.41387,-0.92125 -0.11238,0 -0.21788,0.0325 -0.31113,0.1 -0.0929,0.0637 -0.19562,0.17 -0.3015,0.315 0.045,0.0537 0.09,0.1175 0.13813,0.19125 0.0446,0.0713 0.096,0.155 0.15375,0.25375 0.0577,0.0962 0.11875,0.20875 0.18287,0.34 0.0674,0.13125 0.14425,0.2925 0.231,0.48125 l -0.58387,0.25375 -0.16975,-0.36 c -0.0481,-0.0925 -0.10275,-0.18625 -0.15413,-0.27875 -0.0546,-0.0962 -0.106,-0.18 -0.157,-0.25375 -0.0545,0.1125 -0.11225,0.24125 -0.17325,0.38875 -0.0577,0.1475 -0.12825,0.35 -0.20512,0.60625 -0.0805,0.25625 -0.17013,0.58 -0.26963,0.975 -0.0992,0.39375 -0.22112,0.895 -0.36575,1.5 z m -4.32637,3.955 c 0.34975,0 0.67037,-0.0775 0.95925,-0.23125 0.28525,-0.15375 0.5385,-0.3775 0.75037,-0.66625 -0.26287,-0.1575 -0.47787,-0.2825 -0.648,-0.3725 -0.16975,-0.0925 -0.3175,-0.16 -0.44262,-0.20875 -0.125,-0.0475 -0.24375,-0.08 -0.3525,-0.0962 -0.10913,-0.0163 -0.23738,-0.0225 -0.38837,-0.0225 -0.15701,0 -0.30438,0.02 -0.4425,0.0613 -0.13788,0.0412 -0.25663,0.0962 -0.35575,0.16625 -0.10276,0.0675 -0.17963,0.1475 -0.23738,0.24125 -0.0546,0.09 -0.0834,0.18875 -0.0834,0.2975 0,0.1125 0.0319,0.21875 0.0992,0.32125 0.0641,0.1 0.15412,0.18875 0.26612,0.2625 0.11225,0.0775 0.247,0.13875 0.39475,0.18 0.1505,0.045 0.311,0.0675 0.48075,0.0675 z m 2.08488,-1.5775 c -0.0736,0.006 -0.1155,0.0125 -0.12188,0.0188 -0.006,0.006 -0.006,0.01 0,0.0125 0.006,0.004 0.006,0.006 0,0.006 -0.006,0 -0.045,-0.009 -0.11225,-0.0288 l 0.20513,0.1125 0.0481,-0.1125 c -0.006,0 -0.01,-0.002 -0.01,-0.006 0,-0.003 -0.003,-0.003 -0.01,-0.003 z m 17.32074,-1.02625 0.565,0.17625 c -0.40749,1.01625 -0.8625,1.75375 -1.37249,2.21625 -0.50751,0.46125 -1.02626,0.6925 -1.55501,0.6925 -0.20875,0 -0.39875,-0.0425 -0.57499,-0.125 -0.17626,-0.0863 -0.32751,-0.2025 -0.45876,-0.35 -0.13124,-0.1475 -0.23375,-0.32125 -0.31125,-0.52625 -0.0737,-0.20125 -0.11124,-0.42625 -0.11124,-0.67 0,-0.15375 0.0112,-0.31 0.035,-0.47125 l -0.0613,0.002 c -0.0312,0 -0.0675,-0.002 -0.10876,-0.009 -0.0412,-0.006 -0.0837,-0.0163 -0.125,-0.0288 -0.31375,0.75 -0.63125,1.30125 -0.95624,1.65125 -0.32626,0.35 -0.67001,0.52625 -1.03501,0.52625 -0.14749,0 -0.2925,-0.0362 -0.42999,-0.11 -0.1375,-0.07 -0.26,-0.1625 -0.36251,-0.27875 -0.10249,-0.115 -0.18625,-0.25 -0.25,-0.4 -0.0613,-0.1475 -0.0937,-0.30125 -0.0937,-0.45875 0,-0.11875 0.0163,-0.27 0.0488,-0.44875 0.0287,-0.18375 0.08,-0.405 0.14749,-0.6675 l 0.7925,-2.8325 c 0.185,0.0387 0.37125,0.0588 0.55125,0.0588 0.1275,0 0.25,-0.01 0.3725,-0.0325 0.12125,-0.02 0.25625,-0.0487 0.4,-0.0838 l -1.09999,3.96375 c -0.0313,0.11 -0.0538,0.2 -0.07,0.28 -0.0163,0.0762 -0.0225,0.1275 -0.0225,0.15375 0,0.0387 0.0125,0.08 0.0412,0.13125 0.0288,0.0513 0.0675,0.0738 0.11625,0.0738 0.0763,0 0.17,-0.0512 0.28125,-0.1575 0.11251,-0.10625 0.23125,-0.24625 0.35375,-0.42375 0.12125,-0.175 0.24375,-0.37125 0.36126,-0.58625 0.11875,-0.2175 0.22499,-0.43625 0.32124,-0.66375 -0.125,-0.16375 -0.21124,-0.32375 -0.25999,-0.4875 -0.0475,-0.16375 -0.07,-0.35 -0.07,-0.56375 0,-0.23125 0.025,-0.4525 0.0737,-0.66125 0.0513,-0.21125 0.11875,-0.395 0.20125,-0.555 0.0837,-0.16 0.18375,-0.28875 0.2925,-0.38125 0.10874,-0.0937 0.22125,-0.14125 0.34,-0.14125 0.14374,0 0.26249,0.0575 0.35624,0.1725 0.0925,0.11625 0.14,0.28875 0.14,0.52 0,0.2025 -0.0212,0.46125 -0.07,0.785 -0.045,0.32125 -0.13125,0.66125 -0.25625,1.0175 0.0125,0.006 0.0288,0.01 0.045,0.01 0.0675,-0.0163 0.15124,-0.0875 0.25124,-0.21625 0.0362,-0.10125 0.0762,-0.2025 0.12,-0.30375 0.11625,-0.26625 0.25,-0.52 0.40125,-0.7575 0.15375,-0.23625 0.3175,-0.445 0.49375,-0.62125 0.17626,-0.18 0.35625,-0.32125 0.545,-0.42625 0.18626,-0.10625 0.3725,-0.16125 0.5525,-0.16125 0.17,0 0.32,0.035 0.45501,0.1025 0.13499,0.0713 0.25,0.16 0.3425,0.27625 0.0937,0.115 0.16375,0.25375 0.21249,0.41375 0.0475,0.16 0.07,0.33375 0.07,0.52 0,0.67875 -0.18875,1.24125 -0.56375,1.67625 -0.37625,0.43625 -0.91125,0.7 -1.61376,0.78625 -0.0187,0.15125 -0.0287,0.27 -0.0287,0.35625 0,0.33625 0.1,0.50625 0.30125,0.50625 0.145,0 0.30875,-0.045 0.4975,-0.13125 0.18875,-0.0863 0.37875,-0.2175 0.5675,-0.395 0.19249,-0.17625 0.37875,-0.3975 0.565,-0.66375 0.1825,-0.26625 0.34624,-0.57375 0.48999,-0.92375 l 0.16,-0.355 z m -1.32125,-1.54375 c -0.0763,0 -0.1625,0.0838 -0.2625,0.25375 -0.0987,0.17 -0.2025,0.38125 -0.305,0.635 -0.10499,0.25375 -0.20124,0.52625 -0.29124,0.82125 -0.0937,0.295 -0.16751,0.57125 -0.23126,0.8275 0.2375,-0.045 0.4425,-0.17 0.61625,-0.375 0.1725,-0.20875 0.32,-0.5325 0.445,-0.97875 0.10625,-0.375 0.16,-0.68 0.16,-0.91 0,-0.18375 -0.0438,-0.27375 -0.13125,-0.27375 z m -23.46737,11.685 c 0,-0.45875 0.0641,-0.895 0.18925,-1.305 0.12512,-0.41375 0.30788,-0.79875 0.55487,-1.15125 0.24375,-0.3525 0.54538,-0.6675 0.90138,-0.94375 0.359,-0.275 0.76963,-0.50625 1.23137,-0.695 0.558,-0.92 1.38538,-1.38 2.48238,-1.38 0.3785,0 0.7215,0.0612 1.02938,0.18 0.31112,0.11875 0.57724,0.28 0.80187,0.47875 0.22137,0.19875 0.39437,0.42875 0.51625,0.6925 0.12187,0.2625 0.18287,0.53875 0.18287,0.8275 0,0.28125 -0.0643,0.5925 -0.18925,0.93625 -0.12512,0.34 -0.31425,0.7025 -0.5645,1.08375 l -0.0927,0.14125 c 0.1665,-0.1375 0.36213,-0.33 0.58038,-0.58375 l 0.35925,0.25625 c 0.13787,-0.37875 0.32387,-0.7375 0.55812,-1.08 0.23375,-0.3475 0.4935,-0.65125 0.77588,-0.9175 0.27887,-0.26625 0.57725,-0.4775 0.89162,-0.63875 0.31425,-0.16 0.61575,-0.24 0.91088,-0.24 0.14425,0 0.29162,0.0188 0.44262,0.06 0.15063,0.0425 0.28525,0.1 0.40713,0.18375 0.12187,0.08 0.2215,0.1825 0.3015,0.30125 0.0769,0.12125 0.11875,0.2625 0.11875,0.42625 0,0.18 -0.061,0.33 -0.17963,0.44875 -0.11875,0.11875 -0.25974,0.1775 -0.4235,0.1775 -0.16337,0 -0.30112,-0.055 -0.4135,-0.16375 -0.11225,-0.11 -0.17012,-0.24375 -0.17012,-0.4075 0,-0.0487 0.003,-0.0875 0.006,-0.1125 0.003,-0.0225 0.007,-0.0488 0.0129,-0.0738 0.013,-0.0613 0.0194,-0.10875 0.0194,-0.14125 0,-0.0412 -0.0672,-0.0637 -0.2055,-0.0637 -0.20824,0 -0.41024,0.07 -0.61224,0.21125 -0.19913,0.14125 -0.38513,0.33 -0.558,0.57125 -0.17338,0.24 -0.32751,0.525 -0.46213,0.8525 -0.13462,0.33125 -0.24062,0.68375 -0.32387,1.05875 l -0.20513,1.0675 c -0.11875,0.6 -0.26925,1.12625 -0.45212,1.57875 -0.17963,0.44875 -0.39151,0.84 -0.62863,1.17 -0.23737,0.33375 -0.5035,0.6125 -0.79538,0.84 -0.292,0.2275 -0.60949,0.42 -0.9525,0.5775 -0.27599,0.11875 -0.56437,0.20875 -0.85962,0.2725 -0.29838,0.0612 -0.58675,0.0937 -0.86275,0.0937 -0.58038,0 -1.13525,-0.11875 -1.65788,-0.35375 -0.523,-0.23375 -0.9815,-0.5575 -1.37587,-0.97125 -0.39763,-0.41375 -0.70875,-0.8975 -0.94288,-1.4525 -0.23112,-0.55875 -0.34662,-1.16125 -0.34662,-1.8125 z m 4.10212,3.935 c 0.65088,0 1.21213,-0.20875 1.68375,-0.62875 0.46813,-0.41625 0.8625,-1.01625 1.18313,-1.795 -0.0446,0.0125 -0.0896,0.0188 -0.13788,0.0188 -0.0478,0 -0.096,0 -0.14412,0 -0.18925,0 -0.3625,-0.035 -0.52263,-0.1025 -0.16049,-0.0675 -0.30162,-0.16375 -0.4235,-0.285 -0.12187,-0.1225 -0.22462,-0.26625 -0.30475,-0.43625 -0.0833,-0.1675 -0.13775,-0.35 -0.17,-0.5425 l -0.0191,0 c -0.38162,0 -0.74412,-0.0675 -1.08712,-0.2025 -0.34013,-0.13375 -0.6385,-0.32625 -0.89188,-0.57 -0.2565,-0.24375 -0.45525,-0.53625 -0.60262,-0.8725 -0.14788,-0.33625 -0.2215,-0.70875 -0.2215,-1.11625 0,-0.17625 0.0128,-0.3525 0.0386,-0.52875 -0.25975,0.17625 -0.50037,0.38125 -0.71862,0.615 -0.21788,0.23375 -0.40388,0.49375 -0.55775,0.78 -0.15413,0.285 -0.276,0.59 -0.36238,0.9175 -0.0869,0.32375 -0.1315,0.66625 -0.1315,1.0225 0,0.3875 0.0546,0.76625 0.16338,1.135 0.10912,0.36875 0.26962,0.7125 0.48112,1.03 0.20838,0.31375 0.47125,0.59625 0.78238,0.84375 0.31425,0.24625 0.67362,0.435 1.08112,0.5675 0.282,0.0987 0.57713,0.15 0.88188,0.15 z m -1.00387,-6.52625 c 0,0.30125 0.0579,0.58 0.16975,0.8375 0.11237,0.25375 0.2665,0.4775 0.45887,0.67 0.19563,0.18875 0.42313,0.34 0.68638,0.44875 0.26287,0.10875 0.54175,0.16375 0.83375,0.16375 l 0.0386,0 c 0.0255,-0.125 0.051,-0.24125 0.08,-0.3425 0.0288,-0.10375 0.0674,-0.2125 0.11875,-0.325 0.0482,-0.115 0.1155,-0.23625 0.19875,-0.37125 0.0865,-0.135 0.19238,-0.295 0.32388,-0.47875 l 0.50675,-0.725 c 0.1445,-0.205 0.2565,-0.3975 0.33375,-0.57625 0.08,-0.18 0.11837,-0.3625 0.11837,-0.5525 0,-0.14375 -0.0415,-0.27875 -0.12187,-0.4 -0.0834,-0.1225 -0.19563,-0.2275 -0.343,-0.32125 -0.1475,-0.09 -0.3175,-0.16 -0.51313,-0.215 -0.19237,-0.0537 -0.40425,-0.08 -0.62862,-0.08 -0.30788,0 -0.57712,0.0387 -0.81138,0.11625 -0.23737,0.0763 -0.45212,0.205 -0.6445,0.38375 0.0864,-0.0125 0.16975,-0.0225 0.25338,-0.0288 0.08,-0.006 0.16012,-0.01 0.23375,-0.01 0.21512,0 0.41387,0.0163 0.59675,0.0487 0.186,0.0325 0.36887,0.08 0.55487,0.15125 0.186,0.07 0.372,0.15625 0.55813,0.26 0.18912,0.105 0.388,0.23375 0.60262,0.38125 l -0.35575,0.52625 c -0.35925,-0.25125 -0.68949,-0.43375 -0.99425,-0.5525 -0.3015,-0.11875 -0.62212,-0.17875 -0.96237,-0.17875 -0.14413,0 -0.30463,0.0187 -0.484,0.06 -0.17638,0.0425 -0.37525,0.0962 -0.5935,0.16375 -0.0736,0.19875 -0.12825,0.375 -0.16338,0.52625 -0.0354,0.15125 -0.0514,0.28875 -0.0514,0.42 z m 4.51887,2.1975 c 0.0319,-0.11 0.0641,-0.2125 0.10238,-0.315 0.0386,-0.105 0.0772,-0.20875 0.11238,-0.3175 -0.388,0.42625 -0.83376,0.7375 -1.33413,0.93 -0.0737,0.22125 -0.11238,0.3975 -0.11238,0.53625 0,0.14375 0.0323,0.25625 0.0933,0.33375 0.0641,0.08 0.14099,0.1175 0.23699,0.1175 0.15413,0 0.31113,-0.11125 0.46525,-0.33375 0.15063,-0.22 0.30163,-0.5375 0.44576,-0.95125 l -0.01,0 z m 2.57525,4.20375 c 0.31425,0 0.60588,-0.32375 0.8755,-0.96875 -0.22137,-0.1375 -0.3305,-0.3775 -0.3305,-0.725 0,-0.15 0.0226,-0.29375 0.0673,-0.42875 0.045,-0.13875 0.106,-0.26375 0.18288,-0.36875 0.0772,-0.10625 0.17012,-0.19 0.27925,-0.25375 0.10912,-0.0612 0.22737,-0.0925 0.356,-0.0925 0.0128,-0.11875 0.0191,-0.24375 0.0191,-0.37625 0,-0.25625 -0.0321,-0.4575 -0.0995,-0.6025 -0.0674,-0.14375 -0.15375,-0.215 -0.25975,-0.215 -0.0514,0 -0.096,0.0163 -0.13787,0.045 -0.0418,0.0325 -0.0864,0.0863 -0.13775,0.16625 -0.0482,0.0775 -0.106,0.18375 -0.17013,0.3175 -0.0609,0.135 -0.13462,0.30875 -0.21787,0.51375 -0.0482,0.125 -0.11238,0.3075 -0.19275,0.54875 -0.0801,0.24375 -0.15375,0.49625 -0.2275,0.7625 -0.0738,0.26625 -0.13463,0.52 -0.18925,0.76375 -0.0545,0.2475 -0.08,0.4325 -0.08,0.565 0,0.095 0.0222,0.17625 0.0672,0.24375 0.0415,0.07 0.10875,0.105 0.19562,0.105 z m 6.08625,-2.46875 0.58375,0.17875 c -0.18875,0.4875 -0.34625,0.8825 -0.48,1.1875 -0.1325,0.30125 -0.235,0.525 -0.30875,0.67 -0.3875,0.71875 -0.83,1.0775 -1.32375,1.0775 -0.2225,0 -0.41437,-0.0775 -0.57762,-0.23125 -0.16688,-0.15375 -0.2825,-0.37125 -0.34338,-0.65125 -0.1155,0.17625 -0.21475,0.32125 -0.3015,0.43625 -0.0865,0.1125 -0.17612,0.2025 -0.26937,0.26625 -0.0896,0.0612 -0.186,0.10625 -0.28525,0.12875 -0.0995,0.0225 -0.21825,0.0312 -0.356,0.0312 -0.263,0 -0.47488,-0.0888 -0.635,-0.265 -0.1605,-0.18 -0.24063,-0.415 -0.24063,-0.7025 0,-0.0875 0.0128,-0.205 0.0386,-0.35625 l 0.0309,-0.16625 c -0.0461,0.008 -0.095,0.0125 -0.14637,0.015 -0.40713,0.9725 -0.91063,1.45625 -1.50738,1.45625 -0.19875,0 -0.38475,-0.0412 -0.55487,-0.12875 -0.16963,-0.0825 -0.31738,-0.20125 -0.4425,-0.355 -0.12513,-0.15375 -0.22425,-0.33375 -0.29475,-0.545 -0.0741,-0.20875 -0.10925,-0.43625 -0.10925,-0.68 0,-0.41375 0.0706,-0.835 0.21162,-1.2575 0.141,-0.42 0.327,-0.805 0.55488,-1.145 0.231,-0.34375 0.4875,-0.61875 0.776,-0.8375 0.28875,-0.215 0.5775,-0.32375 0.866,-0.32375 0.33375,0 0.59662,0.1225 0.78588,0.36625 0.19237,0.24375 0.28837,0.58 0.28837,1.00625 0,0.33 -0.0769,0.8025 -0.2275,1.4075 0.0319,-0.0725 0.0674,-0.1625 0.10562,-0.265 0.0305,-0.0888 0.0676,-0.18625 0.10988,-0.29 l 0.5765,-2.12875 c 0.10275,0.01 0.19875,0.02 0.29838,0.0263 0.096,0.009 0.1955,0.0125 0.29475,0.0125 0.12512,0 0.24699,-0.006 0.372,-0.0188 0.12187,-0.0137 0.25337,-0.0325 0.39799,-0.0587 -0.19887,0.735 -0.37212,1.35375 -0.51349,1.86 -0.14101,0.5075 -0.2565,0.9275 -0.34613,1.26125 -0.0896,0.33 -0.1605,0.59 -0.21163,0.77875 -0.0514,0.19 -0.0867,0.3275 -0.11224,0.4175 -0.0259,0.0925 -0.0386,0.1475 -0.0419,0.17 -0.003,0.0225 -0.006,0.035 -0.006,0.0412 0.0834,-0.0125 0.17974,-0.0962 0.29199,-0.25375 0.11201,-0.1575 0.2275,-0.3625 0.34938,-0.615 0.11875,-0.25375 0.23737,-0.54625 0.35925,-0.87875 0.122,-0.33125 0.2375,-0.68 0.343,-1.0425 l 0.50712,-1.7 c 0.1025,0.0163 0.19876,0.0288 0.2975,0.0412 0.0962,0.01 0.19625,0.0163 0.295,0.0163 0.11875,0 0.2375,-0.006 0.35626,-0.0188 0.11875,-0.0125 0.24374,-0.0325 0.36875,-0.0575 l -1.11875,4.07875 c -0.0125,0.0575 -0.0263,0.1125 -0.0412,0.16375 -0.0163,0.055 -0.0263,0.11625 -0.0325,0.1825 0,0.0962 0.0125,0.14125 0.045,0.14125 0.07,0 0.14751,-0.045 0.23126,-0.14125 0.0825,-0.0925 0.17625,-0.22375 0.27499,-0.3975 0.10251,-0.17 0.20626,-0.37875 0.31125,-0.61875 0.10625,-0.24 0.215,-0.51 0.33001,-0.81125 l 0.17624,-0.4775 z m -1.15125,-12.9425 c 0.3225,-0.64625 0.64625,-0.97 1.2925,-0.97 0.71375,0 1.29375,0.58 1.29375,1.2925 0,1.29375 -1.29375,2.5875 -2.58625,3.87875 -1.2935,-1.29125 -2.58687,-2.585 -2.58687,-3.87875 0,-0.7125 0.579,-1.2925 1.29337,-1.2925 0.646,0 0.96975,0.32375 1.2935,0.97 z"
         id="path3087-7-1"
         style="fill:#c89955;fill-opacity:1;stroke:none" />
      <path
         d="m 198.15518,-47.30438 c 0.56375,-1.12875 1.12875,-1.6925 2.25875,-1.6925 1.24626,0 2.25751,1.01125 2.25751,2.2575 0,2.2575 -2.2575,4.5175 -4.51626,6.77375 -2.25875,-2.25625 -4.51749,-4.51625 -4.51749,-6.77375 0,-1.24625 1.01124,-2.2575 2.25874,-2.2575 1.12875,0 1.69375,0.56375 2.25875,1.6925 z m 3.1925,10.115 c 0.395,-0.79 0.79,-1.185 1.58,-1.185 0.87376,0 1.58125,0.7075 1.58125,1.57875 0,1.58125 -1.58125,3.1625 -3.16125,4.7425 -1.58125,-1.58 -3.1625,-3.16125 -3.1625,-4.7425 0,-0.87125 0.70875,-1.57875 1.58125,-1.57875 0.79,0 1.185,0.395 1.58125,1.185 z m -13.0075,2.90125 c 0.8675,-1.735 1.73625,-2.6025 3.47125,-2.6025 1.9175,0 3.47125,1.55375 3.47125,3.47 0,3.47 -3.47125,6.9425 -6.9425,10.41125 -3.47125,-3.46875 -6.9425,-6.94125 -6.9425,-10.41125 0,-1.91625 1.55375,-3.47 3.47125,-3.47 1.735,0 2.60375,0.8675 3.47125,2.6025 z m 32.73125,-37.425 c 0.325,-0.65 0.65,-0.97375 1.29875,-0.97375 0.7175,0 1.29875,0.58125 1.29875,1.2975 0,1.29875 -1.29875,2.5975 -2.5975,3.895 -1.2975,-1.2975 -2.59625,-2.59625 -2.59625,-3.895 0,-0.71625 0.58125,-1.2975 1.29875,-1.2975 0.64875,0 0.97375,0.32375 1.2975,0.97375 z m -3.64,8.13125 c 0.565,-1.13 1.13,-1.69375 2.25875,-1.69375 1.2475,0 2.25875,1.01125 2.25875,2.2575 0,2.2575 -2.25875,4.5175 -4.5175,6.77375 -2.2575,-2.25625 -4.51625,-4.51625 -4.51625,-6.77375 0,-1.24625 1.01125,-2.2575 2.25875,-2.2575 1.12875,0 1.69375,0.56375 2.2575,1.69375 z m -8.8525,4.70125 c 0.395,-0.79 0.79,-1.18375 1.58125,-1.18375 0.8725,0 1.58,0.7075 1.58,1.57875 0,1.58125 -1.58,3.1625 -3.16125,4.7425 -1.58125,-1.58 -3.1625,-3.16125 -3.1625,-4.7425 0,-0.87125 0.70875,-1.57875 1.58125,-1.57875 0.79125,0 1.18625,0.39375 1.58125,1.18375 z m 1.285,8.63375 c 0.725,-1.44875 1.45,-2.1725 2.89875,-2.1725 1.60125,0 2.89875,1.2975 2.89875,2.8975 0,2.89875 -2.89875,5.79875 -5.7975,8.69625 -2.9,-2.8975 -5.79875,-5.7975 -5.79875,-8.69625 0,-1.6 1.2975,-2.8975 2.89875,-2.8975 1.45,0 2.175,0.72375 2.9,2.1725 z m -18.92625,7.9975 c 0.32375,-0.64875 0.64875,-0.9725 1.29875,-0.9725 0.71625,0 1.2975,0.58125 1.2975,1.2975 0,1.29875 -1.2975,2.5975 -2.59625,3.895 -1.29875,-1.2975 -2.5975,-2.59625 -2.5975,-3.895 0,-0.71625 0.58125,-1.2975 1.29875,-1.2975 0.64875,0 0.97375,0.32375 1.29875,0.9725 z m -16.4175,11.8175 c 4.79875,4.0425 8.79,6.705 13.85875,9.8475 19.43875,-11.79375 40.63126,-32.2125 35.47501,-57.15625 l -49.33375,47.30875 z"
         id="path3091-4-6"
         style="fill:#c89955;fill-opacity:1;stroke:none" />
    </g>
  </g>
  <g
     transform="translate(0,-62.36218)"
     id="layer1"
     style="display:inline">
    <path
       d="m -102.44843,82.28915 -51.39125,49.2825 c -6.11287,-5.7125 -11.40312,-12.29375 -14.80425,-19.5275 l 33.88925,-32.5625 c 3.01625,-2.8325 5.77625,-5.295 9.755,-6.965 9.15501,-3.18875 18.98625,0.47 22.55125,9.7725 z m -47.85625,52.4175 c 4.79875,4.0425 8.79,6.705 13.85875,9.8475 19.43875,-11.79375 40.631257,-32.2125 35.47501,-57.15625 l -49.33375,47.30875 z m 13.87625,-59.775 c -0.645,-0.64625 -1.34125,-1.25375 -2.0775,-1.82875 0.67375,0.19375 1.37625,0.295 2.0775,0.295 0.70125,0 1.4025,-0.10125 2.07625,-0.295 -0.73625,0.575 -1.43125,1.1825 -2.07625,1.82875 z m 0,-6.08125 c -1.645,0 -2.9775,-1.3325 -2.9775,-2.9775 0,-1.64375 1.3325,-2.9775 2.9775,-2.9775 1.64375,0 2.9775,1.33375 2.9775,2.9775 0,1.645 -1.33374,2.9775 -2.9775,2.9775 z m 0,81.09875 c 7.84875,-4.8675 15.215,-9.89125 21.6575,-16.055 4.805,-4.68625 8.78125,-9.475 12.1925,-15.235 6.618747,-11.165 9.116247,-24.3175 4.946247,-36.84625 -4.669997,-14.03375 -20.366247,-19.205 -32.606247,-11.73 3.33375,-4.9225 -0.14875,-11.70375 -6.19,-11.73625 -6.04125,0.0325 -9.52375,6.81375 -6.19125,11.73625 -12.24,-7.475 -27.93487,-2.30375 -32.60562,11.73 -4.16938,12.52875 -1.67213,25.68125 4.94612,36.84625 3.41188,5.76 7.38813,10.54875 12.192,15.235 6.44375,6.16375 13.80875,11.1875 21.65875,16.055 z m -22.01375,-66.0725 c 0.3225,-0.64625 0.64625,-0.97 1.2925,-0.97 0.71375,0 1.29375,0.58 1.29375,1.2925 0,1.29375 -1.29375,2.5875 -2.58625,3.87875 -1.2935,-1.29125 -2.58687,-2.585 -2.58687,-3.87875 0,-0.7125 0.579,-1.2925 1.29337,-1.2925 0.646,0 0.96975,0.32375 1.2935,0.97 z m 1.15125,12.9425 0.58375,0.17875 c -0.18875,0.4875 -0.34625,0.8825 -0.48,1.1875 -0.1325,0.30125 -0.235,0.525 -0.30875,0.67 -0.3875,0.71875 -0.83,1.0775 -1.32375,1.0775 -0.2225,0 -0.41437,-0.0775 -0.57762,-0.23125 -0.16688,-0.15375 -0.2825,-0.37125 -0.34338,-0.65125 -0.1155,0.17625 -0.21475,0.32125 -0.3015,0.43625 -0.0865,0.1125 -0.17612,0.2025 -0.26937,0.26625 -0.0896,0.0612 -0.186,0.10625 -0.28525,0.12875 -0.0995,0.0225 -0.21825,0.0312 -0.356,0.0312 -0.263,0 -0.47488,-0.0888 -0.635,-0.265 -0.1605,-0.18 -0.24063,-0.415 -0.24063,-0.7025 0,-0.0875 0.0128,-0.205 0.0386,-0.35625 l 0.0309,-0.16625 c -0.0461,0.008 -0.095,0.0125 -0.14637,0.015 -0.40713,0.9725 -0.91063,1.45625 -1.50738,1.45625 -0.19875,0 -0.38475,-0.0412 -0.55487,-0.12875 -0.16963,-0.0825 -0.31738,-0.20125 -0.4425,-0.355 -0.12513,-0.15375 -0.22425,-0.33375 -0.29475,-0.545 -0.0741,-0.20875 -0.10925,-0.43625 -0.10925,-0.68 0,-0.41375 0.0706,-0.835 0.21162,-1.2575 0.141,-0.42 0.327,-0.805 0.55488,-1.145 0.231,-0.34375 0.4875,-0.61875 0.776,-0.8375 0.28875,-0.215 0.5775,-0.32375 0.866,-0.32375 0.33375,0 0.59662,0.1225 0.78588,0.36625 0.19237,0.24375 0.28837,0.58 0.28837,1.00625 0,0.33 -0.0769,0.8025 -0.2275,1.4075 0.0319,-0.0725 0.0674,-0.1625 0.10562,-0.265 0.0305,-0.0888 0.0676,-0.18625 0.10988,-0.29 l 0.5765,-2.12875 c 0.10275,0.01 0.19875,0.02 0.29838,0.0263 0.096,0.009 0.1955,0.0125 0.29475,0.0125 0.12512,0 0.24699,-0.006 0.372,-0.0188 0.12187,-0.0137 0.25337,-0.0325 0.39799,-0.0587 -0.19887,0.735 -0.37212,1.35375 -0.51349,1.86 -0.14101,0.5075 -0.2565,0.9275 -0.34613,1.26125 -0.0896,0.33 -0.1605,0.59 -0.21163,0.77875 -0.0514,0.19 -0.0867,0.3275 -0.11224,0.4175 -0.0259,0.0925 -0.0386,0.1475 -0.0419,0.17 -0.003,0.0225 -0.006,0.035 -0.006,0.0412 0.0834,-0.0125 0.17974,-0.0962 0.29199,-0.25375 0.11201,-0.1575 0.2275,-0.3625 0.34938,-0.615 0.11875,-0.25375 0.23737,-0.54625 0.35925,-0.87875 0.122,-0.33125 0.2375,-0.68 0.343,-1.0425 l 0.50712,-1.7 c 0.1025,0.0163 0.19876,0.0288 0.2975,0.0412 0.0962,0.01 0.19625,0.0163 0.295,0.0163 0.11875,0 0.2375,-0.006 0.35626,-0.0188 0.11875,-0.0125 0.24374,-0.0325 0.36875,-0.0575 l -1.11875,4.07875 c -0.0125,0.0575 -0.0263,0.1125 -0.0412,0.16375 -0.0163,0.055 -0.0263,0.11625 -0.0325,0.1825 0,0.0962 0.0125,0.14125 0.045,0.14125 0.07,0 0.14751,-0.045 0.23126,-0.14125 0.0825,-0.0925 0.17625,-0.22375 0.27499,-0.3975 0.10251,-0.17 0.20626,-0.37875 0.31125,-0.61875 0.10625,-0.24 0.215,-0.51 0.33001,-0.81125 l 0.17624,-0.4775 z m -6.08625,2.46875 c 0.31425,0 0.60588,-0.32375 0.8755,-0.96875 -0.22137,-0.1375 -0.3305,-0.3775 -0.3305,-0.725 0,-0.15 0.0226,-0.29375 0.0673,-0.42875 0.045,-0.13875 0.106,-0.26375 0.18288,-0.36875 0.0772,-0.10625 0.17012,-0.19 0.27925,-0.25375 0.10912,-0.0612 0.22737,-0.0925 0.356,-0.0925 0.0128,-0.11875 0.0191,-0.24375 0.0191,-0.37625 0,-0.25625 -0.0321,-0.4575 -0.0995,-0.6025 -0.0674,-0.14375 -0.15375,-0.215 -0.25975,-0.215 -0.0514,0 -0.096,0.0163 -0.13787,0.045 -0.0418,0.0325 -0.0864,0.0863 -0.13775,0.16625 -0.0482,0.0775 -0.106,0.18375 -0.17013,0.3175 -0.0609,0.135 -0.13462,0.30875 -0.21787,0.51375 -0.0482,0.125 -0.11238,0.3075 -0.19275,0.54875 -0.0801,0.24375 -0.15375,0.49625 -0.2275,0.7625 -0.0738,0.26625 -0.13463,0.52 -0.18925,0.76375 -0.0545,0.2475 -0.08,0.4325 -0.08,0.565 0,0.095 0.0222,0.17625 0.0672,0.24375 0.0415,0.07 0.10875,0.105 0.19562,0.105 z m -2.57525,-4.20375 c 0.0319,-0.11 0.0641,-0.2125 0.10238,-0.315 0.0386,-0.105 0.0772,-0.20875 0.11238,-0.3175 -0.388,0.42625 -0.83376,0.7375 -1.33413,0.93 -0.0737,0.22125 -0.11238,0.3975 -0.11238,0.53625 0,0.14375 0.0323,0.25625 0.0933,0.33375 0.0641,0.08 0.14099,0.1175 0.23699,0.1175 0.15413,0 0.31113,-0.11125 0.46525,-0.33375 0.15063,-0.22 0.30163,-0.5375 0.44576,-0.95125 l -0.01,0 z m -4.51887,-2.1975 c 0,0.30125 0.0579,0.58 0.16975,0.8375 0.11237,0.25375 0.2665,0.4775 0.45887,0.67 0.19563,0.18875 0.42313,0.34 0.68638,0.44875 0.26287,0.10875 0.54175,0.16375 0.83375,0.16375 l 0.0386,0 c 0.0255,-0.125 0.051,-0.24125 0.08,-0.3425 0.0288,-0.10375 0.0674,-0.2125 0.11875,-0.325 0.0482,-0.115 0.1155,-0.23625 0.19875,-0.37125 0.0865,-0.135 0.19238,-0.295 0.32388,-0.47875 l 0.50675,-0.725 c 0.1445,-0.205 0.2565,-0.3975 0.33375,-0.57625 0.08,-0.18 0.11837,-0.3625 0.11837,-0.5525 0,-0.14375 -0.0415,-0.27875 -0.12187,-0.4 -0.0834,-0.1225 -0.19563,-0.2275 -0.343,-0.32125 -0.1475,-0.09 -0.3175,-0.16 -0.51313,-0.215 -0.19237,-0.0537 -0.40425,-0.08 -0.62862,-0.08 -0.30788,0 -0.57712,0.0387 -0.81138,0.11625 -0.23737,0.0763 -0.45212,0.205 -0.6445,0.38375 0.0864,-0.0125 0.16975,-0.0225 0.25338,-0.0288 0.08,-0.006 0.16012,-0.01 0.23375,-0.01 0.21512,0 0.41387,0.0163 0.59675,0.0487 0.186,0.0325 0.36887,0.08 0.55487,0.15125 0.186,0.07 0.372,0.15625 0.55813,0.26 0.18912,0.105 0.388,0.23375 0.60262,0.38125 l -0.35575,0.52625 c -0.35925,-0.25125 -0.68949,-0.43375 -0.99425,-0.5525 -0.3015,-0.11875 -0.62212,-0.17875 -0.96237,-0.17875 -0.14413,0 -0.30463,0.0187 -0.484,0.06 -0.17638,0.0425 -0.37525,0.0962 -0.5935,0.16375 -0.0736,0.19875 -0.12825,0.375 -0.16338,0.52625 -0.0354,0.15125 -0.0514,0.28875 -0.0514,0.42 z m 1.00387,6.52625 c 0.65088,0 1.21213,-0.20875 1.68375,-0.62875 0.46813,-0.41625 0.8625,-1.01625 1.18313,-1.795 -0.0446,0.0125 -0.0896,0.0188 -0.13788,0.0188 -0.0478,0 -0.096,0 -0.14412,0 -0.18925,0 -0.3625,-0.035 -0.52263,-0.1025 -0.16049,-0.0675 -0.30162,-0.16375 -0.4235,-0.285 -0.12187,-0.1225 -0.22462,-0.26625 -0.30475,-0.43625 -0.0833,-0.1675 -0.13775,-0.35 -0.17,-0.5425 l -0.0191,0 c -0.38162,0 -0.74412,-0.0675 -1.08712,-0.2025 -0.34013,-0.13375 -0.6385,-0.32625 -0.89188,-0.57 -0.2565,-0.24375 -0.45525,-0.53625 -0.60262,-0.8725 -0.14788,-0.33625 -0.2215,-0.70875 -0.2215,-1.11625 0,-0.17625 0.0128,-0.3525 0.0386,-0.52875 -0.25975,0.17625 -0.50037,0.38125 -0.71862,0.615 -0.21788,0.23375 -0.40388,0.49375 -0.55775,0.78 -0.15413,0.285 -0.276,0.59 -0.36238,0.9175 -0.0869,0.32375 -0.1315,0.66625 -0.1315,1.0225 0,0.3875 0.0546,0.76625 0.16338,1.135 0.10912,0.36875 0.26962,0.7125 0.48112,1.03 0.20838,0.31375 0.47125,0.59625 0.78238,0.84375 0.31425,0.24625 0.67362,0.435 1.08112,0.5675 0.282,0.0987 0.57713,0.15 0.88188,0.15 z m -4.10212,-3.935 c 0,-0.45875 0.0641,-0.895 0.18925,-1.305 0.12512,-0.41375 0.30788,-0.79875 0.55487,-1.15125 0.24375,-0.3525 0.54538,-0.6675 0.90138,-0.94375 0.359,-0.275 0.76963,-0.50625 1.23137,-0.695 0.558,-0.92 1.38538,-1.38 2.48238,-1.38 0.3785,0 0.7215,0.0612 1.02938,0.18 0.31112,0.11875 0.57724,0.28 0.80187,0.47875 0.22137,0.19875 0.39437,0.42875 0.51625,0.6925 0.12187,0.2625 0.18287,0.53875 0.18287,0.8275 0,0.28125 -0.0643,0.5925 -0.18925,0.93625 -0.12512,0.34 -0.31425,0.7025 -0.5645,1.08375 l -0.0927,0.14125 c 0.1665,-0.1375 0.36213,-0.33 0.58038,-0.58375 l 0.35925,0.25625 c 0.13787,-0.37875 0.32387,-0.7375 0.55812,-1.08 0.23375,-0.3475 0.4935,-0.65125 0.77588,-0.9175 0.27887,-0.26625 0.57725,-0.4775 0.89162,-0.63875 0.31425,-0.16 0.61575,-0.24 0.91088,-0.24 0.14425,0 0.29162,0.0188 0.44262,0.06 0.15063,0.0425 0.28525,0.1 0.40713,0.18375 0.12187,0.08 0.2215,0.1825 0.3015,0.30125 0.0769,0.12125 0.11875,0.2625 0.11875,0.42625 0,0.18 -0.061,0.33 -0.17963,0.44875 -0.11875,0.11875 -0.25974,0.1775 -0.4235,0.1775 -0.16337,0 -0.30112,-0.055 -0.4135,-0.16375 -0.11225,-0.11 -0.17012,-0.24375 -0.17012,-0.4075 0,-0.0487 0.003,-0.0875 0.006,-0.1125 0.003,-0.0225 0.007,-0.0488 0.0129,-0.0738 0.013,-0.0613 0.0194,-0.10875 0.0194,-0.14125 0,-0.0412 -0.0672,-0.0637 -0.2055,-0.0637 -0.20824,0 -0.41024,0.07 -0.61224,0.21125 -0.19913,0.14125 -0.38513,0.33 -0.558,0.57125 -0.17338,0.24 -0.32751,0.525 -0.46213,0.8525 -0.13462,0.33125 -0.24062,0.68375 -0.32387,1.05875 l -0.20513,1.0675 c -0.11875,0.6 -0.26925,1.12625 -0.45212,1.57875 -0.17963,0.44875 -0.39151,0.84 -0.62863,1.17 -0.23737,0.33375 -0.5035,0.6125 -0.79538,0.84 -0.292,0.2275 -0.60949,0.42 -0.9525,0.5775 -0.27599,0.11875 -0.56437,0.20875 -0.85962,0.2725 -0.29838,0.0612 -0.58675,0.0937 -0.86275,0.0937 -0.58038,0 -1.13525,-0.11875 -1.65788,-0.35375 -0.523,-0.23375 -0.9815,-0.5575 -1.37587,-0.97125 -0.39763,-0.41375 -0.70875,-0.8975 -0.94288,-1.4525 -0.23112,-0.55875 -0.34662,-1.16125 -0.34662,-1.8125 z m 23.46737,-11.685 c -0.0763,0 -0.1625,0.0838 -0.2625,0.25375 -0.0987,0.17 -0.2025,0.38125 -0.305,0.635 -0.10499,0.25375 -0.20124,0.52625 -0.29124,0.82125 -0.0937,0.295 -0.16751,0.57125 -0.23126,0.8275 0.2375,-0.045 0.4425,-0.17 0.61625,-0.375 0.1725,-0.20875 0.32,-0.5325 0.445,-0.97875 0.10625,-0.375 0.16,-0.68 0.16,-0.91 0,-0.18375 -0.0438,-0.27375 -0.13125,-0.27375 z m 1.32125,1.54375 0.565,0.17625 c -0.40749,1.01625 -0.8625,1.75375 -1.37249,2.21625 -0.50751,0.46125 -1.02626,0.6925 -1.55501,0.6925 -0.20875,0 -0.39875,-0.0425 -0.57499,-0.125 -0.17626,-0.0863 -0.32751,-0.2025 -0.45876,-0.35 -0.13124,-0.1475 -0.23375,-0.32125 -0.31125,-0.52625 -0.0737,-0.20125 -0.11124,-0.42625 -0.11124,-0.67 0,-0.15375 0.0112,-0.31 0.035,-0.47125 l -0.0613,0.002 c -0.0312,0 -0.0675,-0.002 -0.10876,-0.009 -0.0412,-0.006 -0.0837,-0.0163 -0.125,-0.0288 -0.31375,0.75 -0.63125,1.30125 -0.95624,1.65125 -0.32626,0.35 -0.67001,0.52625 -1.03501,0.52625 -0.14749,0 -0.2925,-0.0362 -0.42999,-0.11 -0.1375,-0.07 -0.26,-0.1625 -0.36251,-0.27875 -0.10249,-0.115 -0.18625,-0.25 -0.25,-0.4 -0.0613,-0.1475 -0.0937,-0.30125 -0.0937,-0.45875 0,-0.11875 0.0163,-0.27 0.0488,-0.44875 0.0287,-0.18375 0.08,-0.405 0.14749,-0.6675 l 0.7925,-2.8325 c 0.185,0.0387 0.37125,0.0588 0.55125,0.0588 0.1275,0 0.25,-0.01 0.3725,-0.0325 0.12125,-0.02 0.25625,-0.0487 0.4,-0.0838 l -1.09999,3.96375 c -0.0313,0.11 -0.0538,0.2 -0.07,0.28 -0.0163,0.0762 -0.0225,0.1275 -0.0225,0.15375 0,0.0387 0.0125,0.08 0.0412,0.13125 0.0288,0.0513 0.0675,0.0738 0.11625,0.0738 0.0763,0 0.17,-0.0512 0.28125,-0.1575 0.11251,-0.10625 0.23125,-0.24625 0.35375,-0.42375 0.12125,-0.175 0.24375,-0.37125 0.36126,-0.58625 0.11875,-0.2175 0.22499,-0.43625 0.32124,-0.66375 -0.125,-0.16375 -0.21124,-0.32375 -0.25999,-0.4875 -0.0475,-0.16375 -0.07,-0.35 -0.07,-0.56375 0,-0.23125 0.025,-0.4525 0.0737,-0.66125 0.0513,-0.21125 0.11875,-0.395 0.20125,-0.555 0.0837,-0.16 0.18375,-0.28875 0.2925,-0.38125 0.10874,-0.0937 0.22125,-0.14125 0.34,-0.14125 0.14374,0 0.26249,0.0575 0.35624,0.1725 0.0925,0.11625 0.14,0.28875 0.14,0.52 0,0.2025 -0.0212,0.46125 -0.07,0.785 -0.045,0.32125 -0.13125,0.66125 -0.25625,1.0175 0.0125,0.006 0.0288,0.01 0.045,0.01 0.0675,-0.0163 0.15124,-0.0875 0.25124,-0.21625 0.0362,-0.10125 0.0762,-0.2025 0.12,-0.30375 0.11625,-0.26625 0.25,-0.52 0.40125,-0.7575 0.15375,-0.23625 0.3175,-0.445 0.49375,-0.62125 0.17626,-0.18 0.35625,-0.32125 0.545,-0.42625 0.18626,-0.10625 0.3725,-0.16125 0.5525,-0.16125 0.17,0 0.32,0.035 0.45501,0.1025 0.13499,0.0713 0.25,0.16 0.3425,0.27625 0.0937,0.115 0.16375,0.25375 0.21249,0.41375 0.0475,0.16 0.07,0.33375 0.07,0.52 0,0.67875 -0.18875,1.24125 -0.56375,1.67625 -0.37625,0.43625 -0.91125,0.7 -1.61376,0.78625 -0.0187,0.15125 -0.0287,0.27 -0.0287,0.35625 0,0.33625 0.1,0.50625 0.30125,0.50625 0.145,0 0.30875,-0.045 0.4975,-0.13125 0.18875,-0.0863 0.37875,-0.2175 0.5675,-0.395 0.19249,-0.17625 0.37875,-0.3975 0.565,-0.66375 0.1825,-0.26625 0.34624,-0.57375 0.48999,-0.92375 l 0.16,-0.355 z m -17.32074,1.02625 c -0.0736,0.006 -0.1155,0.0125 -0.12188,0.0188 -0.006,0.006 -0.006,0.01 0,0.0125 0.006,0.004 0.006,0.006 0,0.006 -0.006,0 -0.045,-0.009 -0.11225,-0.0288 l 0.20513,0.1125 0.0481,-0.1125 c -0.006,0 -0.01,-0.002 -0.01,-0.006 0,-0.003 -0.003,-0.003 -0.01,-0.003 z m -2.08488,1.5775 c 0.34975,0 0.67037,-0.0775 0.95925,-0.23125 0.28525,-0.15375 0.5385,-0.3775 0.75037,-0.66625 -0.26287,-0.1575 -0.47787,-0.2825 -0.648,-0.3725 -0.16975,-0.0925 -0.3175,-0.16 -0.44262,-0.20875 -0.125,-0.0475 -0.24375,-0.08 -0.3525,-0.0962 -0.10913,-0.0163 -0.23738,-0.0225 -0.38837,-0.0225 -0.15701,0 -0.30438,0.02 -0.4425,0.0613 -0.13788,0.0412 -0.25663,0.0962 -0.35575,0.16625 -0.10276,0.0675 -0.17963,0.1475 -0.23738,0.24125 -0.0546,0.09 -0.0834,0.18875 -0.0834,0.2975 0,0.1125 0.0319,0.21875 0.0992,0.32125 0.0641,0.1 0.15412,0.18875 0.26612,0.2625 0.11225,0.0775 0.247,0.13875 0.39475,0.18 0.1505,0.045 0.311,0.0675 0.48075,0.0675 z m 4.32637,-3.955 c -0.0641,0.2575 -0.11512,0.475 -0.15687,0.65125 -0.0419,0.18 -0.0933,0.37875 -0.15425,0.59625 0.0677,-0.0312 0.13187,-0.0637 0.18612,-0.0987 0.0577,-0.035 0.1155,-0.0737 0.17638,-0.12125 0.0577,-0.045 0.12512,-0.10375 0.19562,-0.1675 0.074,-0.0675 0.16375,-0.1475 0.26963,-0.24 0.27575,-0.26375 0.529,-0.56125 0.76325,-0.895 0.231,-0.3375 0.42975,-0.68625 0.59637,-1.0525 0.16688,-0.365 0.29513,-0.74125 0.38513,-1.125 0.0929,-0.385 0.13787,-0.76375 0.13787,-1.13875 0,-0.6125 -0.13787,-0.92125 -0.41387,-0.92125 -0.11238,0 -0.21788,0.0325 -0.31113,0.1 -0.0929,0.0637 -0.19562,0.17 -0.3015,0.315 0.045,0.0537 0.09,0.1175 0.13813,0.19125 0.0446,0.0713 0.096,0.155 0.15375,0.25375 0.0577,0.0962 0.11875,0.20875 0.18287,0.34 0.0674,0.13125 0.14425,0.2925 0.231,0.48125 l -0.58387,0.25375 -0.16975,-0.36 c -0.0481,-0.0925 -0.10275,-0.18625 -0.15413,-0.27875 -0.0546,-0.0962 -0.106,-0.18 -0.157,-0.25375 -0.0545,0.1125 -0.11225,0.24125 -0.17325,0.38875 -0.0577,0.1475 -0.12825,0.35 -0.20512,0.60625 -0.0805,0.25625 -0.17013,0.58 -0.26963,0.975 -0.0992,0.39375 -0.22112,0.895 -0.36575,1.5 z m -1.95937,1.7425 0.0964,-0.25375 c 0.035,-0.10625 0.0769,-0.21125 0.1155,-0.315 0.0415,-0.1025 0.0769,-0.205 0.10874,-0.30375 l -0.009,0 0.60299,-2.005 c 0.13788,-0.45875 0.25976,-0.83625 0.36563,-1.14125 0.10563,-0.30125 0.21163,-0.565 0.31438,-0.78625 0.10237,-0.22125 0.2115,-0.42 0.33025,-0.59 0.1155,-0.1725 0.25012,-0.35875 0.40712,-0.5575 -0.28212,-0.21875 -0.57725,-0.37875 -0.882,-0.47875 -0.30788,-0.0987 -0.63175,-0.15 -0.96837,-0.15 -0.47163,0 -0.92376,0.0962 -1.35988,0.29125 -0.433,0.1925 -0.81788,0.45625 -1.15438,0.78625 -0.33387,0.33 -0.60312,0.72125 -0.80825,1.17375 -0.202,0.44875 -0.30475,0.93 -0.30475,1.44375 0,0.38125 0.0705,0.74375 0.21476,1.09 0.1445,0.34625 0.3465,0.65375 0.60299,0.92 0.25663,0.26625 0.56125,0.47875 0.911,0.635 0.34938,0.16125 0.73425,0.24125 1.14488,0.24125 l 0.2725,0 z m 3.18475,-0.8925 c -0.30163,0.305 -0.58688,0.5525 -0.85963,0.735 -0.2725,0.18625 -0.58362,0.34625 -0.9365,0.48375 -0.17612,0.40125 -0.404,0.77 -0.68637,1.10625 0.20875,0.10625 0.3915,0.19 0.55487,0.245 0.16375,0.0575 0.3175,0.0987 0.46201,0.12125 0.14424,0.025 0.28524,0.0412 0.42312,0.045 0.13813,0.002 0.27925,0.002 0.42975,0.002 0.21512,0 0.41712,-0.0225 0.60625,-0.07 0.1925,-0.0475 0.35937,-0.10875 0.50037,-0.18875 0.13788,-0.0775 0.25013,-0.17 0.33338,-0.27625 0.0801,-0.10625 0.122,-0.22125 0.122,-0.34 0,-0.0187 0.003,-0.0288 0.01,-0.0288 l -0.12188,-0.055 c -0.31425,-0.15625 -0.47125,-0.40625 -0.47125,-0.75375 0,-0.0925 0.0191,-0.185 0.0577,-0.28125 0.035,-0.0937 0.0865,-0.1775 0.15375,-0.25375 0.0641,-0.0737 0.14101,-0.135 0.231,-0.1825 0.0865,-0.0487 0.1765,-0.0712 0.2725,-0.0712 0.21826,0 0.39476,0.0863 0.52626,0.26 0.13137,0.1725 0.1955,0.3975 0.1955,0.68375 0,0.455 -0.15413,0.92 -0.45888,1.39125 l 0,-0.01 c -0.51937,0.79875 -1.183,1.19625 -1.98487,1.19625 -0.18288,0 -0.35613,-0.0125 -0.523,-0.0375 -0.16651,-0.0263 -0.33988,-0.0713 -0.52263,-0.14125 -0.18287,-0.0675 -0.3785,-0.16375 -0.58675,-0.2825 -0.212,-0.11875 -0.449,-0.27625 -0.71225,-0.46875 -0.38162,0.31125 -0.7855,0.5425 -1.21212,0.69 -0.42663,0.1475 -0.88838,0.22125 -1.3855,0.22125 -0.25013,0 -0.49075,-0.0387 -0.715,-0.1125 -0.22463,-0.0775 -0.4235,-0.17875 -0.59351,-0.31125 -0.17012,-0.13125 -0.30474,-0.285 -0.40399,-0.46125 -0.0995,-0.17375 -0.15088,-0.3625 -0.15088,-0.56125 0,-0.20875 0.045,-0.3975 0.13775,-0.57125 0.09,-0.17 0.21513,-0.32125 0.36888,-0.44625 0.15737,-0.125 0.34337,-0.22375 0.55812,-0.295 0.21188,-0.0737 0.43938,-0.10875 0.68638,-0.10875 0.0354,0 0.0705,0 0.10275,0 0.0319,0 0.0673,0.004 0.10237,0.006 -0.23712,-0.17 -0.449,-0.36875 -0.64137,-0.5925 -0.18925,-0.225 -0.35613,-0.47125 -0.49388,-0.7375 -0.14112,-0.26625 -0.25025,-0.5525 -0.32387,-0.86 -0.0737,-0.305 -0.11238,-0.62875 -0.11238,-0.965 0,-0.4875 0.0996,-0.975 0.29513,-1.46 0.19887,-0.4875 0.48437,-0.92 0.8565,-1.30125 0.372,-0.3825 0.82412,-0.69375 1.35312,-0.93 0.52938,-0.2375 1.12888,-0.35625 1.793,-0.35625 0.44888,0 0.86588,0.07 1.25075,0.215 0.38163,0.14375 0.7505,0.3425 1.10663,0.6 0.18237,-0.15125 0.37487,-0.27 0.58037,-0.35625 0.20188,-0.0875 0.40075,-0.1325 0.59625,-0.1325 0.388,0 0.68638,0.155 0.89825,0.46625 0.20838,0.3075 0.31437,0.73375 0.31437,1.27 0,0.3075 -0.0355,0.6275 -0.10287,0.9675 -0.0705,0.3375 -0.17963,0.68625 -0.33338,1.04875 -0.15412,0.3625 -0.35925,0.735 -0.61262,1.11 -0.25337,0.375 -0.5645,0.75375 -0.93325,1.135 z m 11.75137,-9.455 c 0,0.18375 0.0312,0.3475 0.0925,0.48875 0.0125,-0.0487 0.02,-0.0962 0.02,-0.13875 0,-0.045 0,-0.0863 0,-0.125 0,-0.125 -0.007,-0.24 -0.02,-0.34625 -0.0125,-0.10625 -0.0312,-0.21125 -0.0538,-0.32125 -0.0138,0.0712 -0.0225,0.14125 -0.0288,0.21875 -0.006,0.0737 -0.01,0.15 -0.01,0.22375 z m 0.77,0.35625 c 0,0.0838 -0.01,0.2025 -0.0288,0.36 0.34625,-0.87875 0.6825,-1.65875 1.01626,-2.345 0.32999,-0.68625 0.69874,-1.24375 1.10624,-1.6775 -0.54874,0.17 -1.02249,0.42 -1.41999,0.7575 -0.39875,0.33375 -0.74125,0.75625 -1.03,1.26375 0.13125,0.25625 0.22375,0.51 0.27625,0.76625 0.0537,0.25375 0.08,0.545 0.08,0.875 z m -1.28624,3.48375 c 0.12124,-0.17 0.23999,-0.385 0.3625,-0.64875 0.12124,-0.2625 0.24625,-0.57 0.37124,-0.92 -0.16999,0.285 -0.3525,0.51 -0.555,0.67 -0.19875,0.16125 -0.43874,0.30875 -0.71499,0.44625 l 0.01,0 c -0.38125,0.2025 -0.82125,0.30125 -1.315,0.30125 -0.3425,0 -0.6675,-0.0637 -0.97125,-0.18875 -0.305,-0.12875 -0.57125,-0.3025 -0.79875,-0.52 -0.2275,-0.22125 -0.41125,-0.4775 -0.545,-0.7725 -0.135,-0.295 -0.2025,-0.61 -0.2025,-0.95 0,-0.3625 0.0862,-0.71125 0.25625,-1.0425 l 0.6125,0.17 c -0.14375,0.28875 -0.215,0.58125 -0.215,0.8825 0,0.2375 0.0488,0.46125 0.14125,0.67375 0.0937,0.20875 0.22125,0.39375 0.385,0.55125 0.16375,0.16 0.3525,0.28875 0.57375,0.38125 0.21875,0.0937 0.45,0.14125 0.69375,0.14125 0.23375,0 0.46125,-0.045 0.6925,-0.135 0.2275,-0.0925 0.445,-0.2175 0.65125,-0.3775 0.20875,-0.1575 0.39375,-0.34375 0.56375,-0.55875 0.17,-0.21125 0.3075,-0.43875 0.41375,-0.6825 -0.32,-0.25 -0.555,-0.52875 -0.70875,-0.83125 -0.15375,-0.30375 -0.23125,-0.6575 -0.23125,-1.0575 0,-0.1925 0.02,-0.3825 0.0613,-0.56125 0.0425,-0.18375 0.11874,-0.3725 0.23124,-0.565 -0.25625,-0.2375 -0.5325,-0.4075 -0.82749,-0.50625 -0.29126,-0.1 -0.625,-0.15125 -0.99376,-0.15125 -0.46875,0 -0.9275,0.1025 -1.3725,0.31125 -0.45,0.205 -0.84375,0.4875 -1.1875,0.84375 -0.3425,0.35875 -0.62125,0.77625 -0.83,1.25 -0.20875,0.47875 -0.315,0.985 -0.315,1.52375 0,0.4875 0.09,0.95875 0.27,1.415 0.18,0.45125 0.42625,0.8525 0.74125,1.19625 0.31376,0.34625 0.67875,0.62125 1.09875,0.82625 0.42125,0.20875 0.87001,0.31125 1.35375,0.31125 0.45625,0 0.8725,-0.115 1.2475,-0.34625 0.37625,-0.23375 0.72875,-0.5925 1.05251,-1.08 z m 2.35749,-2.19125 c -0.10624,0.58375 -0.23749,1.0775 -0.39125,1.48875 -0.15125,0.41 -0.33375,0.76375 -0.54625,1.06125 -0.2075,0.29875 -0.445,0.54875 -0.71125,0.75625 -0.26625,0.20625 -0.5675,0.395 -0.9075,0.56125 -0.5775,0.2825 -1.21,0.42375 -1.89875,0.42375 -0.59375,0 -1.1575,-0.115 -1.6875,-0.34625 -0.52875,-0.23375 -0.99375,-0.55125 -1.395,-0.95625 -0.40125,-0.40375 -0.715,-0.88125 -0.94875,-1.43625 -0.23125,-0.555 -0.34625,-1.155 -0.34625,-1.8025 0,-0.375 0.0512,-0.74375 0.15,-1.11 0.1,-0.3625 0.24375,-0.7075 0.42625,-1.035 0.18625,-0.33125 0.4075,-0.635 0.6675,-0.9175 0.26001,-0.2825 0.5525,-0.52625 0.87625,-0.72875 0.32,-0.205 0.67,-0.365 1.04251,-0.48 0.37124,-0.11625 0.76624,-0.17375 1.17874,-0.17375 0.43,0 0.84375,0.0675 1.23875,0.2025 0.39375,0.135 0.74375,0.32625 1.045,0.5775 0.4625,-0.53875 1.1,-0.9725 1.915,-1.29625 0.815,-0.3275 1.8125,-0.5325 2.98875,-0.61875 l 0,0.6 c -0.28125,0.0962 -0.54125,0.2375 -0.77625,0.42875 -0.23375,0.19 -0.455,0.4525 -0.65749,0.78625 -0.20126,0.33625 -0.39376,0.75125 -0.5675,1.24375 -0.17625,0.4975 -0.3425,1.09125 -0.49625,1.7875 0.22375,-0.19 0.45124,-0.50125 0.6825,-0.94 l 0.58374,0.24375 c -0.11874,0.22375 -0.23124,0.42 -0.33374,0.58375 -0.1025,0.16 -0.21125,0.30125 -0.32375,0.41625 -0.1125,0.11625 -0.23125,0.215 -0.35625,0.295 -0.1275,0.0813 -0.26875,0.16125 -0.4325,0.235 l -0.0188,0.15 z m 15.155,45.86 c 0.32375,-0.64875 0.64875,-0.9725 1.29875,-0.9725 0.71625,0 1.2975,0.58125 1.2975,1.2975 0,1.29875 -1.2975,2.5975 -2.59625,3.895 -1.29875,-1.2975 -2.5975,-2.59625 -2.5975,-3.895 0,-0.71625 0.58125,-1.2975 1.29875,-1.2975 0.64875,0 0.97375,0.32375 1.29875,0.9725 z m 18.92625,-7.9975 c 0.725,-1.44875 1.45,-2.1725 2.89875,-2.1725 1.60125,0 2.89875,1.2975 2.89875,2.8975 0,2.89875 -2.89875,5.79875 -5.7975,8.69625 -2.9,-2.8975 -5.79875,-5.7975 -5.79875,-8.69625 0,-1.6 1.2975,-2.8975 2.89875,-2.8975 1.45,0 2.175,0.72375 2.9,2.1725 z m -1.285,-8.63375 c 0.395,-0.79 0.79,-1.18375 1.58125,-1.18375 0.8725,0 1.58,0.7075 1.58,1.57875 0,1.58125 -1.58,3.1625 -3.16125,4.7425 -1.58125,-1.58 -3.1625,-3.16125 -3.1625,-4.7425 0,-0.87125 0.70875,-1.57875 1.58125,-1.57875 0.79125,0 1.18625,0.39375 1.58125,1.18375 z m 8.8525,-4.70125 c 0.565,-1.13 1.13,-1.69375 2.25875,-1.69375 1.2475,0 2.25875,1.01125 2.25875,2.2575 0,2.2575 -2.25875,4.5175 -4.5175,6.77375 -2.2575,-2.25625 -4.51625,-4.51625 -4.51625,-6.77375 0,-1.24625 1.01125,-2.2575 2.25875,-2.2575 1.12875,0 1.69375,0.56375 2.2575,1.69375 z m 3.64,-8.13125 c 0.325,-0.65 0.65,-0.97375 1.29875,-0.97375 0.7175,0 1.29875,0.58125 1.29875,1.2975 0,1.29875 -1.29875,2.5975 -2.5975,3.895 -1.2975,-1.2975 -2.59625,-2.59625 -2.59625,-3.895 0,-0.71625 0.58125,-1.2975 1.29875,-1.2975 0.64875,0 0.97375,0.32375 1.2975,0.97375 z m -32.73125,37.425 c 0.8675,-1.735 1.73625,-2.6025 3.47125,-2.6025 1.9175,0 3.47125,1.55375 3.47125,3.47 0,3.47 -3.47125,6.9425 -6.9425,10.41125 -3.47125,-3.46875 -6.9425,-6.94125 -6.9425,-10.41125 0,-1.91625 1.55375,-3.47 3.47125,-3.47 1.735,0 2.60375,0.8675 3.47125,2.6025 z m 13.0075,-2.90125 c 0.395,-0.79 0.79,-1.185 1.58,-1.185 0.87376,0 1.58125,0.7075 1.58125,1.57875 0,1.58125 -1.58125,3.1625 -3.16125,4.7425 -1.58125,-1.58 -3.1625,-3.16125 -3.1625,-4.7425 0,-0.87125 0.70875,-1.57875 1.58125,-1.57875 0.79,0 1.185,0.395 1.58125,1.185 z m -3.1925,-10.115 c 0.56375,-1.12875 1.12875,-1.6925 2.25875,-1.6925 1.24626,0 2.25751,1.01125 2.25751,2.2575 0,2.2575 -2.2575,4.5175 -4.51626,6.77375 -2.25875,-2.25625 -4.51749,-4.51625 -4.51749,-6.77375 0,-1.24625 1.01124,-2.2575 2.25874,-2.2575 1.12875,0 1.69375,0.56375 2.25875,1.6925 z"
       id="path3091-4-7"
       style="fill:none;stroke:none" />
    <path
       d="m -142.32387,-141.67672 c -12.31414,-8.28002 -19.94952,-15.4817 -25.78435,-24.31974 -6.232,-9.43965 -8.93618,-18.36222 -8.59698,-28.36616 0.43964,-12.96643 5.54167,-21.27708 15.23149,-24.81046 5.04276,-1.83883 11.42223,-1.40009 16.64617,1.14482 1.37298,0.66887 2.54102,1.17144 2.59563,1.11682 0.0546,-0.0546 -0.22145,-0.80627 -0.61348,-1.67034 -2.15374,-4.74699 1.2047,-9.96389 6.41438,-9.96389 5.20968,0 8.56813,5.2169 6.41438,9.96389 -0.39203,0.86407 -0.6681,1.61572 -0.61348,1.67034 0.0546,0.0546 1.22265,-0.44795 2.59563,-1.11682 6.69453,-3.26133 14.34302,-2.99257 20.75332,0.72925 2.62211,1.5224 6.18738,5.33778 7.722723,8.26448 0.734843,1.40078 1.777739,4.13292 2.31755,6.07143 0.908964,3.26417 0.981246,4.01272 0.978307,10.13171 -0.0029,6.07226 -0.08296,6.90792 -0.988839,10.32246 -3.327221,12.54134 -11.688131,24.39724 -24.186921,34.2974 -3.21009,2.54267 -14.55231,10.3831 -15.01406,10.37862 -0.0864,-7.2e-4 -2.72861,-1.73056 -5.87147,-3.84381 l 0,0 z m 10.91985,-4.05681 c 16.40813,-11.15431 26.69885,-23.76364 30.23718,-37.04991 0.79085,-2.96961 0.92109,-4.22333 0.95108,-9.15509 0.0339,-5.57465 -0.25923,-8.55303 -0.81948,-8.32651 -0.31116,0.12581 -49.68148,47.46941 -49.68148,47.64199 0,0.49411 13.60343,10.13759 14.3127,10.14628 0.11306,10e-4 2.36306,-1.46415 5,-3.25676 z m 5.33015,-36.20379 c 12.27679,-11.74239 22.71752,-21.72736 23.20163,-22.18882 l 0.8802,-0.83902 -0.9771,-1.99227 c -2.72785,-5.56198 -8.75014,-9.18223 -15.27466,-9.18223 -5.06641,0 -9.20203,1.59535 -13.58994,5.24242 -1.82572,1.51747 -28.26349,26.7067 -35.43343,33.76006 l -1.72902,1.70091 0.96941,1.92744 c 2.53631,5.04282 6.12824,9.86996 11.20053,15.05221 l 3.05847,3.12478 2.68624,-2.62784 c 1.47744,-1.44531 12.73089,-12.23525 25.00767,-23.97764 z m -40.14285,-6.39407 c 1.18851,-1.18851 1.21428,-1.19593 1.21428,-0.34948 0,1.11989 1.3623,1.8155 2.43315,1.2424 0.40579,-0.21717 0.82483,-0.25402 0.9312,-0.0819 0.10638,0.17212 0.95392,0.29244 1.88343,0.26737 1.50018,-0.0405 1.78176,-0.18172 2.50683,-1.25765 0.96114,-1.42624 1.04275,-2.17788 0.23646,-2.17788 -0.45436,0 -0.53383,-0.2326 -0.36607,-1.07143 l 0.21429,-1.07143 -1.95536,0 c -1.15238,0 -1.95536,0.15714 -1.95536,0.38266 0,0.21045 -0.24572,0.13692 -0.54604,-0.1634 -0.53628,-0.53627 -1.33212,-0.45136 -2.22181,0.23706 -0.7055,0.54589 -0.54615,-0.46695 0.28899,-1.83679 0.68522,-1.12394 0.7637,-1.15956 1.21001,-0.54919 0.40196,0.5497 0.56673,0.57846 1.04413,0.18225 0.42649,-0.35395 0.47716,-0.63804 0.20465,-1.14723 -0.51526,-0.96279 -2.17431,-0.86335 -3.32063,0.19902 -0.87633,0.81215 -0.94501,0.82513 -0.94501,0.17857 0,-1.18625 -1.27393,-2.1258 -2.88235,-2.1258 -1.18181,0 -1.77905,0.27426 -3.19241,1.46602 -2.46541,2.07887 -3.0229,3.92422 -1.90025,6.29002 0.77489,1.63298 2.38974,2.59808 4.35001,2.59976 1.29155,0.001 1.75837,-0.20346 2.76786,-1.21295 l 0,0 z m 0.5,-10.58245 c 0.29464,-0.003 1.14827,0.0976 1.89695,0.22314 1.11814,0.18753 1.51675,0.0822 2.23214,-0.58988 0.479,-0.45 0.87091,-1.06276 0.87091,-1.36169 0,-0.36522 0.38807,-0.16739 1.18296,0.60305 l 1.18297,1.14658 0.84066,-0.89485 0.84067,-0.89485 0.64969,1.06834 c 0.75898,1.24804 1.44244,1.34885 2.373,0.35002 l 0.66921,-0.71831 0.66836,0.73854 c 1.09384,1.20867 2.91114,0.49436 3.97468,-1.56231 0.4981,-0.96321 0.4959,-1.09235 -0.0236,-1.38304 -0.31511,-0.17635 -0.57294,-0.62843 -0.57294,-1.00461 0,-1.42428 -2.8058,-1.66796 -2.87978,-0.25011 -0.0125,0.23862 -0.17451,0.0546 -0.36013,-0.4089 -0.29956,-0.74804 -0.48757,-0.8146 -1.67297,-0.59222 -0.73452,0.1378 -1.43402,0.40998 -1.55446,0.60485 -0.12222,0.19776 -0.31952,0.0923 -0.44656,-0.23877 -0.15563,-0.40558 -0.59477,-0.57298 -1.38898,-0.52948 -0.63877,0.035 -1.66398,0.0473 -2.27825,0.0274 -1.1013,-0.0357 -1.11442,-0.0576 -0.94298,-1.57866 0.20258,-1.79729 -0.58665,-2.92833 -1.81857,-2.60618 -0.40491,0.10589 -1.40971,0.0229 -2.23288,-0.18435 -1.23245,-0.31033 -1.72833,-0.26695 -2.80874,0.24574 -2.26274,1.07374 -3.27509,3.70003 -2.21582,5.74843 0.5088,0.98391 0.49901,1.08731 -0.14081,1.48688 -0.85852,0.53615 -0.89557,2.04706 -0.0626,2.55398 0.34375,0.2092 1.26786,0.29622 2.05357,0.19338 0.78572,-0.10284 1.66964,-0.1893 1.96429,-0.19214 l 0,0 z m 14.11079,-7.28891 c 1.15772,-0.48373 2.67063,-2.35611 2.67359,-3.30883 7.5e-4,-0.23661 0.43179,-0.86066 0.95791,-1.38677 0.83391,-0.83392 0.88606,-1.00814 0.40668,-1.35867 -0.66363,-0.48526 -0.35954,-1.51807 0.73745,-2.50472 1.86727,-1.67945 -0.0892,-2.23653 -2.88455,-0.82134 -1.24979,0.63272 -1.83831,0.74669 -2.57969,0.49956 -3.15229,-1.05076 -6.61275,2.30923 -5.78302,5.61512 0.11977,0.47722 0.64668,1.3774 1.17089,2.00039 1.52206,1.80887 3.0989,2.18525 5.30074,1.26526 z m 16.44399,-6.89649 c 0.677,-0.54018 1.23091,-1.06959 1.23092,-1.17648 1e-5,-0.10688 -1.12499,-0.19432 -2.49999,-0.19432 -1.375,0 -2.5,0.0757 -2.5,0.16832 0,0.16393 2.21387,2.14118 2.4298,2.1701 0.0596,0.008 0.66227,-0.42745 1.33927,-0.96762 l 0,0 z m 1.14165,-6.35882 c 1.08676,-1.23497 1.05658,-2.99602 -0.0722,-4.21403 -1.89362,-2.04325 -5.55276,-0.68353 -5.55276,2.06339 0,3.05723 3.61195,4.43821 5.625,2.15064 z"
       transform="translate(0,287.36218)"
       id="path4257"
       style="fill:none;stroke:none" />
    <path
       d="m 166.38268,-81.26188 c 0.3225,-0.64625 0.64625,-0.97 1.2925,-0.97 0.71375,0 1.29375,0.58 1.29375,1.2925 0,1.29375 -1.29375,2.5875 -2.58625,3.87875 -1.2935,-1.29125 -2.58687,-2.585 -2.58687,-3.87875 0,-0.7125 0.579,-1.2925 1.29337,-1.2925 0.646,0 0.96975,0.32375 1.2935,0.97 z m 1.15125,12.9425 0.58375,0.17875 c -0.18875,0.4875 -0.34625,0.8825 -0.48,1.1875 -0.1325,0.30125 -0.235,0.525 -0.30875,0.67 -0.3875,0.71875 -0.83,1.0775 -1.32375,1.0775 -0.2225,0 -0.41437,-0.0775 -0.57762,-0.23125 -0.16688,-0.15375 -0.2825,-0.37125 -0.34338,-0.65125 -0.1155,0.17625 -0.21475,0.32125 -0.3015,0.43625 -0.0865,0.1125 -0.17612,0.2025 -0.26937,0.26625 -0.0896,0.0612 -0.186,0.10625 -0.28525,0.12875 -0.0995,0.0225 -0.21825,0.0312 -0.356,0.0312 -0.263,0 -0.47488,-0.0888 -0.635,-0.265 -0.1605,-0.18 -0.24063,-0.415 -0.24063,-0.7025 0,-0.0875 0.0128,-0.205 0.0386,-0.35625 l 0.0309,-0.16625 c -0.0461,0.008 -0.095,0.0125 -0.14637,0.015 -0.40713,0.9725 -0.91063,1.45625 -1.50738,1.45625 -0.19875,0 -0.38475,-0.0412 -0.55487,-0.12875 -0.16963,-0.0825 -0.31738,-0.20125 -0.4425,-0.355 -0.12513,-0.15375 -0.22425,-0.33375 -0.29475,-0.545 -0.0741,-0.20875 -0.10925,-0.43625 -0.10925,-0.68 0,-0.41375 0.0706,-0.835 0.21162,-1.2575 0.141,-0.42 0.327,-0.805 0.55488,-1.145 0.231,-0.34375 0.4875,-0.61875 0.776,-0.8375 0.28875,-0.215 0.5775,-0.32375 0.866,-0.32375 0.33375,0 0.59662,0.1225 0.78588,0.36625 0.19237,0.24375 0.28837,0.58 0.28837,1.00625 0,0.33 -0.0769,0.8025 -0.2275,1.4075 0.0319,-0.0725 0.0674,-0.1625 0.10562,-0.265 0.0305,-0.0888 0.0676,-0.18625 0.10988,-0.29 l 0.5765,-2.12875 c 0.10275,0.01 0.19875,0.02 0.29838,0.0263 0.096,0.009 0.1955,0.0125 0.29475,0.0125 0.12512,0 0.24699,-0.006 0.372,-0.0188 0.12187,-0.0137 0.25337,-0.0325 0.39799,-0.0587 -0.19887,0.735 -0.37212,1.35375 -0.51349,1.86 -0.14101,0.5075 -0.2565,0.9275 -0.34613,1.26125 -0.0896,0.33 -0.1605,0.59 -0.21163,0.77875 -0.0514,0.19 -0.0867,0.3275 -0.11224,0.4175 -0.0259,0.0925 -0.0386,0.1475 -0.0419,0.17 -0.003,0.0225 -0.006,0.035 -0.006,0.0412 0.0834,-0.0125 0.17974,-0.0962 0.29199,-0.25375 0.11201,-0.1575 0.2275,-0.3625 0.34938,-0.615 0.11875,-0.25375 0.23737,-0.54625 0.35925,-0.87875 0.122,-0.33125 0.2375,-0.68 0.343,-1.0425 l 0.50712,-1.7 c 0.1025,0.0163 0.19876,0.0288 0.2975,0.0412 0.0962,0.01 0.19625,0.0163 0.295,0.0163 0.11875,0 0.2375,-0.006 0.35626,-0.0188 0.11875,-0.0125 0.24374,-0.0325 0.36875,-0.0575 l -1.11875,4.07875 c -0.0125,0.0575 -0.0263,0.1125 -0.0412,0.16375 -0.0163,0.055 -0.0263,0.11625 -0.0325,0.1825 0,0.0962 0.0125,0.14125 0.045,0.14125 0.07,0 0.14751,-0.045 0.23126,-0.14125 0.0825,-0.0925 0.17625,-0.22375 0.27499,-0.3975 0.10251,-0.17 0.20626,-0.37875 0.31125,-0.61875 0.10625,-0.24 0.215,-0.51 0.33001,-0.81125 l 0.17624,-0.4775 z m -6.08625,2.46875 c 0.31425,0 0.60588,-0.32375 0.8755,-0.96875 -0.22137,-0.1375 -0.3305,-0.3775 -0.3305,-0.725 0,-0.15 0.0226,-0.29375 0.0673,-0.42875 0.045,-0.13875 0.106,-0.26375 0.18288,-0.36875 0.0772,-0.10625 0.17012,-0.19 0.27925,-0.25375 0.10912,-0.0612 0.22737,-0.0925 0.356,-0.0925 0.0128,-0.11875 0.0191,-0.24375 0.0191,-0.37625 0,-0.25625 -0.0321,-0.4575 -0.0995,-0.6025 -0.0674,-0.14375 -0.15375,-0.215 -0.25975,-0.215 -0.0514,0 -0.096,0.0163 -0.13787,0.045 -0.0418,0.0325 -0.0864,0.0863 -0.13775,0.16625 -0.0482,0.0775 -0.106,0.18375 -0.17013,0.3175 -0.0609,0.135 -0.13462,0.30875 -0.21787,0.51375 -0.0482,0.125 -0.11238,0.3075 -0.19275,0.54875 -0.0801,0.24375 -0.15375,0.49625 -0.2275,0.7625 -0.0738,0.26625 -0.13463,0.52 -0.18925,0.76375 -0.0545,0.2475 -0.08,0.4325 -0.08,0.565 0,0.095 0.0222,0.17625 0.0672,0.24375 0.0415,0.07 0.10875,0.105 0.19562,0.105 z m -2.57525,-4.20375 c 0.0319,-0.11 0.0641,-0.2125 0.10238,-0.315 0.0386,-0.105 0.0772,-0.20875 0.11238,-0.3175 -0.388,0.42625 -0.83376,0.7375 -1.33413,0.93 -0.0737,0.22125 -0.11238,0.3975 -0.11238,0.53625 0,0.14375 0.0323,0.25625 0.0933,0.33375 0.0641,0.08 0.14099,0.1175 0.23699,0.1175 0.15413,0 0.31113,-0.11125 0.46525,-0.33375 0.15063,-0.22 0.30163,-0.5375 0.44576,-0.95125 l -0.01,0 z m -4.51887,-2.1975 c 0,0.30125 0.0579,0.58 0.16975,0.8375 0.11237,0.25375 0.2665,0.4775 0.45887,0.67 0.19563,0.18875 0.42313,0.34 0.68638,0.44875 0.26287,0.10875 0.54175,0.16375 0.83375,0.16375 l 0.0386,0 c 0.0255,-0.125 0.051,-0.24125 0.08,-0.3425 0.0288,-0.10375 0.0674,-0.2125 0.11875,-0.325 0.0482,-0.115 0.1155,-0.23625 0.19875,-0.37125 0.0865,-0.135 0.19238,-0.295 0.32388,-0.47875 l 0.50675,-0.725 c 0.1445,-0.205 0.2565,-0.3975 0.33375,-0.57625 0.08,-0.18 0.11837,-0.3625 0.11837,-0.5525 0,-0.14375 -0.0415,-0.27875 -0.12187,-0.4 -0.0834,-0.1225 -0.19563,-0.2275 -0.343,-0.32125 -0.1475,-0.09 -0.3175,-0.16 -0.51313,-0.215 -0.19237,-0.0537 -0.40425,-0.08 -0.62862,-0.08 -0.30788,0 -0.57712,0.0387 -0.81138,0.11625 -0.23737,0.0763 -0.45212,0.205 -0.6445,0.38375 0.0864,-0.0125 0.16975,-0.0225 0.25338,-0.0288 0.08,-0.006 0.16012,-0.01 0.23375,-0.01 0.21512,0 0.41387,0.0163 0.59675,0.0487 0.186,0.0325 0.36887,0.08 0.55487,0.15125 0.186,0.07 0.372,0.15625 0.55813,0.26 0.18912,0.105 0.388,0.23375 0.60262,0.38125 l -0.35575,0.52625 c -0.35925,-0.25125 -0.68949,-0.43375 -0.99425,-0.5525 -0.3015,-0.11875 -0.62212,-0.17875 -0.96237,-0.17875 -0.14413,0 -0.30463,0.0187 -0.484,0.06 -0.17638,0.0425 -0.37525,0.0962 -0.5935,0.16375 -0.0736,0.19875 -0.12825,0.375 -0.16338,0.52625 -0.0354,0.15125 -0.0514,0.28875 -0.0514,0.42 z m 1.00387,6.52625 c 0.65088,0 1.21213,-0.20875 1.68375,-0.62875 0.46813,-0.41625 0.8625,-1.01625 1.18313,-1.795 -0.0446,0.0125 -0.0896,0.0188 -0.13788,0.0188 -0.0478,0 -0.096,0 -0.14412,0 -0.18925,0 -0.3625,-0.035 -0.52263,-0.1025 -0.16049,-0.0675 -0.30162,-0.16375 -0.4235,-0.285 -0.12187,-0.1225 -0.22462,-0.26625 -0.30475,-0.43625 -0.0833,-0.1675 -0.13775,-0.35 -0.17,-0.5425 l -0.0191,0 c -0.38162,0 -0.74412,-0.0675 -1.08712,-0.2025 -0.34013,-0.13375 -0.6385,-0.32625 -0.89188,-0.57 -0.2565,-0.24375 -0.45525,-0.53625 -0.60262,-0.8725 -0.14788,-0.33625 -0.2215,-0.70875 -0.2215,-1.11625 0,-0.17625 0.0128,-0.3525 0.0386,-0.52875 -0.25975,0.17625 -0.50037,0.38125 -0.71862,0.615 -0.21788,0.23375 -0.40388,0.49375 -0.55775,0.78 -0.15413,0.285 -0.276,0.59 -0.36238,0.9175 -0.0869,0.32375 -0.1315,0.66625 -0.1315,1.0225 0,0.3875 0.0546,0.76625 0.16338,1.135 0.10912,0.36875 0.26962,0.7125 0.48112,1.03 0.20838,0.31375 0.47125,0.59625 0.78238,0.84375 0.31425,0.24625 0.67362,0.435 1.08112,0.5675 0.282,0.0987 0.57713,0.15 0.88188,0.15 z m -4.10212,-3.935 c 0,-0.45875 0.0641,-0.895 0.18925,-1.305 0.12512,-0.41375 0.30788,-0.79875 0.55487,-1.15125 0.24375,-0.3525 0.54538,-0.6675 0.90138,-0.94375 0.359,-0.275 0.76963,-0.50625 1.23137,-0.695 0.558,-0.92 1.38538,-1.38 2.48238,-1.38 0.3785,0 0.7215,0.0612 1.02938,0.18 0.31112,0.11875 0.57724,0.28 0.80187,0.47875 0.22137,0.19875 0.39437,0.42875 0.51625,0.6925 0.12187,0.2625 0.18287,0.53875 0.18287,0.8275 0,0.28125 -0.0643,0.5925 -0.18925,0.93625 -0.12512,0.34 -0.31425,0.7025 -0.5645,1.08375 l -0.0927,0.14125 c 0.1665,-0.1375 0.36213,-0.33 0.58038,-0.58375 l 0.35925,0.25625 c 0.13787,-0.37875 0.32387,-0.7375 0.55812,-1.08 0.23375,-0.3475 0.4935,-0.65125 0.77588,-0.9175 0.27887,-0.26625 0.57725,-0.4775 0.89162,-0.63875 0.31425,-0.16 0.61575,-0.24 0.91088,-0.24 0.14425,0 0.29162,0.0188 0.44262,0.06 0.15063,0.0425 0.28525,0.1 0.40713,0.18375 0.12187,0.08 0.2215,0.1825 0.3015,0.30125 0.0769,0.12125 0.11875,0.2625 0.11875,0.42625 0,0.18 -0.061,0.33 -0.17963,0.44875 -0.11875,0.11875 -0.25974,0.1775 -0.4235,0.1775 -0.16337,0 -0.30112,-0.055 -0.4135,-0.16375 -0.11225,-0.11 -0.17012,-0.24375 -0.17012,-0.4075 0,-0.0487 0.003,-0.0875 0.006,-0.1125 0.003,-0.0225 0.007,-0.0488 0.0129,-0.0738 0.013,-0.0613 0.0194,-0.10875 0.0194,-0.14125 0,-0.0412 -0.0672,-0.0637 -0.2055,-0.0637 -0.20824,0 -0.41024,0.07 -0.61224,0.21125 -0.19913,0.14125 -0.38513,0.33 -0.558,0.57125 -0.17338,0.24 -0.32751,0.525 -0.46213,0.8525 -0.13462,0.33125 -0.24062,0.68375 -0.32387,1.05875 l -0.20513,1.0675 c -0.11875,0.6 -0.26925,1.12625 -0.45212,1.57875 -0.17963,0.44875 -0.39151,0.84 -0.62863,1.17 -0.23737,0.33375 -0.5035,0.6125 -0.79538,0.84 -0.292,0.2275 -0.60949,0.42 -0.9525,0.5775 -0.27599,0.11875 -0.56437,0.20875 -0.85962,0.2725 -0.29838,0.0612 -0.58675,0.0937 -0.86275,0.0937 -0.58038,0 -1.13525,-0.11875 -1.65788,-0.35375 -0.523,-0.23375 -0.9815,-0.5575 -1.37587,-0.97125 -0.39763,-0.41375 -0.70875,-0.8975 -0.94288,-1.4525 -0.23112,-0.55875 -0.34662,-1.16125 -0.34662,-1.8125 z m 23.46737,-11.685 c -0.0763,0 -0.1625,0.0838 -0.2625,0.25375 -0.0987,0.17 -0.2025,0.38125 -0.305,0.635 -0.10499,0.25375 -0.20124,0.52625 -0.29124,0.82125 -0.0937,0.295 -0.16751,0.57125 -0.23126,0.8275 0.2375,-0.045 0.4425,-0.17 0.61625,-0.375 0.1725,-0.20875 0.32,-0.5325 0.445,-0.97875 0.10625,-0.375 0.16,-0.68 0.16,-0.91 0,-0.18375 -0.0438,-0.27375 -0.13125,-0.27375 z m 1.32125,1.54375 0.565,0.17625 c -0.40749,1.01625 -0.8625,1.75375 -1.37249,2.21625 -0.50751,0.46125 -1.02626,0.6925 -1.55501,0.6925 -0.20875,0 -0.39875,-0.0425 -0.57499,-0.125 -0.17626,-0.0863 -0.32751,-0.2025 -0.45876,-0.35 -0.13124,-0.1475 -0.23375,-0.32125 -0.31125,-0.52625 -0.0737,-0.20125 -0.11124,-0.42625 -0.11124,-0.67 0,-0.15375 0.0112,-0.31 0.035,-0.47125 l -0.0613,0.002 c -0.0312,0 -0.0675,-0.002 -0.10876,-0.009 -0.0412,-0.006 -0.0837,-0.0163 -0.125,-0.0288 -0.31375,0.75 -0.63125,1.30125 -0.95624,1.65125 -0.32626,0.35 -0.67001,0.52625 -1.03501,0.52625 -0.14749,0 -0.2925,-0.0362 -0.42999,-0.11 -0.1375,-0.07 -0.26,-0.1625 -0.36251,-0.27875 -0.10249,-0.115 -0.18625,-0.25 -0.25,-0.4 -0.0613,-0.1475 -0.0937,-0.30125 -0.0937,-0.45875 0,-0.11875 0.0163,-0.27 0.0488,-0.44875 0.0287,-0.18375 0.08,-0.405 0.14749,-0.6675 l 0.7925,-2.8325 c 0.185,0.0387 0.37125,0.0588 0.55125,0.0588 0.1275,0 0.25,-0.01 0.3725,-0.0325 0.12125,-0.02 0.25625,-0.0487 0.4,-0.0838 l -1.09999,3.96375 c -0.0313,0.11 -0.0538,0.2 -0.07,0.28 -0.0163,0.0762 -0.0225,0.1275 -0.0225,0.15375 0,0.0387 0.0125,0.08 0.0412,0.13125 0.0288,0.0513 0.0675,0.0738 0.11625,0.0738 0.0763,0 0.17,-0.0512 0.28125,-0.1575 0.11251,-0.10625 0.23125,-0.24625 0.35375,-0.42375 0.12125,-0.175 0.24375,-0.37125 0.36126,-0.58625 0.11875,-0.2175 0.22499,-0.43625 0.32124,-0.66375 -0.125,-0.16375 -0.21124,-0.32375 -0.25999,-0.4875 -0.0475,-0.16375 -0.07,-0.35 -0.07,-0.56375 0,-0.23125 0.025,-0.4525 0.0737,-0.66125 0.0513,-0.21125 0.11875,-0.395 0.20125,-0.555 0.0837,-0.16 0.18375,-0.28875 0.2925,-0.38125 0.10874,-0.0937 0.22125,-0.14125 0.34,-0.14125 0.14374,0 0.26249,0.0575 0.35624,0.1725 0.0925,0.11625 0.14,0.28875 0.14,0.52 0,0.2025 -0.0212,0.46125 -0.07,0.785 -0.045,0.32125 -0.13125,0.66125 -0.25625,1.0175 0.0125,0.006 0.0288,0.01 0.045,0.01 0.0675,-0.0163 0.15124,-0.0875 0.25124,-0.21625 0.0362,-0.10125 0.0762,-0.2025 0.12,-0.30375 0.11625,-0.26625 0.25,-0.52 0.40125,-0.7575 0.15375,-0.23625 0.3175,-0.445 0.49375,-0.62125 0.17626,-0.18 0.35625,-0.32125 0.545,-0.42625 0.18626,-0.10625 0.3725,-0.16125 0.5525,-0.16125 0.17,0 0.32,0.035 0.45501,0.1025 0.13499,0.0713 0.25,0.16 0.3425,0.27625 0.0937,0.115 0.16375,0.25375 0.21249,0.41375 0.0475,0.16 0.07,0.33375 0.07,0.52 0,0.67875 -0.18875,1.24125 -0.56375,1.67625 -0.37625,0.43625 -0.91125,0.7 -1.61376,0.78625 -0.0187,0.15125 -0.0287,0.27 -0.0287,0.35625 0,0.33625 0.1,0.50625 0.30125,0.50625 0.145,0 0.30875,-0.045 0.4975,-0.13125 0.18875,-0.0863 0.37875,-0.2175 0.5675,-0.395 0.19249,-0.17625 0.37875,-0.3975 0.565,-0.66375 0.1825,-0.26625 0.34624,-0.57375 0.48999,-0.92375 l 0.16,-0.355 z m -17.32074,1.02625 c -0.0736,0.006 -0.1155,0.0125 -0.12188,0.0188 -0.006,0.006 -0.006,0.01 0,0.0125 0.006,0.004 0.006,0.006 0,0.006 -0.006,0 -0.045,-0.009 -0.11225,-0.0288 l 0.20513,0.1125 0.0481,-0.1125 c -0.006,0 -0.01,-0.002 -0.01,-0.006 0,-0.003 -0.003,-0.003 -0.01,-0.003 z m -2.08488,1.5775 c 0.34975,0 0.67037,-0.0775 0.95925,-0.23125 0.28525,-0.15375 0.5385,-0.3775 0.75037,-0.66625 -0.26287,-0.1575 -0.47787,-0.2825 -0.648,-0.3725 -0.16975,-0.0925 -0.3175,-0.16 -0.44262,-0.20875 -0.125,-0.0475 -0.24375,-0.08 -0.3525,-0.0962 -0.10913,-0.0163 -0.23738,-0.0225 -0.38837,-0.0225 -0.15701,0 -0.30438,0.02 -0.4425,0.0613 -0.13788,0.0412 -0.25663,0.0962 -0.35575,0.16625 -0.10276,0.0675 -0.17963,0.1475 -0.23738,0.24125 -0.0546,0.09 -0.0834,0.18875 -0.0834,0.2975 0,0.1125 0.0319,0.21875 0.0992,0.32125 0.0641,0.1 0.15412,0.18875 0.26612,0.2625 0.11225,0.0775 0.247,0.13875 0.39475,0.18 0.1505,0.045 0.311,0.0675 0.48075,0.0675 z m 4.32637,-3.955 c -0.0641,0.2575 -0.11512,0.475 -0.15687,0.65125 -0.0419,0.18 -0.0933,0.37875 -0.15425,0.59625 0.0677,-0.0312 0.13187,-0.0637 0.18612,-0.0987 0.0577,-0.035 0.1155,-0.0737 0.17638,-0.12125 0.0577,-0.045 0.12512,-0.10375 0.19562,-0.1675 0.074,-0.0675 0.16375,-0.1475 0.26963,-0.24 0.27575,-0.26375 0.529,-0.56125 0.76325,-0.895 0.231,-0.3375 0.42975,-0.68625 0.59637,-1.0525 0.16688,-0.365 0.29513,-0.74125 0.38513,-1.125 0.0929,-0.385 0.13787,-0.76375 0.13787,-1.13875 0,-0.6125 -0.13787,-0.92125 -0.41387,-0.92125 -0.11238,0 -0.21788,0.0325 -0.31113,0.1 -0.0929,0.0637 -0.19562,0.17 -0.3015,0.315 0.045,0.0537 0.09,0.1175 0.13813,0.19125 0.0446,0.0713 0.096,0.155 0.15375,0.25375 0.0577,0.0962 0.11875,0.20875 0.18287,0.34 0.0674,0.13125 0.14425,0.2925 0.231,0.48125 l -0.58387,0.25375 -0.16975,-0.36 c -0.0481,-0.0925 -0.10275,-0.18625 -0.15413,-0.27875 -0.0546,-0.0962 -0.106,-0.18 -0.157,-0.25375 -0.0545,0.1125 -0.11225,0.24125 -0.17325,0.38875 -0.0577,0.1475 -0.12825,0.35 -0.20512,0.60625 -0.0805,0.25625 -0.17013,0.58 -0.26963,0.975 -0.0992,0.39375 -0.22112,0.895 -0.36575,1.5 z m -1.95937,1.7425 0.0964,-0.25375 c 0.035,-0.10625 0.0769,-0.21125 0.1155,-0.315 0.0415,-0.1025 0.0769,-0.205 0.10874,-0.30375 l -0.009,0 0.60299,-2.005 c 0.13788,-0.45875 0.25976,-0.83625 0.36563,-1.14125 0.10563,-0.30125 0.21163,-0.565 0.31438,-0.78625 0.10237,-0.22125 0.2115,-0.42 0.33025,-0.59 0.1155,-0.1725 0.25012,-0.35875 0.40712,-0.5575 -0.28212,-0.21875 -0.57725,-0.37875 -0.882,-0.47875 -0.30788,-0.0987 -0.63175,-0.15 -0.96837,-0.15 -0.47163,0 -0.92376,0.0962 -1.35988,0.29125 -0.433,0.1925 -0.81788,0.45625 -1.15438,0.78625 -0.33387,0.33 -0.60312,0.72125 -0.80825,1.17375 -0.202,0.44875 -0.30475,0.93 -0.30475,1.44375 0,0.38125 0.0705,0.74375 0.21476,1.09 0.1445,0.34625 0.3465,0.65375 0.60299,0.92 0.25663,0.26625 0.56125,0.47875 0.911,0.635 0.34938,0.16125 0.73425,0.24125 1.14488,0.24125 l 0.2725,0 z m 3.18475,-0.8925 c -0.30163,0.305 -0.58688,0.5525 -0.85963,0.735 -0.2725,0.18625 -0.58362,0.34625 -0.9365,0.48375 -0.17612,0.40125 -0.404,0.77 -0.68637,1.10625 0.20875,0.10625 0.3915,0.19 0.55487,0.245 0.16375,0.0575 0.3175,0.0987 0.46201,0.12125 0.14424,0.025 0.28524,0.0412 0.42312,0.045 0.13813,0.002 0.27925,0.002 0.42975,0.002 0.21512,0 0.41712,-0.0225 0.60625,-0.07 0.1925,-0.0475 0.35937,-0.10875 0.50037,-0.18875 0.13788,-0.0775 0.25013,-0.17 0.33338,-0.27625 0.0801,-0.10625 0.122,-0.22125 0.122,-0.34 0,-0.0187 0.003,-0.0288 0.01,-0.0288 l -0.12188,-0.055 c -0.31425,-0.15625 -0.47125,-0.40625 -0.47125,-0.75375 0,-0.0925 0.0191,-0.185 0.0577,-0.28125 0.035,-0.0937 0.0865,-0.1775 0.15375,-0.25375 0.0641,-0.0737 0.14101,-0.135 0.231,-0.1825 0.0865,-0.0487 0.1765,-0.0712 0.2725,-0.0712 0.21826,0 0.39476,0.0863 0.52626,0.26 0.13137,0.1725 0.1955,0.3975 0.1955,0.68375 0,0.455 -0.15413,0.92 -0.45888,1.39125 l 0,-0.01 c -0.51937,0.79875 -1.183,1.19625 -1.98487,1.19625 -0.18288,0 -0.35613,-0.0125 -0.523,-0.0375 -0.16651,-0.0263 -0.33988,-0.0713 -0.52263,-0.14125 -0.18287,-0.0675 -0.3785,-0.16375 -0.58675,-0.2825 -0.212,-0.11875 -0.449,-0.27625 -0.71225,-0.46875 -0.38162,0.31125 -0.7855,0.5425 -1.21212,0.69 -0.42663,0.1475 -0.88838,0.22125 -1.3855,0.22125 -0.25013,0 -0.49075,-0.0387 -0.715,-0.1125 -0.22463,-0.0775 -0.4235,-0.17875 -0.59351,-0.31125 -0.17012,-0.13125 -0.30474,-0.285 -0.40399,-0.46125 -0.0995,-0.17375 -0.15088,-0.3625 -0.15088,-0.56125 0,-0.20875 0.045,-0.3975 0.13775,-0.57125 0.09,-0.17 0.21513,-0.32125 0.36888,-0.44625 0.15737,-0.125 0.34337,-0.22375 0.55812,-0.295 0.21188,-0.0737 0.43938,-0.10875 0.68638,-0.10875 0.0354,0 0.0705,0 0.10275,0 0.0319,0 0.0673,0.004 0.10237,0.006 -0.23712,-0.17 -0.449,-0.36875 -0.64137,-0.5925 -0.18925,-0.225 -0.35613,-0.47125 -0.49388,-0.7375 -0.14112,-0.26625 -0.25025,-0.5525 -0.32387,-0.86 -0.0737,-0.305 -0.11238,-0.62875 -0.11238,-0.965 0,-0.4875 0.0996,-0.975 0.29513,-1.46 0.19887,-0.4875 0.48437,-0.92 0.8565,-1.30125 0.372,-0.3825 0.82412,-0.69375 1.35312,-0.93 0.52938,-0.2375 1.12888,-0.35625 1.793,-0.35625 0.44888,0 0.86588,0.07 1.25075,0.215 0.38163,0.14375 0.7505,0.3425 1.10663,0.6 0.18237,-0.15125 0.37487,-0.27 0.58037,-0.35625 0.20188,-0.0875 0.40075,-0.1325 0.59625,-0.1325 0.388,0 0.68638,0.155 0.89825,0.46625 0.20838,0.3075 0.31437,0.73375 0.31437,1.27 0,0.3075 -0.0355,0.6275 -0.10287,0.9675 -0.0705,0.3375 -0.17963,0.68625 -0.33338,1.04875 -0.15412,0.3625 -0.35925,0.735 -0.61262,1.11 -0.25337,0.375 -0.5645,0.75375 -0.93325,1.135 z m 11.75137,-9.455 c 0,0.18375 0.0312,0.3475 0.0925,0.48875 0.0125,-0.0487 0.02,-0.0962 0.02,-0.13875 0,-0.045 0,-0.0863 0,-0.125 0,-0.125 -0.007,-0.24 -0.02,-0.34625 -0.0125,-0.10625 -0.0312,-0.21125 -0.0538,-0.32125 -0.0138,0.0712 -0.0225,0.14125 -0.0288,0.21875 -0.006,0.0737 -0.01,0.15 -0.01,0.22375 z m 0.77,0.35625 c 0,0.0838 -0.01,0.2025 -0.0288,0.36 0.34625,-0.87875 0.6825,-1.65875 1.01626,-2.345 0.32999,-0.68625 0.69874,-1.24375 1.10624,-1.6775 -0.54874,0.17 -1.02249,0.42 -1.41999,0.7575 -0.39875,0.33375 -0.74125,0.75625 -1.03,1.26375 0.13125,0.25625 0.22375,0.51 0.27625,0.76625 0.0537,0.25375 0.08,0.545 0.08,0.875 z m -1.28624,3.48375 c 0.12124,-0.17 0.23999,-0.385 0.3625,-0.64875 0.12124,-0.2625 0.24625,-0.57 0.37124,-0.92 -0.16999,0.285 -0.3525,0.51 -0.555,0.67 -0.19875,0.16125 -0.43874,0.30875 -0.71499,0.44625 l 0.01,0 c -0.38125,0.2025 -0.82125,0.30125 -1.315,0.30125 -0.3425,0 -0.6675,-0.0637 -0.97125,-0.18875 -0.305,-0.12875 -0.57125,-0.3025 -0.79875,-0.52 -0.2275,-0.22125 -0.41125,-0.4775 -0.545,-0.7725 -0.135,-0.295 -0.2025,-0.61 -0.2025,-0.95 0,-0.3625 0.0862,-0.71125 0.25625,-1.0425 l 0.6125,0.17 c -0.14375,0.28875 -0.215,0.58125 -0.215,0.8825 0,0.2375 0.0488,0.46125 0.14125,0.67375 0.0937,0.20875 0.22125,0.39375 0.385,0.55125 0.16375,0.16 0.3525,0.28875 0.57375,0.38125 0.21875,0.0937 0.45,0.14125 0.69375,0.14125 0.23375,0 0.46125,-0.045 0.6925,-0.135 0.2275,-0.0925 0.445,-0.2175 0.65125,-0.3775 0.20875,-0.1575 0.39375,-0.34375 0.56375,-0.55875 0.17,-0.21125 0.3075,-0.43875 0.41375,-0.6825 -0.32,-0.25 -0.555,-0.52875 -0.70875,-0.83125 -0.15375,-0.30375 -0.23125,-0.6575 -0.23125,-1.0575 0,-0.1925 0.02,-0.3825 0.0613,-0.56125 0.0425,-0.18375 0.11874,-0.3725 0.23124,-0.565 -0.25625,-0.2375 -0.5325,-0.4075 -0.82749,-0.50625 -0.29126,-0.1 -0.625,-0.15125 -0.99376,-0.15125 -0.46875,0 -0.9275,0.1025 -1.3725,0.31125 -0.45,0.205 -0.84375,0.4875 -1.1875,0.84375 -0.3425,0.35875 -0.62125,0.77625 -0.83,1.25 -0.20875,0.47875 -0.315,0.985 -0.315,1.52375 0,0.4875 0.09,0.95875 0.27,1.415 0.18,0.45125 0.42625,0.8525 0.74125,1.19625 0.31376,0.34625 0.67875,0.62125 1.09875,0.82625 0.42125,0.20875 0.87001,0.31125 1.35375,0.31125 0.45625,0 0.8725,-0.115 1.2475,-0.34625 0.37625,-0.23375 0.72875,-0.5925 1.05251,-1.08 z m 2.35749,-2.19125 c -0.10624,0.58375 -0.23749,1.0775 -0.39125,1.48875 -0.15125,0.41 -0.33375,0.76375 -0.54625,1.06125 -0.2075,0.29875 -0.445,0.54875 -0.71125,0.75625 -0.26625,0.20625 -0.5675,0.395 -0.9075,0.56125 -0.5775,0.2825 -1.21,0.42375 -1.89875,0.42375 -0.59375,0 -1.1575,-0.115 -1.6875,-0.34625 -0.52875,-0.23375 -0.99375,-0.55125 -1.395,-0.95625 -0.40125,-0.40375 -0.715,-0.88125 -0.94875,-1.43625 -0.23125,-0.555 -0.34625,-1.155 -0.34625,-1.8025 0,-0.375 0.0512,-0.74375 0.15,-1.11 0.1,-0.3625 0.24375,-0.7075 0.42625,-1.035 0.18625,-0.33125 0.4075,-0.635 0.6675,-0.9175 0.26001,-0.2825 0.5525,-0.52625 0.87625,-0.72875 0.32,-0.205 0.67,-0.365 1.04251,-0.48 0.37124,-0.11625 0.76624,-0.17375 1.17874,-0.17375 0.43,0 0.84375,0.0675 1.23875,0.2025 0.39375,0.135 0.74375,0.32625 1.045,0.5775 0.4625,-0.53875 1.1,-0.9725 1.915,-1.29625 0.815,-0.3275 1.8125,-0.5325 2.98875,-0.61875 l 0,0.6 c -0.28125,0.0962 -0.54125,0.2375 -0.77625,0.42875 -0.23375,0.19 -0.455,0.4525 -0.65749,0.78625 -0.20126,0.33625 -0.39376,0.75125 -0.5675,1.24375 -0.17625,0.4975 -0.3425,1.09125 -0.49625,1.7875 0.22375,-0.19 0.45124,-0.50125 0.6825,-0.94 l 0.58374,0.24375 c -0.11874,0.22375 -0.23124,0.42 -0.33374,0.58375 -0.1025,0.16 -0.21125,0.30125 -0.32375,0.41625 -0.1125,0.11625 -0.23125,0.215 -0.35625,0.295 -0.1275,0.0813 -0.26875,0.16125 -0.4325,0.235 l -0.0188,0.15 z m 12.61375,72.92 c 7.84875,-4.8675 15.215,-9.89125 21.6575,-16.055 4.805,-4.68625 8.78125,-9.475 12.1925,-15.235 6.61875,-11.165 9.11625,-24.3175 4.94625,-36.84625 -4.67,-14.03375 -20.36625,-19.205 -32.60625,-11.73 3.33375,-4.9225 -0.14875,-11.70375 -6.19,-11.73625 -6.04125,0.0325 -9.52375,6.81375 -6.19125,11.73625 -12.24,-7.475 -27.93487,-2.30375 -32.60562,11.73 -4.16938,12.52875 -1.67213,25.68125 4.94612,36.84625 3.41188,5.76 7.38813,10.54875 12.192,15.235 6.44375,6.16375 13.80875,11.1875 21.65875,16.055 z m 0,-81.09875 c -1.645,0 -2.9775,-1.3325 -2.9775,-2.9775 0,-1.64375 1.3325,-2.9775 2.9775,-2.9775 1.64375,0 2.9775,1.33375 2.9775,2.9775 0,1.645 -1.33374,2.9775 -2.9775,2.9775 z m 0,6.08125 c -0.645,-0.64625 -1.34125,-1.25375 -2.0775,-1.82875 0.67375,0.19375 1.37625,0.295 2.0775,0.295 0.70125,0 1.4025,-0.10125 2.07625,-0.295 -0.73625,0.575 -1.43125,1.1825 -2.07625,1.82875 z m -13.87624,59.775 49.33375,-47.30875 c 5.15625,24.94375 -16.03626,45.3625 -35.47501,57.15625 -5.06875,-3.1425 -9.06,-5.805 -13.85875,-9.8475 z m 47.85624,-52.4175 -51.39125,49.2825 c -6.11287,-5.7125 -11.40312,-12.29375 -14.80425,-19.5275 l 33.88925,-32.5625 c 3.01625,-2.8325 5.77625,-5.295 9.755,-6.965 9.15501,-3.18875 18.98625,0.47 22.55125,9.7725 z m -31.43875,40.6 c -0.325,-0.64875 -0.65,-0.9725 -1.29875,-0.9725 -0.7175,0 -1.29875,0.58125 -1.29875,1.2975 0,1.29875 1.29875,2.5975 2.5975,3.895 1.29875,-1.2975 2.59625,-2.59625 2.59625,-3.895 0,-0.71625 -0.58125,-1.2975 -1.2975,-1.2975 -0.65,0 -0.975,0.32375 -1.29875,0.9725 z m 18.92625,-7.9975 c -0.725,-1.44875 -1.45,-2.1725 -2.9,-2.1725 -1.60125,0 -2.89875,1.2975 -2.89875,2.8975 0,2.89875 2.89875,5.79875 5.79875,8.69625 2.89875,-2.8975 5.7975,-5.7975 5.7975,-8.69625 0,-1.6 -1.2975,-2.8975 -2.89875,-2.8975 -1.44875,0 -2.17375,0.72375 -2.89875,2.1725 z m -1.285,-8.63375 c -0.395,-0.79 -0.79,-1.18375 -1.58125,-1.18375 -0.8725,0 -1.58125,0.7075 -1.58125,1.57875 0,1.58125 1.58125,3.1625 3.1625,4.7425 1.58125,-1.58 3.16125,-3.16125 3.16125,-4.7425 0,-0.87125 -0.7075,-1.57875 -1.58,-1.57875 -0.79125,0 -1.18625,0.39375 -1.58125,1.18375 z m 8.8525,-4.70125 c -0.56375,-1.13 -1.12875,-1.69375 -2.2575,-1.69375 -1.2475,0 -2.25875,1.01125 -2.25875,2.2575 0,2.2575 2.25875,4.5175 4.51625,6.77375 2.25875,-2.25625 4.5175,-4.51625 4.5175,-6.77375 0,-1.24625 -1.01125,-2.2575 -2.25875,-2.2575 -1.12875,0 -1.69375,0.56375 -2.25875,1.69375 z m 3.64,-8.13125 c -0.32375,-0.65 -0.64875,-0.97375 -1.2975,-0.97375 -0.7175,0 -1.29875,0.58125 -1.29875,1.2975 0,1.29875 1.29875,2.5975 2.59625,3.895 1.29875,-1.2975 2.5975,-2.59625 2.5975,-3.895 0,-0.71625 -0.58125,-1.2975 -1.29875,-1.2975 -0.64875,0 -0.97375,0.32375 -1.29875,0.97375 z m -32.73125,37.425 c -0.8675,-1.735 -1.73625,-2.6025 -3.47125,-2.6025 -1.9175,0 -3.47125,1.55375 -3.47125,3.47 0,3.47 3.47125,6.9425 6.9425,10.41125 3.47125,-3.46875 6.9425,-6.94125 6.9425,-10.41125 0,-1.91625 -1.55375,-3.47 -3.47125,-3.47 -1.735,0 -2.60375,0.8675 -3.47125,2.6025 z m 13.0075,-2.90125 c -0.39625,-0.79 -0.79125,-1.185 -1.58125,-1.185 -0.8725,0 -1.58125,0.7075 -1.58125,1.57875 0,1.58125 1.58125,3.1625 3.1625,4.7425 1.58,-1.58 3.16125,-3.16125 3.16125,-4.7425 0,-0.87125 -0.70749,-1.57875 -1.58125,-1.57875 -0.79,0 -1.185,0.395 -1.58,1.185 z m -3.1925,-10.115 c -0.565,-1.12875 -1.13,-1.6925 -2.25875,-1.6925 -1.2475,0 -2.25874,1.01125 -2.25874,2.2575 0,2.2575 2.25874,4.5175 4.51749,6.77375 2.25876,-2.25625 4.51626,-4.51625 4.51626,-6.77375 0,-1.24625 -1.01125,-2.2575 -2.25751,-2.2575 -1.13,0 -1.695,0.56375 -2.25875,1.6925 z"
       transform="translate(0,287.36218)"
       id="path3091-4-1-1"
       style="fill:#eace96;fill-opacity:1;stroke:none;display:inline;filter:url(#filter4646-1-8)" />
  </g>
</svg>
