<?xml version="1.0" encoding="UTF-8"?>
<!DOCTYPE svg PUBLIC "-//W3C//DTD SVG 1.1//EN" "http://www.w3.org/Graphics/SVG/1.1/DTD/svg11.dtd">
<!-- Creator: CorelDRAW -->
<svg xmlns="http://www.w3.org/2000/svg" xml:space="preserve" width="500px" height="600px" style="shape-rendering:geometricPrecision; text-rendering:geometricPrecision; image-rendering:optimizeQuality; fill-rule:evenodd; clip-rule:evenodd"
viewBox="0 0 500 600.002"
 xmlns:xlink="http://www.w3.org/1999/xlink">
 <defs>
  <style type="text/css">
   <![CDATA[
    .str1 {stroke:#373435;stroke-width:4.16694}
    .str0 {stroke:#373435;stroke-width:4.16694;stroke-linecap:round;stroke-linejoin:round}
    .fil4 {fill:none;fill-rule:nonzero}
    .fil2 {fill:#373435}
    .fil0 {fill:#FEFEFE}
    .fil1 {fill:#373435;fill-rule:nonzero}
    .fil3 {fill:#FEFEFE;fill-rule:nonzero}
   ]]>
  </style>
 </defs>
 <g id="Layer_x0020_1">
  <metadata id="CorelCorpID_0Corel-Layer"/>
  <g id="_195179728">
   <path id="_195178792" class="fil0 str0" d="M257 400.201l110.4 0 85.8003 -84.3003 -204.001 -242.101 -209.401 234.901 78.6002 91.5003 110.4 0c-9.30003,5.10002 -15.6,14.7 -15.6,26.1001 0,16.2001 13.2,29.4001 29.7001,29.4001 16.2001,0 29.4001,-13.2 29.4001,-29.4001 0,-11.4 -6.30002,-21.0001 -15.3,-26.1001z"/>
   <g>
    <polygon id="_195178744" class="fil0" points="129.2,376.501 357.501,376.501 421.101,314.401 248.6,110.1 71.2998,309.001 "/>
    <path id="_1" class="fil1" d="M357.501 369.301l5.10002 12.3 -5.10002 2.10001 -228.301 0 0 -14.4 228.301 0zm0 0l0.600002 0 0.300001 0 0.300001 0 0.300001 0.300001 0.300001 0 0.300001 0 0.600002 0.300001 0.300001 0 0.300001 0.300001 0.300001 0 0.300001 0.300001 0.300001 0 0.300001 0.300001 0.300001 0.300001 0 0 0.300001 0.300001 0.300001 0.300001 0.300001 0.300001 0 0.300001 0.300001 0.300001 0.300001 0.300001 0 0.300001 0.300001 0.300001 0 0.300001 0.300001 0.300001 0 0.300001 0 0.300001 0.300001 0.300001 0 0.600002 0 0.300001 0 0.300001 0 0.300001 0 0.300001 0 0.600002 0 0.300001 0 0.300001 -0.300001 0.300001 0 0.300001 0 0.300001 -0.300001 0.300001 0 0.600002 -0.300001 0.300001 0 0.300001 -0.300001 0.300001 -0.300001 0 0 0.300001 -0.300001 0.300001 -0.300001 0.300001 -0.300001 0.300001 0 0.300001 -0.300001 0 -0.300001 0.300001 -0.300001 0.300001 -0.300001 0 -0.300001 0.300001 -0.300001 0 -0.300001 0.300001 -0.600002 0 -0.300001 0 -0.300001 0.300001 -0.300001 0 -0.300001 0 -0.300001 0 -0.600002 0 0 -14.4zm58.5002 -60.0002l10.5 0.300001 -0.600002 9.90003 -63.3002 62.1002 -9.90003 -10.2 63.3002 -62.1002zm0 0l0.300001 -0.300001 0.300001 -0.300001 0.300001 -0.300001 0.300001 0 0.300001 -0.300001 0.300001 -0.300001 0.300001 0 0.300001 0 0.300001 -0.300001 0.300001 0 0.300001 -0.300001 0.300001 0 0.600002 0 0.300001 0 0.300001 0 0.300001 0 0.300001 0 0.300001 0 0.300001 0 0.600002 0 0.300001 0.300001 0.300001 0 0.300001 0 0.300001 0.300001 0.300001 0 0.300001 0.300001 0.300001 0 0.300001 0.300001 0.300001 0.300001 0.300001 0 0.300001 0.300001 0.300001 0.300001 0.300001 0.300001 0 0.300001 0.300001 0.300001 0.300001 0.300001 0 0.300001 0.300001 0.300001 0.300001 0.300001 0 0.300001 0 0.300001 0.300001 0.300001 0 0.300001 0 0.300001 0 0.600002 0.300001 0.300001 0 0.300001 0 0.300001 0 0.300001 0 0.300001 -0.300001 0.300001 0 0.600002 0 0.300001 0 0.300001 -0.300001 0.300001 0 0.300001 -0.300001 0.300001 0 0.300001 -0.300001 0.300001 0 0.300001 -0.300001 0.300001 -0.300001 0.300001 -0.300001 0.300001 -0.300001 0.300001 -9.90003 -10.2zm-172.801 -194.701l0 -9.30003 11.1 0 172.201 204.301 -11.1 9.30003 -172.201 -204.301zm0 0l-0.300001 -0.300001 -0.300001 -0.300001 0 -0.300001 -0.300001 -0.300001 0 -0.300001 -0.300001 -0.300001 0 -0.300001 -0.300001 -0.300001 0 -0.300001 0 -0.300001 0 -0.300001 -0.300001 -0.600002 0 -0.300001 0 -0.300001 0 -0.300001 0 -0.300001 0.300001 -0.300001 0 -0.300001 0 -0.600002 0 -0.300001 0.300001 -0.300001 0 -0.300001 0 -0.300001 0.300001 -0.300001 0 -0.300001 0.300001 -0.300001 0.300001 -0.300001 0 -0.300001 0.300001 -0.300001 0.300001 -0.300001 0.300001 -0.300001 0.300001 0 0.300001 -0.300001 0.300001 -0.300001 0.300001 -0.300001 0.300001 0 0.300001 -0.300001 0.300001 0 0.300001 -0.300001 0.300001 0 0.300001 0 0.300001 -0.300001 0.600002 0 0.300001 0 0.300001 0 0.300001 0 0.300001 0 0.300001 0 0.300001 0 0.600002 0 0.300001 0.300001 0.300001 0 0.300001 0 0.300001 0.300001 0.300001 0 0.300001 0.300001 0.300001 0 0.300001 0.300001 0.300001 0 0.300001 0.300001 0.300001 0.300001 0.300001 0.300001 0.300001 0.300001 0.300001 0 -11.1 9.30003zm-166.501 199.201l-10.8 0 0 -9.60003 177.301 -198.901 10.8 9.60003 -177.301 198.901zm0 0l-0.300001 0.300001 -0.300001 0.300001 -0.300001 0.300001 -0.300001 0 -0.300001 0.300001 -0.300001 0.300001 -0.300001 0 -0.300001 0.300001 -0.300001 0 -0.300001 0.300001 -0.300001 0 -0.300001 0 -0.300001 0.300001 -0.300001 0 -0.300001 0 -0.600002 0 -0.300001 0 -0.300001 0 -0.300001 0 -0.300001 0 -0.300001 0 -0.300001 -0.300001 -0.600002 0 -0.300001 0 -0.300001 -0.300001 -0.300001 0 -0.300001 -0.300001 -0.300001 0 -0.300001 -0.300001 -0.300001 -0.300001 -0.300001 0 -0.300001 -0.300001 -0.300001 -0.300001 -0.300001 -0.300001 0 -0.300001 -0.300001 -0.300001 -0.300001 -0.300001 0 -0.300001 -0.300001 -0.300001 -0.300001 -0.300001 0 -0.300001 0 -0.300001 -0.300001 -0.300001 0 -0.300001 0 -0.300001 -0.300001 -0.300001 0 -0.300001 0 -0.600002 0 -0.300001 0 -0.300001 0 -0.300001 0 -0.300001 0.300001 -0.300001 0 -0.300001 0 -0.600002 0 -0.300001 0.300001 -0.300001 0 -0.300001 0.300001 -0.300001 0 -0.300001 0.300001 -0.300001 0.300001 -0.300001 0 -0.300001 0.300001 -0.300001 10.8 9.60003zm57.9002 58.2002l-5.40002 11.7 -5.40002 -2.40001 -57.9002 -67.5002 10.8 -9.60003 57.9002 67.8002zm0 0l0.300001 0.300001 0.300001 0.300001 0.300001 0.300001 0 0.300001 0.300001 0.300001 0 0.300001 0.300001 0.300001 0 0.300001 0 0.300001 0.300001 0.300001 0 0.300001 0 0.300001 0 0.600002 0 0.300001 0 0.300001 0 0.300001 0 0.300001 0 0.300001 0 0.300001 -0.300001 0.600002 0 0.300001 0 0.300001 -0.300001 0.300001 0 0.300001 -0.300001 0.300001 0 0.300001 -0.300001 0.300001 -0.300001 0.300001 -0.300001 0.300001 0 0.300001 -0.300001 0.300001 -0.300001 0 -0.300001 0.300001 -0.300001 0.300001 -0.300001 0 -0.300001 0.300001 -0.300001 0.300001 -0.300001 0 -0.300001 0.300001 -0.300001 0 -0.600002 0 -0.300001 0.300001 -0.300001 0 -0.300001 0 -0.300001 0 -0.300001 0 -0.300001 0 -0.600002 0 -0.300001 0 -0.300001 0 -0.300001 0 -0.300001 -0.300001 -0.300001 0 -0.300001 0 -0.300001 -0.300001 -0.300001 0 -0.300001 -0.300001 -0.300001 -0.300001 -0.300001 0 -0.300001 -0.300001 -0.300001 -0.300001 -0.300001 0 -0.300001 -0.300001 -0.300001 -0.300001 10.8 -9.30003z"/>
   </g>
   <g>
    <path id="_195178984" class="fil2" d="M162.2 355.801c-9.90003,0 -19.8001,0 -29.7001,0 -12.9,-15 -25.5001,-30.3001 -38.4001,-45.3001 8.40003,-9.60003 16.8001,-19.2001 25.5001,-28.8001 -8.40003,21.3001 4.80002,55.5002 42.6001,74.1002z"/>
    <path id="_1_0" class="fil3" d="M134.3 354.301l-1.80001 -0.900003 0.900003 0 0.900003 0 0.900003 0 0.900003 0 0.900003 0 0.900003 0 1.2 0 0.900003 0 0.900003 0 0.900003 0 0.900003 0 0.900003 0 0.900003 0 0.900003 0 0.900003 0 0.900003 0 0.900003 0 1.2 0 0.900003 0 0.900003 0 0.900003 0 0.900003 0 0.900003 0 0.900003 0 0.900003 0 0.900003 0 0.900003 0 0.900003 0 1.2 0 0.900003 0 0.900003 0 0.900003 0 0 4.80002 -0.900003 0 -0.900003 0 -0.900003 0 -1.2 0 -0.900003 0 -0.900003 0 -0.900003 0 -0.900003 0 -0.900003 0 -0.900003 0 -0.900003 0 -0.900003 0 -0.900003 0 -0.900003 0 -1.2 0 -0.900003 0 -0.900003 0 -0.900003 0 -0.900003 0 -0.900003 0 -0.900003 0 -0.900003 0 -0.900003 0 -0.900003 0 -0.900003 0 -1.2 0 -0.900003 0 -0.900003 0 -0.900003 0 -0.900003 0 -0.900003 0 -0.900003 0 -1.80001 -0.900003 3.60001 -3.00001zm-1.80001 3.90001l0 0 -0.300001 0 0 0 -0.300001 0 0 -0.300001 0 0 -0.300001 0 0 0 -0.300001 0 0 0 0 0 -0.300001 -0.300001 0 0 0 0 0 0 -0.300001 -0.300001 0 0 0 0 0 -0.300001 -0.300001 0 0 0 0 0 0 -0.300001 0 0 -0.300001 -0.300001 0 0 0 0 0 -0.300001 0 0 0 0 0 -0.300001 0 0 0 -0.300001 0 0 0 -0.300001 0 0 0 0 0 -0.300001 0 0 0.300001 0 0 -0.300001 0 0 0 0 0 -0.300001 0.300001 0 0 0 0 -0.300001 0 0 0.300001 0 0 0 0 -0.300001 0 0 0.300001 0 0 0 0 -0.300001 0.300001 0 0 0 0.300001 0 0 0 0 0 0.300001 0 0 0 0.300001 0 0 0 0 4.80002zm-36.6001 -46.2001l0 -3.00001 1.2 1.5 1.2 1.2 1.2 1.5 1.2 1.5 1.2 1.2 1.2 1.5 1.2 1.5 1.2 1.5 1.2 1.2 1.2 1.5 1.2 1.5 1.2 1.2 1.2 1.5 1.2 1.5 1.2 1.5 1.2 1.2 1.2 1.5 1.2 1.5 1.2 1.2 1.2 1.5 1.2 1.5 1.2 1.2 1.2 1.5 1.2 1.5 1.2 1.5 1.2 1.2 1.2 1.5 1.2 1.5 1.2 1.2 1.2 1.5 1.2 1.5 1.2 1.5 -3.60001 3.00001 -1.2 -1.5 -1.2 -1.5 -1.2 -1.2 -1.2 -1.5 -1.2 -1.5 -1.2 -1.2 -1.2 -1.5 -1.2 -1.5 -1.2 -1.2 -1.2 -1.5 -1.2 -1.5 -1.2 -1.5 -1.2 -1.2 -1.2 -1.5 -1.2 -1.5 -1.2 -1.2 -1.2 -1.5 -1.2 -1.5 -1.2 -1.5 -1.2 -1.2 -1.2 -1.5 -1.2 -1.5 -1.2 -1.2 -1.2 -1.5 -1.2 -1.5 -1.2 -1.2 -1.2 -1.5 -1.2 -1.5 -1.2 -1.5 -1.2 -1.2 -1.2 -1.5 -1.2 -1.5 0 -3.00001 3.60001 3.00001zm-3.60001 0l-0.300001 0 0 0 0 -0.300001 0 0 -0.300001 0 0 -0.300001 0 0 0 0 0 -0.300001 0 0 0 -0.300001 0 0 0 0 0 -0.300001 0 0 0 0 0 -0.300001 0 0 0 -0.300001 0 0 0 0 0 -0.300001 0 0 0 0 0.300001 -0.300001 0 0 0 0 0 -0.300001 0.300001 0 0 0 0 -0.300001 0 0 0.300001 0 0 0 0 -0.300001 0.300001 0 0 0 0 0 0.300001 0 0 -0.300001 0.300001 0 0 0 0 0 0.300001 0 0 0 0 0 0.300001 0 0 0 0.300001 0 0 0 0 0 0.300001 0 0 0.300001 0.300001 0 0 0 0 0 0.300001 0 0 0 0 0.300001 0.300001 0 0 0 0 0 0 0.300001 0.300001 0 -3.60001 3.00001zm24.9001 -31.2001l4.20001 2.70001 -0.900003 0.900003 -0.900003 0.900003 -0.600002 0.900003 -0.900003 0.900003 -0.600002 0.900003 -0.900003 0.900003 -0.900003 0.900003 -0.600002 0.900003 -0.900003 0.900003 -0.900003 0.900003 -0.600002 0.900003 -0.900003 0.900003 -0.900003 0.900003 -0.600002 0.900003 -0.900003 0.900003 -0.900003 0.900003 -0.600002 0.900003 -0.900003 0.900003 -0.900003 0.900003 -0.600002 0.900003 -0.900003 0.900003 -0.900003 0.600002 -0.600002 0.900003 -0.900003 0.900003 -0.900003 0.900003 -0.600002 0.900003 -0.900003 0.900003 -0.900003 0.900003 -0.600002 0.900003 -0.900003 0.900003 -0.900003 0.900003 -0.600002 0.900003 -3.60001 -3.00001 0.600002 -0.900003 0.900003 -0.900003 0.900003 -0.900003 0.600002 -0.900003 0.900003 -0.900003 0.900003 -0.900003 0.600002 -0.900003 0.900003 -0.900003 0.900003 -0.900003 0.600002 -0.900003 0.900003 -0.900003 0.900003 -0.900003 0.600002 -0.900003 0.900003 -0.900003 0.900003 -0.900003 0.600002 -0.900003 0.900003 -0.900003 0.900003 -0.900003 0.600002 -0.900003 0.900003 -0.900003 0.900003 -0.900003 0.600002 -0.900003 0.900003 -0.900003 0.900003 -0.900003 0.600002 -0.900003 0.900003 -0.900003 0.900003 -0.900003 0.600002 -0.900003 0.900003 -0.900003 0.900003 -0.900003 0.600002 -0.900003 0.900003 -0.900003 3.90001 2.40001 -4.50001 -1.80001zm0.600002 -0.600002l0 0 0 -0.300001 0.300001 0 0 0 0 0 0.300001 -0.300001 0 0 0 0 0.300001 0 0 0 0 0 0.300001 0 0 -0.300001 0.300001 0 0 0 0 0 0.300001 0 0 0 0.300001 0 0 0 0 0 0.300001 0 0 0.300001 0 0 0.300001 0 0 0 0 0 0.300001 0 0 0.300001 0.300001 0 0 0 0 0 0 0.300001 0.300001 0 0 0 0 0.300001 0 0 0.300001 0 0 0.300001 0 0 0 0 0 0.300001 0 0 0.300001 0 0 0.300001 0 0 0 0 0 0.300001 0 0 0 0.300001 0 0 0 0 0 0.300001 0 0 0 0 -0.300001 0.300001 0 0 0 0.300001 0 0 0 0 0 0.300001 -0.300001 0 0 0 0 0.300001 -3.60001 -3.30001zm44.4001 73.2002l-1.2 4.50001 -3.60001 -1.80001 -3.30001 -2.10001 -3.30001 -1.80001 -3.00001 -2.10001 -3.00001 -2.10001 -2.70001 -2.40001 -2.70001 -2.10001 -2.70001 -2.40001 -2.40001 -2.40001 -2.10001 -2.40001 -2.10001 -2.70001 -2.10001 -2.40001 -1.80001 -2.70001 -1.80001 -2.40001 -1.5 -2.70001 -1.5 -2.70001 -1.2 -2.40001 -1.2 -2.70001 -0.900003 -2.70001 -0.900003 -2.70001 -0.900003 -2.40001 -0.600002 -2.70001 -0.300001 -2.70001 -0.300001 -2.40001 -0.300001 -2.70001 0 -2.40001 0 -2.40001 0.300001 -2.40001 0.300001 -2.40001 0.600002 -2.40001 0.600002 -2.10001 0.600002 -2.40001 4.50001 1.80001 -0.600002 1.80001 -0.600002 2.10001 -0.300001 2.10001 -0.300001 2.10001 -0.300001 2.10001 0 2.10001 0 2.10001 0.300001 2.40001 0.300001 2.40001 0.300001 2.40001 0.600002 2.40001 0.600002 2.40001 0.900003 2.40001 0.900003 2.40001 1.2 2.40001 1.2 2.40001 1.2 2.40001 1.5 2.40001 1.5 2.40001 1.80001 2.40001 1.80001 2.40001 2.10001 2.40001 2.10001 2.40001 2.10001 2.10001 2.40001 2.40001 2.70001 2.10001 2.70001 2.10001 2.70001 2.10001 3.00001 1.80001 3.00001 2.10001 3.30001 1.80001 3.30001 1.80001 -0.900003 4.50001 0 -4.80002zm0.900003 0.300001l0.300001 0 0 0 0 0 0.300001 0 0 0.300001 0 0 0.300001 0 0 0 0 0.300001 0 0 0.300001 0 0 0.300001 0 0 0 0 0 0.300001 0 0 0 0 0.300001 0.300001 0 0 0 0.300001 0 0 0 0 0 0.300001 0 0 0 0.300001 0 0 0 0 0 0.300001 -0.300001 0 0 0 0 0.300001 0 0 0 0.300001 0 0 -0.300001 0 0 0.300001 0 0 0 0 -0.300001 0 0 0.300001 0 0 -0.300001 0 0 0 0 0.300001 -0.300001 0 0 0 0 0 -0.300001 0 0 0 0 0 -0.300001 0.300001 0 0 -0.300001 0 0 0 0 0 -0.300001 0 0 0 0 0 -0.300001 0 0 -0.300001 -0.300001 0 0 0 0 0 -0.300001 0 2.10001 -4.20001z"/>
   </g>
   <g>
    <path id="_195179032" class="fil2" d="M207.2 183.901c13.8,-15.6 27.6001,-31.5001 41.4001,-47.1001 13.2,15.6 26.4001,31.5001 39.6001,47.1001 -21.3001,-9.00003 -54.0002,-11.4 -81.0003,0z"/>
    <path id="_1_1" class="fil3" d="M246.8 138.3l3.60001 0 -1.5 1.5 -1.2 1.5 -1.2 1.5 -1.2 1.5 -1.5 1.5 -1.2 1.5 -1.2 1.5 -1.5 1.5 -1.2 1.2 -1.2 1.5 -1.5 1.5 -1.2 1.5 -1.2 1.5 -1.5 1.5 -1.2 1.5 -1.2 1.5 -1.2 1.5 -1.5 1.5 -1.2 1.2 -1.2 1.5 -1.5 1.5 -1.2 1.5 -1.2 1.5 -1.5 1.5 -1.2 1.5 -1.2 1.5 -1.5 1.5 -1.2 1.5 -1.2 1.2 -1.2 1.5 -1.5 1.5 -1.2 1.5 -3.60001 -3.30001 1.2 -1.2 1.5 -1.5 1.2 -1.5 1.2 -1.5 1.2 -1.5 1.5 -1.5 1.2 -1.5 1.2 -1.5 1.5 -1.5 1.2 -1.2 1.2 -1.5 1.5 -1.5 1.2 -1.5 1.2 -1.5 1.2 -1.5 1.5 -1.5 1.2 -1.5 1.2 -1.5 1.5 -1.5 1.2 -1.2 1.2 -1.5 1.5 -1.5 1.2 -1.5 1.2 -1.5 1.5 -1.5 1.2 -1.5 1.2 -1.5 1.2 -1.5 1.5 -1.2 1.2 -1.5 1.2 -1.5 1.5 -1.5 3.60001 0 -3.60001 3.00001zm0 -3.00001l0 0 0 -0.300001 0.300001 0 0 0 0 -0.300001 0.300001 0 0 0 0 0 0.300001 0 0 0 0 -0.300001 0.300001 0 0 0 0.300001 0 0 0 0 0 0.300001 0 0 0 0 0 0.300001 0 0 0 0.300001 0 0 0 0 0.300001 0.300001 0 0 0 0 0 0.300001 0 0 0 0 0.300001 0.300001 0 0 0 0 0 0.300001 0.300001 0 0 0 0 0 0.300001 0.300001 0 0 0 0 0.300001 0 0 0 0 0 0.300001 0.300001 0 0 0 0 0.300001 0 0 0 0.300001 0 0 0 0 0 0.300001 0 0 0 0.300001 0 0 -0.300001 0 0 0.300001 0 0 0 0 0 0.300001 0 0 0 0 -0.300001 0.300001 0 0 0 0 -3.60001 -3.00001zm42.3001 46.2001l-2.70001 3.90001 -1.2 -1.5 -1.2 -1.5 -1.2 -1.5 -1.5 -1.5 -1.2 -1.5 -1.2 -1.2 -1.2 -1.5 -1.2 -1.5 -1.2 -1.5 -1.2 -1.5 -1.5 -1.5 -1.2 -1.5 -1.2 -1.5 -1.2 -1.5 -1.2 -1.2 -1.2 -1.5 -1.2 -1.5 -1.2 -1.5 -1.5 -1.5 -1.2 -1.5 -1.2 -1.5 -1.2 -1.5 -1.2 -1.5 -1.2 -1.5 -1.2 -1.2 -1.5 -1.5 -1.2 -1.5 -1.2 -1.5 -1.2 -1.5 -1.2 -1.5 -1.2 -1.5 -1.2 -1.5 3.60001 -3.00001 1.2 1.5 1.2 1.5 1.2 1.5 1.2 1.5 1.5 1.2 1.2 1.5 1.2 1.5 1.2 1.5 1.2 1.5 1.2 1.5 1.2 1.5 1.5 1.5 1.2 1.5 1.2 1.2 1.2 1.5 1.2 1.5 1.2 1.5 1.2 1.5 1.2 1.5 1.5 1.5 1.2 1.5 1.2 1.5 1.2 1.5 1.2 1.2 1.2 1.5 1.2 1.5 1.5 1.5 1.2 1.5 1.2 1.5 1.2 1.5 1.2 1.5 1.2 1.5 -2.70001 3.60001 1.80001 -4.50001zm0.900003 0.900003l0 0 0.300001 0 0 0.300001 0 0 0 0 0 0.300001 0.300001 0 0 0 0 0.300001 0 0 0 0.300001 0 0 0 0 0 0.300001 0 0 0 0 0 0.300001 0 0 0 0.300001 0 0 0 0 0 0.300001 -0.300001 0 0 0 0 0.300001 0 0 0 0 -0.300001 0.300001 0 0 0 0 0 0.300001 -0.300001 0 0 0 0 0 -0.300001 0.300001 0 0 0 0 -0.300001 0 0 0 -0.300001 0 0 0.300001 0 0 -0.300001 0 0 0 0 0 -0.300001 0 0 0 -0.300001 0 0 0 0 0 -0.300001 0 0 -0.300001 0 0 -0.300001 0 0 0 -0.300001 0 0 0 0 0 -0.300001 -0.300001 0 0 0 0 0 0 -0.300001 -0.300001 0 0 3.60001 -3.00001zm-81.0003 3.00001l-2.70001 -3.90001 2.70001 -0.900003 2.40001 -0.900003 2.70001 -0.900003 2.70001 -0.900003 2.70001 -0.600002 2.70001 -0.900003 3.00001 -0.300001 2.70001 -0.600002 2.70001 -0.600002 2.70001 -0.300001 2.70001 -0.300001 3.00001 -0.300001 2.70001 0 2.70001 0 2.70001 -0.300001 2.70001 0 2.70001 0.300001 2.70001 0 2.70001 0.300001 2.70001 0.300001 2.70001 0.300001 2.40001 0.300001 2.70001 0.300001 2.40001 0.600002 2.40001 0.600002 2.40001 0.600002 2.40001 0.600002 2.40001 0.600002 2.40001 0.600002 2.10001 0.900003 2.10001 0.900003 2.10001 0.600002 -1.80001 4.50001 -2.10001 -0.600002 -1.80001 -0.900003 -2.10001 -0.600002 -2.40001 -0.900003 -2.10001 -0.600002 -2.40001 -0.600002 -2.10001 -0.600002 -2.40001 -0.300001 -2.40001 -0.600002 -2.40001 -0.300001 -2.70001 -0.300001 -2.40001 -0.300001 -2.40001 -0.300001 -2.70001 -0.300001 -2.40001 0 -2.70001 0 -2.70001 -0.300001 -2.70001 0.300001 -2.40001 0 -2.70001 0 -2.70001 0.300001 -2.70001 0.300001 -2.70001 0.300001 -2.70001 0.600002 -2.40001 0.300001 -2.70001 0.600002 -2.70001 0.600002 -2.40001 0.600002 -2.70001 0.900003 -2.40001 0.900003 -2.70001 0.900003 -2.40001 0.900003 -2.70001 -3.90001 3.60001 3.30001zm-0.900003 0.600002l0 0 -0.300001 0 0 0.300001 -0.300001 0 0 0 0 0 -0.300001 0 0 0 -0.300001 0 0 0 0 0 -0.300001 0 0 0 0 -0.300001 -0.300001 0 0 0 -0.300001 0 0 0 0 0 -0.300001 -0.300001 0 0 0 0 0 0 -0.300001 -0.300001 0 0 0 0 -0.300001 0 0 -0.300001 0 0 0 0 0 -0.300001 -0.300001 0 0 -0.300001 0 0 0 0 0 -0.300001 0 0 0 0 0 -0.300001 0 0 0 -0.300001 0 0 0 0 0 -0.300001 0 0 0 -0.300001 0 0 0 0 0.300001 -0.300001 0 0 0 0 0 -0.300001 0 0 0.300001 0 0 -0.300001 0 0 0 0 0.300001 0 0 -0.300001 0 0 0.300001 0 0 0 0 0 0.300001 -0.300001 1.80001 4.50001z"/>
   </g>
   <g>
    <path id="_195179272" class="fil2" d="M148.1 250.501c8.70003,-10.2 17.4001,-20.4001 26.4001,-30.3001 24.0001,9.30003 58.2002,0 67.8002,-11.4 13.2,-8.40003 69.6002,-2.40001 73.5002,15.3 -0.600002,12 -26.4001,16.2001 -31.8001,16.5001 -44.7001,1.2 -93.6003,6.60002 -135.9,9.90003z"/>
    <path id="_1_2" class="fil3" d="M173.6 222.301l2.70001 -0.600002 -0.900003 0.900003 -0.900003 1.2 -0.900003 0.900003 -0.600002 0.900003 -0.900003 0.900003 -0.900003 0.900003 -0.900003 0.900003 -0.600002 0.900003 -0.900003 1.2 -0.900003 0.900003 -0.900003 0.900003 -0.600002 0.900003 -0.900003 0.900003 -0.900003 0.900003 -0.900003 1.2 -0.600002 0.900003 -0.900003 0.900003 -0.900003 0.900003 -0.900003 0.900003 -0.600002 0.900003 -0.900003 0.900003 -0.900003 1.2 -0.900003 0.900003 -0.600002 0.900003 -0.900003 0.900003 -0.900003 0.900003 -0.900003 0.900003 -0.600002 1.2 -0.900003 0.900003 -0.900003 0.900003 -0.900003 0.900003 -0.600002 0.900003 -3.60001 -3.00001 0.600002 -1.2 0.900003 -0.900003 0.900003 -0.900003 0.900003 -0.900003 0.600002 -0.900003 0.900003 -0.900003 0.900003 -0.900003 0.900003 -1.2 0.600002 -0.900003 0.900003 -0.900003 0.900003 -0.900003 0.900003 -0.900003 0.600002 -0.900003 0.900003 -1.2 0.900003 -0.900003 0.900003 -0.900003 0.600002 -0.900003 0.900003 -0.900003 0.900003 -0.900003 0.900003 -0.900003 0.600002 -1.2 0.900003 -0.900003 0.900003 -0.900003 0.900003 -0.900003 0.600002 -0.900003 0.900003 -0.900003 0.900003 -1.2 0.900003 -0.900003 0.600002 -0.900003 0.900003 -0.900003 0.900003 -0.900003 0.900003 -0.900003 2.70001 -0.900003 -1.80001 4.50001zm-0.900003 -3.60001l0 -0.300001 0 0 0.300001 0 0 0 0 -0.300001 0.300001 0 0 0 0 0 0.300001 0 0 -0.300001 0.300001 0 0 0 0 0 0.300001 0 0 0 0 0 0.300001 0 0 0 0.300001 0 0 0 0 0 0.300001 0 0 0 0 0 0.300001 0.300001 0 0 0.300001 0 0 0 0 0 0.300001 0 0 0.300001 0 0 0 0 0.300001 0.300001 0 0 0 0 0.300001 0.300001 0 0 0 0 0 0.300001 0 0 0 0 0.300001 0.300001 0 0 0 0 0 0.300001 0 0 0 0.300001 0 0 0 0 0 0.300001 0 0 0 0 0 0.300001 0 0 -0.300001 0.300001 0 0 0 0 0 0.300001 0 0 0 0 -0.300001 0.300001 0 0 0 0 -3.60001 -3.00001zm71.1002 -7.80002l0.600002 -0.300001 -1.2 1.2 -1.2 0.900003 -1.5 1.2 -1.5 1.2 -1.5 0.900003 -1.80001 1.2 -1.80001 0.900003 -1.80001 0.900003 -1.80001 0.900003 -2.10001 0.900003 -2.10001 0.600002 -2.40001 0.900003 -2.10001 0.600002 -2.40001 0.600002 -2.40001 0.600002 -2.40001 0.600002 -2.40001 0.300001 -2.70001 0.600002 -2.40001 0.300001 -2.70001 0.300001 -2.70001 0 -2.40001 0.300001 -2.70001 0 -2.70001 0 -2.40001 -0.300001 -2.70001 -0.300001 -2.70001 -0.300001 -2.40001 -0.300001 -2.70001 -0.600002 -2.40001 -0.600002 -2.40001 -0.900003 -2.40001 -0.900003 1.80001 -4.50001 2.10001 0.900003 2.40001 0.600002 2.10001 0.600002 2.40001 0.600002 2.40001 0.300001 2.40001 0.300001 2.40001 0.300001 2.40001 0.300001 2.40001 0 2.40001 0 2.70001 -0.300001 2.40001 0 2.40001 -0.300001 2.40001 -0.300001 2.40001 -0.300001 2.40001 -0.600002 2.10001 -0.300001 2.40001 -0.600002 2.10001 -0.600002 2.10001 -0.900003 2.10001 -0.600002 2.10001 -0.600002 1.80001 -0.900003 1.80001 -0.900003 1.80001 -0.900003 1.5 -0.600002 1.80001 -0.900003 1.2 -0.900003 1.2 -1.2 1.2 -0.900003 1.2 -0.900003 0.600002 -0.900003 0.600002 -0.300001 2.70001 3.90001zm-3.30001 -3.60001l0.300001 0 0 0 0 -0.300001 0.300001 0 0 0 0 0 0.300001 -0.300001 0 0 0 0 0.300001 0 0 0 0 0 0.300001 0 0 0 0.300001 -0.300001 0 0 0 0 0.300001 0 0 0 0 0 0.300001 0.300001 0 0 0.300001 0 0 0 0 0 0.300001 0 0 0 0 0 0.300001 0.300001 0 0 0 0 0.300001 0 0 0.300001 0 0 0.300001 0 0 0.300001 0 0 0 0 0 0.300001 0.300001 0 0 0 0 0.300001 0 0 0 0 0 0.300001 0 0 0 0 0 0.300001 0 0 0 0.300001 0 0 0 0 0 0.300001 0 0 0 0.300001 0 0 0 0 0 0.300001 0 0 -0.300001 0 0 0.300001 0 0 0 0 0 0.300001 -3.90001 -3.30001zm72.9002 16.8001l0.300001 0.600002 -0.600002 -1.2 -0.600002 -1.2 -0.900003 -1.2 -1.2 -1.2 -1.5 -1.2 -1.5 -1.2 -1.80001 -1.2 -2.10001 -1.2 -2.40001 -0.900003 -2.40001 -0.900003 -2.40001 -0.900003 -2.70001 -0.900003 -2.70001 -0.600002 -3.00001 -0.900003 -2.70001 -0.600002 -3.00001 -0.300001 -3.00001 -0.600002 -3.00001 -0.300001 -3.00001 -0.300001 -3.00001 -0.300001 -3.00001 0 -2.70001 -0.300001 -3.00001 0.300001 -2.70001 0 -2.40001 0 -2.40001 0.300001 -2.40001 0.300001 -1.80001 0.600002 -2.10001 0.300001 -1.5 0.600002 -1.2 0.600002 -1.2 0.600002 -2.70001 -3.90001 1.5 -0.900003 1.80001 -0.900003 2.10001 -0.600002 2.10001 -0.600002 2.40001 -0.300001 2.40001 -0.600002 2.70001 -0.300001 2.70001 0 2.70001 -0.300001 3.00001 0 3.00001 0.300001 3.00001 0 3.00001 0.300001 3.00001 0.300001 3.30001 0.300001 3.00001 0.600002 3.30001 0.600002 3.00001 0.600002 3.00001 0.600002 2.70001 0.900003 3.00001 0.900003 2.70001 0.900003 2.70001 0.900003 2.40001 1.2 2.40001 1.2 2.10001 1.2 1.80001 1.5 1.80001 1.5 1.5 1.5 1.5 1.80001 0.900003 2.10001 0.600002 1.80001 0 0.900003 -4.80002 -0.300001zm4.80002 -0.600002l0 0.300001 0 0 0 0.300001 0 0 0 0 0 0.300001 0 0 0 0.300001 0 0 0 0 0 0.300001 0 0 0 0 0 0.300001 -0.300001 0 0 0 0 0.300001 0 0 -0.300001 0 0 0.300001 0 0 0 0 -0.300001 0 0 0.300001 0 0 -0.300001 0 0 0 0 0 -0.300001 0.300001 0 0 0 0 -0.300001 0 0 0 -0.300001 0 0 0 0 0 -0.300001 0 0 0 -0.300001 0 0 0 0 0 -0.300001 0 0 0 0 0 -0.300001 -0.300001 0 0 -0.300001 0 0 0 0 0 0 -0.300001 -0.300001 0 0 0 0 0 -0.300001 -0.300001 0 0 0 0 0 0 -0.300001 -0.300001 0 0 0 -0.300001 0 0 0 0 0 -0.300001 0 0 4.50001 -1.2zm-34.2001 14.7l0 0 0.300001 0 0.600002 0 0.900003 -0.300001 0.900003 0 0.900003 0 0.900003 -0.300001 1.2 0 0.900003 -0.300001 1.2 -0.300001 1.5 -0.300001 1.2 -0.300001 1.2 -0.300001 1.2 -0.300001 1.5 -0.300001 1.2 -0.600002 1.5 -0.300001 1.2 -0.600002 1.2 -0.300001 1.2 -0.600002 1.2 -0.600002 1.2 -0.600002 0.900003 -0.600002 0.900003 -0.600002 0.900003 -0.900003 0.900003 -0.600002 0.600002 -0.600002 0.600002 -0.900003 0.600002 -0.600002 0.300001 -0.900003 0.300001 -0.600002 0.300001 -0.900003 0 -0.600002 4.80002 0.300001 0 1.2 -0.300001 1.5 -0.600002 1.2 -0.600002 1.2 -0.900003 1.2 -0.900003 0.900003 -0.900003 1.2 -1.2 0.900003 -0.900003 0.900003 -1.2 0.600002 -1.2 0.900003 -1.5 0.600002 -1.2 0.600002 -1.5 0.600002 -1.2 0.600002 -1.5 0.600002 -1.5 0.600002 -1.5 0.300001 -1.2 0.300001 -1.5 0.600002 -1.2 0.300001 -1.5 0.300001 -1.2 0.300001 -1.5 0.300001 -1.2 0 -0.900003 0.300001 -1.2 0.300001 -0.900003 0 -0.900003 0 -0.900003 0.300001 -0.900003 0 -0.600002 0 0 0 0 -4.80002zm0 4.80002l0 0 -0.300001 0 0 0 0 0 -0.300001 0 0 0 -0.300001 -0.300001 0 0 0 0 -0.300001 0 0 0 0 0 -0.300001 -0.300001 0 0 0 0 -0.300001 0 0 -0.300001 0 0 0 0 -0.300001 0 0 -0.300001 0 0 0 0 0 -0.300001 -0.300001 0 0 -0.300001 0 0 0 0 0 -0.300001 0 0 0 0 0 -0.300001 0 0 0 -0.300001 0 0 0 0 0 -0.300001 0 0 0 -0.300001 0 0 0.300001 0 0 -0.300001 0 0 0 0 0 -0.300001 0.300001 0 0 0 0 -0.300001 0 0 0.300001 0 0 0 0 -0.300001 0.300001 0 0 0 0 0 0.300001 0 0 -0.300001 0 0 0.300001 0 0 0 0 0 0.300001 0 0 0 0.300001 0 0 4.80002zm-134.1 9.00003l-2.10001 -3.90001 3.90001 -0.300001 4.20001 -0.300001 3.90001 -0.300001 4.20001 -0.300001 4.20001 -0.600002 3.90001 -0.300001 4.20001 -0.300001 4.20001 -0.300001 4.20001 -0.300001 4.50001 -0.600002 4.20001 -0.300001 4.20001 -0.300001 4.20001 -0.300001 4.50001 -0.300001 4.20001 -0.600002 4.50001 -0.300001 4.20001 -0.300001 4.50001 -0.300001 4.20001 -0.300001 4.50001 -0.300001 4.20001 -0.600002 4.50001 -0.300001 4.20001 -0.300001 4.50001 -0.300001 4.20001 0 4.20001 -0.300001 4.50001 -0.300001 4.20001 -0.300001 4.20001 0 4.20001 -0.300001 4.50001 -0.300001 4.20001 0 0 4.80002 -4.20001 0 -4.20001 0.300001 -4.20001 0.300001 -4.20001 0 -4.20001 0.300001 -4.50001 0.300001 -4.20001 0.300001 -4.20001 0 -4.50001 0.300001 -4.20001 0.300001 -4.50001 0.300001 -4.20001 0.600002 -4.50001 0.300001 -4.20001 0.300001 -4.50001 0.300001 -4.20001 0.300001 -4.50001 0.300001 -4.20001 0.300001 -4.20001 0.600002 -4.50001 0.300001 -4.20001 0.300001 -4.20001 0.300001 -4.20001 0.600002 -4.20001 0.300001 -4.20001 0.300001 -4.20001 0.300001 -4.20001 0.300001 -4.20001 0.600002 -4.20001 0.300001 -3.90001 0.300001 -3.90001 0.300001 -4.20001 0.300001 -1.80001 -3.90001 3.60001 3.00001zm-1.80001 0.900003l0 0 -0.300001 0 0 0 0 0 -0.300001 0 0 0 -0.300001 0 0 -0.300001 0 0 -0.300001 0 0 0 0 0 -0.300001 0 0 -0.300001 0 0 -0.300001 0 0 0 0 -0.300001 0 0 -0.300001 0 0 0 0 -0.300001 0 0 0 0 -0.300001 -0.300001 0 0 0 -0.300001 0 0 0 0 0 -0.300001 0 0 0 -0.300001 0 0 0 0 0 -0.300001 0 0 0 -0.300001 0 0 0 0 0 -0.300001 0 0 0 0 0 -0.300001 0.300001 0 0 0 0 -0.300001 0 0 0.300001 0 0 -0.300001 0 0 0 0 0.300001 0 0 -0.300001 0 0 0.300001 0 0 0 0 0 0.300001 -0.300001 0 0 0 0 0.300001 0 0 0 0.300001 0 0 0 0.300001 4.80002z"/>
   </g>
   <g>
    <path id="_195179320" class="fil2" d="M299.001 355.801c10.5,0 21.0001,0 31.5001,0 -4.80002,-5.40002 -9.30003,-10.8 -14.1,-16.2001 -4.50001,5.40002 -9.60003,10.5 -17.4001,16.2001z"/>
    <path id="_1_3" class="fil3" d="M331.101 354.901l-0.600002 1.80001 -1.2 0 -0.900003 0 -0.900003 0 -1.2 0 -0.900003 0 -0.900003 0 -0.900003 0 -1.2 0 -0.900003 0 -0.900003 0 -1.2 0 -0.900003 0 -0.900003 0 -0.900003 0 -1.2 0 -0.900003 0 -0.900003 0 -0.900003 0 -1.2 0 -0.900003 0 -0.900003 0 -1.2 0 -0.900003 0 -0.900003 0 -0.900003 0 -1.2 0 -0.900003 0 -0.900003 0 -1.2 0 -0.900003 0 -0.900003 0 -0.900003 0 0 -2.10001 0.900003 0 0.900003 0 0.900003 0 1.2 0 0.900003 0 0.900003 0 1.2 0 0.900003 0 0.900003 0 0.900003 0 1.2 0 0.900003 0 0.900003 0 1.2 0 0.900003 0 0.900003 0 0.900003 0 1.2 0 0.900003 0 0.900003 0 0.900003 0 1.2 0 0.900003 0 0.900003 0 1.2 0 0.900003 0 0.900003 0 0.900003 0 1.2 0 0.900003 0 0.900003 0 1.2 0 -0.900003 1.80001 1.5 -1.5zm-0.600002 -0.300001l0 0 0 0 0 0 0 0 0 0 0.300001 0 0 0 0 0.300001 0 0 0 0 0 0 0 0 0.300001 0 0 0 0 0 0 0 0 0 0 0.300001 0 0 0 0 0 0 0.300001 0 0 0 0 0 0 0.300001 0 0 0 0 0 0 0 0 0 0 0 0.300001 0 0 0 0 0 0 0 0 0 0 0 0.300001 0 0 0 0 0 0 0 0 0 0 -0.300001 0 0 0.300001 0 0 0 0 0 0 0 0 0 0 0 0 0 0 -0.300001 0.300001 0 0 0 0 0 0 0 0 0 0 0 0 -0.300001 0 0 0 0 0 0 0 0 0 0 0 0 -2.10001zm-14.7 -15.6l1.5 0 0.300001 0.300001 0.600002 0.600002 0.300001 0.600002 0.600002 0.300001 0.300001 0.600002 0.600002 0.600002 0.300001 0.300001 0.300001 0.600002 0.600002 0.600002 0.300001 0.300001 0.600002 0.600002 0.300001 0.600002 0.600002 0.600002 0.300001 0.300001 0.600002 0.600002 0.300001 0.600002 0.600002 0.300001 0.300001 0.600002 0.300001 0.600002 0.600002 0.300001 0.300001 0.600002 0.600002 0.600002 0.300001 0.300001 0.600002 0.600002 0.300001 0.600002 0.600002 0.300001 0.300001 0.600002 0.300001 0.600002 0.600002 0.300001 0.300001 0.600002 0.600002 0.600002 0.300001 0.300001 -1.5 1.5 -0.300001 -0.600002 -0.600002 -0.300001 -0.300001 -0.600002 -0.600002 -0.600002 -0.300001 -0.300001 -0.600002 -0.600002 -0.300001 -0.600002 -0.600002 -0.300001 -0.300001 -0.600002 -0.300001 -0.600002 -0.600002 -0.300001 -0.300001 -0.600002 -0.600002 -0.600002 -0.300001 -0.600002 -0.600002 -0.300001 -0.300001 -0.600002 -0.600002 -0.600002 -0.300001 -0.300001 -0.300001 -0.600002 -0.600002 -0.600002 -0.300001 -0.300001 -0.600002 -0.600002 -0.300001 -0.600002 -0.600002 -0.300001 -0.300001 -0.600002 -0.600002 -0.600002 -0.300001 -0.300001 -0.300001 -0.600002 -0.600002 -0.600002 -0.300001 -0.300001 -0.600002 -0.600002 -0.300001 -0.600002 1.5 0 -1.5 -1.2zm0 1.2l0 0 0 0 -0.300001 0 0 0 0 -0.300001 0 0 0 0 0 0 0 0 0 0 0 0 0 -0.300001 0 0 0 0 0 0 0 0 0 0 0 -0.300001 0 0 0 0 0 0 0 0 0 0 0 -0.300001 0 0 0.300001 0 0 0 0 0 0 0 0 0 0 -0.300001 0 0 0 0 0 0 0.300001 0 0 0 0 0 0 0 0 0 0 0 0.300001 0 0 0 0 0 0 0 0 0 0 0 0.300001 0 0 0 0 0 0 0 0 0 0 0 0 0 0.300001 0 0 0 0 0 0 0 0 0 0 0 0.300001 0 0 0 0 0 0 0.300001 0 0 -1.5 1.2zm-16.8001 16.5001l-0.600002 -1.80001 0.600002 -0.600002 0.900003 -0.600002 0.600002 -0.300001 0.600002 -0.600002 0.600002 -0.600002 0.900003 -0.300001 0.600002 -0.600002 0.600002 -0.600002 0.600002 -0.300001 0.600002 -0.600002 0.600002 -0.600002 0.600002 -0.300001 0.600002 -0.600002 0.300001 -0.600002 0.600002 -0.300001 0.600002 -0.600002 0.600002 -0.600002 0.300001 -0.300001 0.600002 -0.600002 0.600002 -0.600002 0.300001 -0.300001 0.600002 -0.600002 0.600002 -0.600002 0.300001 -0.300001 0.600002 -0.600002 0.300001 -0.300001 0.600002 -0.600002 0.300001 -0.600002 0.600002 -0.300001 0.300001 -0.600002 0.300001 -0.600002 0.600002 -0.300001 1.5 1.2 -0.300001 0.600002 -0.600002 0.600002 -0.300001 0.300001 -0.600002 0.600002 -0.300001 0.600002 -0.600002 0.300001 -0.300001 0.600002 -0.600002 0.600002 -0.300001 0.300001 -0.600002 0.600002 -0.600002 0.600002 -0.300001 0.300001 -0.600002 0.600002 -0.600002 0.600002 -0.600002 0.300001 -0.300001 0.600002 -0.600002 0.600002 -0.600002 0.300001 -0.600002 0.600002 -0.600002 0.600002 -0.600002 0.300001 -0.600002 0.600002 -0.600002 0.600002 -0.600002 0.600002 -0.600002 0.300001 -0.600002 0.600002 -0.600002 0.600002 -0.900003 0.300001 -0.600002 0.600002 -0.600002 0.600002 -0.900003 0.600002 -0.600002 0.600002 -0.600002 -2.10001 0 2.10001zm0.600002 0l-0.300001 0 0 0 0 0 0 0 0 0 0 0 -0.300001 0 0 0 0 0 0 0 0 0 0 0 -0.300001 0 0 0 0 0 0 0 0 0 0 0 0 0 -0.300001 0 0 0 0 0 0 0 0 0 0 0 -0.300001 -0.300001 0 0 0 0 0 0 0 0 0 0 0 0 0 0 0 -0.300001 0 0 -0.300001 0 0 0 0 0 0 0 0 -0.300001 0 0 0 0 0 0 0 0 0 0 0 -0.300001 0 0 0 0 0 0 0 0 0 0 0 -0.300001 0 0 0.300001 0 0 0 0 0 0 0 0 0 0 -0.300001 0 0 0 0 0 0 0 0 0.300001 0 1.2 1.80001z"/>
   </g>
   <g>
    <path id="_195178624" class="fil2" d="M364.401 343.801c10.8,-10.2 21.6001,-20.4001 32.1001,-30.6001 -13.2,-15.6 -26.4001,-31.5001 -39.6001,-47.1001 -15.9001,20.1001 -36.0001,30.0001 -58.8002,29.7001 -24.9001,1.5 -49.5002,-0.300001 -74.1002,1.80001 -16.8001,2.40001 -49.5002,9.90003 -49.2002,25.8001 0.600002,16.2001 29.1001,28.2001 43.5001,30.3001 21.0001,3.90001 46.5001,-0.300001 57.6002,-6.30002 21.9001,-10.8 26.1001,-24.9001 30.9001,-38.7001 19.2001,0 38.4001,0 57.6002,0 0,11.7 0,23.4001 0,35.1001z"/>
    <path id="_1_4" class="fil3" d="M398.301 311.701l0 3.30001 -1.2 0.900003 -0.900003 0.900003 -0.900003 0.900003 -1.2 0.900003 -0.900003 0.900003 -0.900003 1.2 -1.2 0.900003 -0.900003 0.900003 -0.900003 0.900003 -1.2 0.900003 -0.900003 1.2 -0.900003 0.900003 -1.2 0.900003 -0.900003 0.900003 -1.2 1.2 -0.900003 0.900003 -0.900003 0.900003 -1.2 0.900003 -0.900003 0.900003 -0.900003 1.2 -1.2 0.900003 -0.900003 0.900003 -0.900003 0.900003 -1.2 0.900003 -0.900003 1.2 -0.900003 0.900003 -1.2 0.900003 -0.900003 0.900003 -0.900003 0.900003 -1.2 1.2 -0.900003 0.900003 -0.900003 0.900003 -3.30001 -3.60001 0.900003 -0.900003 0.900003 -0.900003 1.2 -0.900003 0.900003 -0.900003 0.900003 -1.2 1.2 -0.900003 0.900003 -0.900003 0.900003 -0.900003 1.2 -0.900003 0.900003 -1.2 0.900003 -0.900003 1.2 -0.900003 0.900003 -0.900003 0.900003 -0.900003 1.2 -1.2 0.900003 -0.900003 0.900003 -0.900003 1.2 -0.900003 0.900003 -0.900003 0.900003 -1.2 1.2 -0.900003 0.900003 -0.900003 1.2 -0.900003 0.900003 -0.900003 0.900003 -1.2 1.2 -0.900003 0.900003 -0.900003 0.900003 -0.900003 1.2 -0.900003 0.900003 -1.2 0.900003 -0.900003 1.2 -0.900003 -0.300001 3.30001 3.60001 -3.00001zm-3.30001 -0.300001l0 0 0 -0.300001 0.300001 0 0 0 0 0 0.300001 0 0 -0.300001 0 0 0.300001 0 0 0 0 0 0.300001 0 0 0 0.300001 0 0 0 0 0 0.300001 0 0 0 0 0 0.300001 0 0 0 0.300001 0 0 0 0 0 0.300001 0.300001 0 0 0 0 0.300001 0 0 0 0 0.300001 0.300001 0 0 0 0 0.300001 0 0 0.300001 0 0 0 0 0.300001 0 0 0 0.300001 0.300001 0 0 0 0 0.300001 0 0 0 0 0 0.300001 0 0 0 0.300001 0 0 0 0 0 0.300001 0 0 0 0 0 0.300001 0 0 0 0.300001 -0.300001 0 0 0 0 0.300001 0 0 0 0 -0.300001 0.300001 0 0 0 0 0 0.300001 -3.30001 -3.60001zm-40.2001 -46.8001l3.90001 -0.300001 1.2 1.5 1.2 1.5 1.2 1.5 1.2 1.5 1.5 1.5 1.2 1.5 1.2 1.5 1.2 1.5 1.2 1.5 1.2 1.2 1.2 1.5 1.5 1.5 1.2 1.5 1.2 1.5 1.2 1.5 1.2 1.5 1.2 1.5 1.2 1.5 1.2 1.5 1.5 1.5 1.2 1.5 1.2 1.5 1.2 1.2 1.2 1.5 1.2 1.5 1.2 1.5 1.5 1.5 1.2 1.5 1.2 1.5 1.2 1.5 1.2 1.5 1.2 1.5 -3.60001 3.00001 -1.2 -1.5 -1.2 -1.5 -1.2 -1.5 -1.5 -1.5 -1.2 -1.5 -1.2 -1.5 -1.2 -1.2 -1.2 -1.5 -1.2 -1.5 -1.2 -1.5 -1.5 -1.5 -1.2 -1.5 -1.2 -1.5 -1.2 -1.5 -1.2 -1.5 -1.2 -1.5 -1.2 -1.5 -1.2 -1.5 -1.5 -1.2 -1.2 -1.5 -1.2 -1.5 -1.2 -1.5 -1.2 -1.5 -1.2 -1.5 -1.2 -1.5 -1.5 -1.5 -1.2 -1.5 -1.2 -1.5 -1.2 -1.5 -1.2 -1.2 -1.2 -1.5 -1.2 -1.5 3.60001 0 -3.90001 -3.00001zm0.300001 3.00001l-0.300001 -0.300001 0 0 0 0 0 -0.300001 0 0 -0.300001 0 0 -0.300001 0 0 0 0 0 -0.300001 0 0 0 -0.300001 0 0 0 0 0 -0.300001 0 0 0 0 0 -0.300001 0 0 0 -0.300001 0 0 0 0 0 -0.300001 0.300001 0 0 0 0 -0.300001 0 0 0 0 0.300001 -0.300001 0 0 0 0 0.300001 -0.300001 0 0 0 0 0.300001 0 0 0 0 -0.300001 0.300001 0 0 0 0 0 0.300001 0 0 0 0.300001 0 0 0 0 0 0.300001 0 0 0 0 0 0.300001 0 0 0 0.300001 0 0 0 0 0 0.300001 0 0 0 0 0 0.300001 0.300001 0 0 0 0 0.300001 0 0 0.300001 0 0 0.300001 0 0 0 -3.60001 3.30001zm-57.0002 25.8001l0 0 2.10001 0 2.10001 0 2.10001 0 1.80001 -0.300001 2.10001 -0.300001 1.80001 -0.300001 2.10001 -0.300001 1.80001 -0.300001 2.10001 -0.600002 1.80001 -0.300001 1.80001 -0.600002 2.10001 -0.600002 1.80001 -0.900003 1.80001 -0.600002 1.80001 -0.900003 1.80001 -0.900003 1.80001 -0.900003 1.80001 -0.900003 1.5 -1.2 1.80001 -1.2 1.80001 -0.900003 1.5 -1.5 1.80001 -1.2 1.5 -1.2 1.80001 -1.5 1.5 -1.5 1.5 -1.5 1.5 -1.5 1.80001 -1.80001 1.5 -1.5 1.5 -1.80001 1.2 -1.80001 3.90001 3.00001 -1.5 1.80001 -1.5 1.80001 -1.80001 1.80001 -1.5 1.80001 -1.5 1.5 -1.80001 1.80001 -1.80001 1.5 -1.5 1.5 -1.80001 1.5 -1.80001 1.2 -1.80001 1.5 -1.80001 1.2 -1.80001 1.2 -1.80001 0.900003 -2.10001 1.2 -1.80001 0.900003 -1.80001 0.900003 -2.10001 0.900003 -1.80001 0.900003 -2.10001 0.900003 -2.10001 0.600002 -1.80001 0.600002 -2.10001 0.600002 -2.10001 0.600002 -2.10001 0.300001 -2.10001 0.300001 -2.10001 0.300001 -2.10001 0.300001 -2.10001 0.300001 -2.10001 0 -2.40001 0 -2.10001 0 0 0 0 -4.80002zm0 4.80002l0 0 -0.300001 0 0 0 -0.300001 0 0 0 0 0 -0.300001 0 0 0 -0.300001 0 0 -0.300001 0 0 -0.300001 0 0 0 0 0 0 -0.300001 -0.300001 0 0 0 0 -0.300001 0 0 -0.300001 0 0 0 0 -0.300001 0 0 0 -0.300001 -0.300001 0 0 0 0 -0.300001 0 0 0 0 0 -0.300001 0 0 0 -0.300001 0 0 0 0 0 -0.300001 0 0 0 -0.300001 0 0 0.300001 0 0 -0.300001 0 0 0 0 0 -0.300001 0 0 0.300001 0 0 -0.300001 0 0 0 0 0.300001 -0.300001 0 0 0 0 0.300001 0 0 0 0 -0.300001 0.300001 0 0 0 0 0 0.300001 0 0 0 0.300001 0 0 0 0 -0.300001 0.300001 0 0 0 0 4.80002zm-74.4002 -3.00001l0 0 2.40001 -0.300001 2.40001 0 2.40001 -0.300001 2.40001 0 2.10001 0 2.40001 -0.300001 2.40001 0 2.40001 0 2.10001 0 2.40001 -0.300001 2.40001 0 2.40001 0 2.10001 0 2.40001 0 2.40001 0 2.10001 0 2.40001 0 2.40001 0 2.40001 0 2.10001 0 2.40001 0 2.40001 0 2.10001 0 2.40001 0 2.40001 0 2.10001 0 2.40001 0 2.40001 0 2.40001 -0.300001 2.10001 0 2.40001 0 2.40001 -0.300001 0 4.80002 -2.10001 0.300001 -2.40001 0 -2.40001 0 -2.40001 0.300001 -2.10001 0 -2.40001 0 -2.40001 0 -2.40001 0 -2.40001 0 -2.10001 0 -2.40001 0 -2.40001 0 -2.10001 0 -2.40001 0 -2.40001 0 -2.40001 0 -2.10001 0 -2.40001 0 -2.40001 0 -2.10001 0 -2.40001 0 -2.40001 0.300001 -2.10001 0 -2.40001 0 -2.40001 0 -2.10001 0 -2.40001 0.300001 -2.40001 0 -2.10001 0 -2.40001 0.300001 -2.40001 0 -2.10001 0.300001 0 0 -0.600002 -4.80002zm0.600002 4.80002l-0.300001 0 0 0 0 0 -0.300001 0 0 0 -0.300001 0 0 0 0 0 -0.300001 0 0 -0.300001 0 0 -0.300001 0 0 0 0 0 -0.300001 -0.300001 0 0 0 0 -0.300001 0 0 -0.300001 0 0 0 0 -0.300001 -0.300001 0 0 0 0 0 -0.300001 0 0 0 0 -0.300001 -0.300001 0 0 0 0 0 -0.300001 0 0 0 -0.300001 0 0 0 -0.300001 0 0 0 0 0 -0.300001 0 0 0.300001 0 0 -0.300001 0 0 0 -0.300001 0 0 0 0 0.300001 -0.300001 0 0 0 0 0 0 0.300001 -0.300001 0 0 0 0 0 0 0.300001 -0.300001 0 0 0 0 0.300001 0 0 0 0 -0.300001 0.300001 0 0 0 0.300001 0 0 0 0 0 0.600002 4.80002zm-51.9002 23.4001l0 0 0.300001 -1.80001 0.300001 -1.80001 0.300001 -1.5 0.900003 -1.5 0.600002 -1.5 1.2 -1.5 1.2 -1.5 1.2 -1.2 1.5 -1.2 1.5 -0.900003 1.5 -1.2 1.80001 -0.900003 1.80001 -1.2 1.80001 -0.900003 1.80001 -0.900003 2.10001 -0.600002 1.80001 -0.900003 2.10001 -0.600002 2.10001 -0.900003 2.10001 -0.600002 2.10001 -0.600002 2.10001 -0.600002 2.10001 -0.600002 2.10001 -0.300001 2.10001 -0.600002 1.80001 -0.300001 2.10001 -0.600002 1.80001 -0.300001 2.10001 -0.300001 1.80001 -0.300001 1.5 -0.300001 1.80001 -0.300001 0.600002 4.80002 -1.5 0.300001 -1.80001 0.300001 -1.80001 0.300001 -1.80001 0.300001 -1.80001 0.300001 -1.80001 0.300001 -2.10001 0.600002 -2.10001 0.300001 -1.80001 0.600002 -2.10001 0.600002 -2.10001 0.300001 -1.80001 0.600002 -2.10001 0.900003 -2.10001 0.600002 -1.80001 0.600002 -1.80001 0.900003 -1.80001 0.600002 -1.80001 0.900003 -1.80001 0.900003 -1.5 0.900003 -1.5 0.900003 -1.5 0.900003 -1.2 0.900003 -1.2 0.900003 -1.2 1.2 -0.900003 0.900003 -0.600002 0.900003 -0.600002 1.2 -0.600002 0.900003 -0.300001 1.2 0 1.2 -0.300001 0.900003 0 0 -4.80002 0.300001zm4.80002 -0.300001l0 0.300001 0 0 0 0.300001 0 0 0 0 0 0.300001 0 0 0 0.300001 0 0 0 0 -0.300001 0.300001 0 0 0 0 0 0.300001 -0.300001 0 0 0 0 0 0 0.300001 -0.300001 0 0 0 0 0 -0.300001 0.300001 0 0 0 0 -0.300001 0 0 0 0 0 -0.300001 0.300001 0 0 -0.300001 0 0 0 0 0 -0.300001 0 0 0 -0.300001 0 0 0 0 0 -0.300001 -0.300001 0 0 -0.300001 0 0 0 0 0 -0.300001 0 0 -0.300001 0 0 -0.300001 0 0 0 0 0 0 -0.300001 -0.300001 0 0 0 0 -0.300001 0 0 -0.300001 0 0 -0.300001 0 0 0 0 0 -0.300001 0 0 0 0 -0.300001 -0.300001 0 0 0 -0.300001 0 0 4.80002 -0.300001zm40.8001 33.0001l0 0 -1.5 -0.300001 -1.5 -0.300001 -1.5 -0.300001 -1.80001 -0.300001 -1.5 -0.600002 -1.80001 -0.600002 -1.80001 -0.600002 -1.80001 -0.600002 -1.80001 -0.600002 -1.80001 -0.600002 -1.80001 -0.900003 -1.80001 -0.900003 -2.10001 -0.900003 -1.80001 -0.900003 -1.80001 -0.900003 -1.5 -0.900003 -1.80001 -1.2 -1.80001 -0.900003 -1.5 -1.2 -1.80001 -1.2 -1.5 -1.2 -1.2 -1.2 -1.5 -1.5 -1.2 -1.2 -1.2 -1.5 -0.900003 -1.5 -0.900003 -1.5 -0.900003 -1.5 -0.600002 -1.80001 -0.600002 -1.5 -0.300001 -1.80001 -0.300001 -1.80001 4.80002 -0.300001 0.300001 1.5 0.300001 1.2 0.300001 1.2 0.600002 1.2 0.600002 1.2 0.600002 1.2 0.900003 1.2 0.900003 1.2 1.2 1.2 1.2 1.2 1.2 1.2 1.2 0.900003 1.5 1.2 1.5 0.900003 1.5 1.2 1.80001 0.900003 1.5 0.900003 1.80001 0.900003 1.5 0.900003 1.80001 0.900003 1.80001 0.600002 1.80001 0.900003 1.80001 0.600002 1.5 0.600002 1.80001 0.600002 1.80001 0.600002 1.5 0.600002 1.5 0.300001 1.80001 0.300001 1.5 0.300001 1.2 0.300001 1.5 0.300001 0 0 -0.900003 4.80002zm0.900003 -4.80002l0 0 0 0 0.300001 0 0 0.300001 0.300001 0 0 0 0 0 0.300001 0 0 0.300001 0 0 0.300001 0 0 0 0 0.300001 0 0 0.300001 0 0 0 0 0.300001 0 0 0 0 0.300001 0.300001 0 0 0 0 0 0.300001 0 0 0 0.300001 0 0 0 0 0 0.300001 0 0 0 0.300001 0 0 0 0 0 0.300001 0 0 0 0.300001 0 0 0 0 0 0.300001 -0.300001 0 0 0 0 0.300001 0 0 0 0 -0.300001 0.300001 0 0 0 0 -0.300001 0 0 0.300001 0 0 -0.300001 0 0 0 0 0 -0.300001 0.300001 0 0 0 0 -0.300001 0 0 0 0 0 -0.300001 0 0 0 -0.300001 0 0 0 0 0 -0.300001 0 0.900003 -4.80002zm57.9002 -1.80001l0 0 -1.2 0.600002 -1.2 0.600002 -1.2 0.600002 -1.2 0.300001 -1.5 0.600002 -1.5 0.600002 -1.5 0.300001 -1.80001 0.600002 -1.5 0.300001 -1.80001 0.600002 -1.80001 0.300001 -1.80001 0.300001 -1.80001 0.600002 -2.10001 0.300001 -1.80001 0.300001 -2.10001 0.300001 -1.80001 0 -2.10001 0.300001 -2.10001 0.300001 -2.10001 0 -2.10001 0.300001 -2.10001 0 -2.10001 0 -2.10001 0 -2.10001 0 -2.10001 0 -2.10001 -0.300001 -2.10001 0 -2.10001 -0.300001 -1.80001 -0.300001 -2.10001 -0.300001 -2.10001 -0.300001 0.900003 -4.80002 1.80001 0.300001 2.10001 0.300001 1.80001 0.300001 2.10001 0.300001 1.80001 0 2.10001 0.300001 2.10001 0 1.80001 0 2.10001 0 2.10001 0 2.10001 0 1.80001 -0.300001 2.10001 0 1.80001 -0.300001 2.10001 -0.300001 1.80001 0 2.10001 -0.300001 1.80001 -0.300001 1.80001 -0.300001 1.80001 -0.300001 1.80001 -0.300001 1.5 -0.600002 1.80001 -0.300001 1.5 -0.300001 1.5 -0.600002 1.5 -0.300001 1.2 -0.600002 1.5 -0.600002 1.2 -0.300001 1.2 -0.600002 0.900003 -0.600002 1.2 -0.300001 0 0 2.10001 4.20001zm-2.10001 -4.20001l0 0 0 -0.300001 0.300001 0 0 0 0.300001 0 0 0 0 0 0.300001 0 0 0 0.300001 0 0 0 0 0 0.300001 0 0 0 0 0 0.300001 0 0 0 0.300001 0 0 0.300001 0 0 0.300001 0 0 0 0 0 0.300001 0.300001 0 0 0 0 0 0 0.300001 0.300001 0 0 0 0 0 0.300001 0.300001 0 0 0 0 0.300001 0 0 0 0 0 0.300001 0 0 0 0.300001 0.300001 0 0 0 0 0.300001 0 0 -0.300001 0.300001 0 0 0 0 0 0.300001 0 0 0 0 0 0.300001 0 0 0 0.300001 -0.300001 0 0 0 0 0.300001 0 0 0 0 -0.300001 0 0 0.300001 0 0 -0.300001 0 0 0 0 0.300001 -0.300001 0 -2.10001 -4.20001zm32.1001 -34.2001l2.40001 -1.80001 -0.300001 1.5 -0.600002 1.2 -0.600002 1.2 -0.300001 1.5 -0.600002 1.2 -0.300001 1.5 -0.600002 1.2 -0.600002 1.2 -0.600002 1.5 -0.600002 1.2 -0.600002 1.5 -0.600002 1.2 -0.600002 1.5 -0.900003 1.2 -0.900003 1.2 -0.600002 1.5 -0.900003 1.2 -1.2 1.2 -0.900003 1.2 -1.2 1.5 -0.900003 1.2 -1.2 1.2 -1.5 1.2 -1.2 1.2 -1.5 1.2 -1.5 1.2 -1.80001 1.2 -1.5 1.2 -1.80001 0.900003 -1.80001 1.2 -2.10001 1.2 -2.10001 0.900003 -2.10001 -4.20001 2.10001 -1.2 1.80001 -0.900003 1.80001 -0.900003 1.5 -1.2 1.5 -0.900003 1.5 -1.2 1.5 -0.900003 1.2 -1.2 1.2 -1.2 1.2 -0.900003 1.2 -1.2 0.900003 -1.2 1.2 -1.2 0.900003 -1.2 0.900003 -0.900003 0.600002 -1.2 0.900003 -1.2 0.600002 -1.2 0.900003 -1.2 0.600002 -1.2 0.600002 -1.2 0.600002 -1.2 0.600002 -1.5 0.300001 -1.2 0.600002 -1.2 0.600002 -1.2 0.300001 -1.2 0.600002 -1.5 0.300001 -1.2 0.600002 -1.2 0.300001 -1.5 0.600002 -1.2 2.10001 -1.5 0 4.80002zm-2.10001 -3.30001l0 0 0 -0.300001 0 0 0.300001 -0.300001 0 0 0 0 0 -0.300001 0.300001 0 0 0 0 0 0 -0.300001 0.300001 0 0 0 0 0 0.300001 -0.300001 0 0 0 0 0.300001 0 0 0 0 0 0.300001 0 0 0 0.300001 0 0 0 0 0 0.300001 0 0 0 0.300001 0 0 0 0 0 0.300001 0 0 0 0 0 0.300001 0 0 0 0.300001 0.300001 0 0 0 0 0.300001 0 0 0.300001 0 0 0 0 0.300001 0 0 0.300001 0 0 0 0 0 0.300001 0.300001 0 0 0 0 0.300001 0 0 0 0 0 0.300001 0 0 0 0.300001 0 0 0 0 0 0.300001 0 0 0 0.300001 0 0 0 0 0 0.300001 0 0 -4.50001 -1.5zm57.3002 0.900003l2.40001 2.40001 -1.80001 0 -1.80001 0 -1.80001 0 -1.80001 0 -1.80001 0 -1.80001 0 -1.80001 0 -1.80001 0 -1.80001 0 -1.80001 0 -1.80001 0 -1.80001 0 -1.80001 0 -1.80001 0 -1.80001 0 -1.80001 0 -1.80001 0 -1.80001 0 -1.80001 0 -1.80001 0 -1.80001 0 -1.80001 0 -1.80001 0 -1.80001 0 -1.80001 0 -1.80001 0 -1.80001 0 -1.80001 0 -1.80001 0 -1.80001 0 -1.80001 0 -1.80001 0 0 -4.80002 1.80001 0 1.80001 0 1.80001 0 1.80001 0 1.80001 0 1.80001 0 1.80001 0 1.80001 0 1.80001 0 1.80001 0 1.80001 0 1.80001 0 1.80001 0 1.80001 0 1.80001 0 1.80001 0 1.80001 0 1.80001 0 1.80001 0 1.80001 0 1.80001 0 1.80001 0 1.80001 0 1.80001 0 1.80001 0 1.80001 0 1.80001 0 1.80001 0 1.80001 0 1.80001 0 1.80001 0 1.80001 0 2.40001 2.40001 -4.80002 0zm2.40001 -2.40001l0.300001 0 0 0 0 0 0.300001 0 0 0 0 0 0.300001 0 0 0 0.300001 0 0 0 0 0.300001 0.300001 0 0 0 0 0 0.300001 0.300001 0 0 0 0 0 0 0.300001 0.300001 0 0 0 0 0 0.300001 0 0 0 0 0.300001 0.300001 0 0 0 0.300001 0 0 0 0 0 0.300001 0 0 0 0.300001 0 0 0 0 0 0.300001 0 0 0 0.300001 0 0 0 0 -0.300001 0.300001 0 0 0 0 0 0.300001 0 0 0 0 -0.300001 0.300001 0 0 0 0 0 0 -0.300001 0.300001 0 0 0 0 -0.300001 0 0 0.300001 0 0 -0.300001 0 0 0 -0.300001 0 0 0 0 0 -0.300001 0 0 0 0 0.300001 -0.300001 0 0 -4.80002zm1.80001 39.3001l-4.20001 -1.80001 0 -1.2 0 -0.900003 0 -1.2 0 -1.2 0 -0.900003 0 -1.2 0 -1.2 0 -0.900003 0 -1.2 0 -1.2 0 -0.900003 0 -1.2 0 -1.2 0 -0.900003 0 -1.2 0 -1.2 0 -0.900003 0 -1.2 0 -1.2 0 -0.900003 0 -1.2 0 -1.2 0 -0.900003 0 -1.2 0 -1.2 0 -0.900003 0 -1.2 0 -1.2 0 -0.900003 0 -1.2 0 -1.2 0 -0.900003 4.80002 0 0 0.900003 0 1.2 0 1.2 0 0.900003 0 1.2 0 1.2 0 0.900003 0 1.2 0 1.2 0 0.900003 0 1.2 0 1.2 0 0.900003 0 1.2 0 1.2 0 0.900003 0 1.2 0 1.2 0 0.900003 0 1.2 0 1.2 0 0.900003 0 1.2 0 1.2 0 0.900003 0 1.2 0 1.2 0 0.900003 0 1.2 0 1.2 0 0.900003 0 1.2 -3.90001 -1.80001 3.30001 3.60001zm0.600002 -1.80001l0 0.300001 0 0 0 0 0 0.300001 0 0 0 0.300001 0 0 -0.300001 0 0 0.300001 0 0 0 0 0 0.300001 0 0 -0.300001 0 0 0.300001 0 0 0 0 -0.300001 0 0 0.300001 0 0 -0.300001 0 0 0 0 0 -0.300001 0.300001 0 0 -0.300001 0 0 0 0 0 -0.300001 0 0 0 0 0 -0.300001 0 0 0 -0.300001 0 0 0 0 0 -0.300001 0 0 0 -0.300001 0 0 0 0 -0.300001 -0.300001 0 0 0 0 0 -0.300001 0 0 -0.300001 0 0 -0.300001 0 0 0 0 -0.300001 0 0 -0.300001 0 0 -0.300001 0 0 0 0 0 -0.300001 0 0 -0.300001 0 0 -0.300001 0 0 0 -0.300001 0 0 0 0 0 -0.300001 4.80002 0z"/>
   </g>
   <circle id="_195179656" class="fil4 str1" cx="242.9" cy="426.301" r="15.9001"/>
  </g>
 </g>
</svg>
